<?xml version="1.0" encoding="utf-8"?>
<!-- Generator: Adobe Illustrator 20.1.0, SVG Export Plug-In . SVG Version: 6.00 Build 0)  -->
<svg version="1.1" id="accessiblity_1_" xmlns="http://www.w3.org/2000/svg" xmlns:xlink="http://www.w3.org/1999/xlink" x="0px"
	 y="0px" viewBox="0 0 24 24" style="enable-background:new 0 0 24 24;" xml:space="preserve">
<style type="text/css">
	.st0{fill:none;}
</style>
<title>accessiblity</title>
<desc>Created with Sketch.</desc>
<g id="EUXICONS">
	<g id="accessiblity">
		<path id="Combined-Shape" d="M12,6c1.1,0,2-0.9,2-2s-0.9-2-2-2s-2,0.9-2,2S10.9,6,12,6z M19,13v-2c-1.6,0-3.1-0.8-4.1-1.8
			l-1.3-1.4c-0.2-0.2-0.4-0.3-0.6-0.4l0,0l0,0C12.6,7.1,12.2,7,11.8,7C10.7,7.1,10,8.1,10,9.1V15c0,1.1,0.9,2,2,2h5v5h2v-5.5
			c0-1.1-0.9-2-2-2h-3v-3.4C15.3,12.1,17.2,13,19,13z M12.8,18c-0.4,1.2-1.5,2-2.8,2c-1.7,0-3-1.3-3-3c0-1.3,0.8-2.4,2-2.8v-2.1
			c-2.2,0.4-4,2.4-4,4.9c0,2.8,2.3,5,5,5c2.4,0,4.4-1.8,4.9-4H12.8z"/>
	</g>
</g>
<rect class="st0" width="24" height="24"/>
</svg>
