<?xml version="1.0" encoding="utf-8"?>
<!-- Generator: Adobe Illustrator 20.1.0, SVG Export Plug-In . SVG Version: 6.00 Build 0)  -->
<svg version="1.1" id="account_1_" xmlns="http://www.w3.org/2000/svg" xmlns:xlink="http://www.w3.org/1999/xlink" x="0px" y="0px"
	 viewBox="0 0 24 24" style="enable-background:new 0 0 24 24;" xml:space="preserve">
<style type="text/css">
	.st0{fill:none;}
</style>
<title>account</title>
<desc>Created with Sketch.</desc>
<g id="EUXICONS">
	<g id="account">
		<path id="Shape" d="M12,2C6.5,2,2,6.5,2,12s4.5,10,10,10s10-4.5,10-10S17.5,2,12,2L12,2z M12,5c1.7,0,3,1.3,3,3s-1.3,3-3,3
			S9,9.7,9,8S10.3,5,12,5L12,5z M12,19.2c-2.5,0-4.7-1.2-6-3.2c0-2,4-3.1,6-3.1s6,1.1,6,3.1C16.7,17.9,14.5,19.2,12,19.2L12,19.2z"
			/>
	</g>
</g>
<rect x="0" class="st0" width="24" height="24"/>
</svg>
