<svg id="Layer_1" data-name="Layer 1" xmlns="http://www.w3.org/2000/svg" viewBox="0 0 24 24"><defs><style>.cls-1{fill:#231f20;fill-rule:evenodd;}.cls-2{fill:none;}</style></defs><title>ad_tag</title><path class="cls-1" d="M15,11.93l-.5-.29-1.66,2.86.4.23a1.44,1.44,0,0,0,2.19-.67Q16.25,12.66,15,11.93Z" transform="translate(0 0)"/><path class="cls-1" d="M9.25,11l1.15.66.43-1.89q.05-.22.09-.34Q10.6,9.8,9.25,11Z" transform="translate(0 0)"/><path class="cls-1" d="M18.46,2.5A.77.77,0,0,0,17.62,2L10,3.48,3.09,15.36a.64.64,0,0,0,.24.88l9.89,5.67a.65.65,0,0,0,.88-.23L21,9.79ZM9.88,13.84l.29-1.23-1.61-.92-.93.86-1-.58,4.12-3.51,1.15.66-1,5.31Zm6.53.76a2.51,2.51,0,0,1-1.59,1.3,2.94,2.94,0,0,1-2.13-.45l-1.25-.72L14,10.35l1.39.8a2.68,2.68,0,0,1,1.35,1.53A2.4,2.4,0,0,1,16.41,14.6Zm1.6-10a1.1,1.1,0,0,1-1.5.4,1.09,1.09,0,0,1-.4-1.49,1.1,1.1,0,0,1,1.5-.4A1.09,1.09,0,0,1,18,4.64Z" transform="translate(0 0)"/><rect class="cls-2" width="24" height="24"/></svg>