<?xml version="1.0" encoding="utf-8"?>
<!-- Generator: Adobe Illustrator 20.1.0, SVG Export Plug-In . SVG Version: 6.00 Build 0)  -->
<svg version="1.1" id="add_x5F_cart" xmlns="http://www.w3.org/2000/svg" xmlns:xlink="http://www.w3.org/1999/xlink" x="0px"
	 y="0px" viewBox="0 0 24 24" style="enable-background:new 0 0 24 24;" xml:space="preserve">
<style type="text/css">
	.st0{fill:none;}
</style>
<title>add_cart</title>
<desc>Created with Sketch.</desc>
<g id="EUXICONS">
	<g id="add_cart">
		<path id="Shape" d="M11.9,9.6h2V6.8h3V4.9h-3V2h-2v2.9h-3v1.9h3V9.6L11.9,9.6z M7.9,18.2c-1.1,0-2,0.9-2,1.9c0,1.1,0.9,1.9,2,1.9
			s2-0.9,2-1.9C9.9,19.1,9,18.2,7.9,18.2L7.9,18.2z M17.9,18.2c-1.1,0-2,0.9-2,1.9c0,1.1,0.9,1.9,2,1.9c1.1,0,2-0.9,2-1.9
			C19.9,19.1,19,18.2,17.9,18.2L17.9,18.2z M8.1,15.2V15L9,13.5h7.4c0.8,0,1.4-0.4,1.7-1L22,5.8l-1.7-0.9l0,0l-1.1,1.9l-2.7,4.8h-7
			l-0.1-0.3L7,6.8L6.1,4.9L5.2,3H2v1.9h2l3.6,7.3l-1.4,2.3C6,14.7,5.9,15,5.9,15.4c0,1.1,0.9,1.9,2,1.9h12v-1.9H8.3
			C8.2,15.4,8.1,15.3,8.1,15.2L8.1,15.2z"/>
	</g>
</g>
<rect x="0" class="st0" width="24" height="24"/>
</svg>
