<?xml version="1.0" encoding="utf-8"?>
<!-- Generator: Adobe Illustrator 20.1.0, SVG Export Plug-In . SVG Version: 6.00 Build 0)  -->
<svg version="1.1" id="add_x5F_a_x5F_photo" xmlns="http://www.w3.org/2000/svg" xmlns:xlink="http://www.w3.org/1999/xlink"
	 x="0px" y="0px" viewBox="0 0 24 24" style="enable-background:new 0 0 24 24;" xml:space="preserve">
<style type="text/css">
	.st0{fill:none;}
</style>
<title>add_a_photo</title>
<desc>Created with Sketch.</desc>
<g id="EUXICONS">
	<g id="add_a_photo">
		<path id="Shape" d="M4.6,5.6V3h1.8v2.6H9v1.7H6.4v2.6H4.6V7.3H2V5.6H4.6L4.6,5.6z M7.2,10.7V8.1h2.6V5.6h6.1l1.6,1.7h2.8
			C21.2,7.3,22,8,22,9v10.3c0,0.9-0.8,1.7-1.8,1.7H6.4c-0.9,0-1.8-0.8-1.8-1.7v-8.6H7.2L7.2,10.7z M13.3,18.5c2.4,0,4.4-1.9,4.4-4.3
			s-1.9-4.3-4.4-4.3S9,11.8,9,14.2S10.9,18.5,13.3,18.5L13.3,18.5z M10.5,14.2c0,1.5,1.3,2.8,2.8,2.8s2.8-1.3,2.8-2.8
			s-1.3-2.8-2.8-2.8S10.5,12.7,10.5,14.2L10.5,14.2z"/>
	</g>
</g>
<rect class="st0" width="24" height="24"/>
</svg>
