<?xml version="1.0" encoding="utf-8"?>
<!-- Generator: Adobe Illustrator 20.1.0, SVG Export Plug-In . SVG Version: 6.00 Build 0)  -->
<svg version="1.1" id="Layer_1" xmlns="http://www.w3.org/2000/svg" xmlns:xlink="http://www.w3.org/1999/xlink" x="0px" y="0px"
	 viewBox="0 0 24 24" style="enable-background:new 0 0 24 24;" xml:space="preserve">
<style type="text/css">
	.st0{fill:none;}
</style>
<title>payment_amex</title>
<g id="EUXICONS">
	<g id="payment_amex">
		<path id="Shape" d="M3,10.2h0.8L3.4,9.3L3,10.2z M8.4,14.6L9.1,14l-0.6-0.7H7.1v0.4h1.2v0.5H7.1v0.5H8.4z M9.8,14l0.9,0.9v-1.8
			L9.8,14z M12.3,13.6c0-0.2-0.1-0.3-0.3-0.3h-0.7v0.6h0.7C12.2,13.9,12.3,13.8,12.3,13.6L12.3,13.6z M14.8,13.6
			c0-0.2-0.1-0.2-0.4-0.2h-0.7v0.5h0.7C14.7,13.8,14.8,13.7,14.8,13.6L14.8,13.6z M12.4,9.6c0-0.2-0.1-0.2-0.4-0.2h-0.7v0.5H12
			C12.3,9.9,12.4,9.8,12.4,9.6L12.4,9.6z M16.4,10.2h0.8l-0.4-0.9L16.4,10.2z M8.1,8.9v2.3H7.5V9.4l-0.8,1.8H6.2L5.4,9.4v1.8H4.2
			L4,10.7H2.9l-0.2,0.5H2l1-2.3h0.9l1,2.2V8.9h0.9l0.7,1.6l0.7-1.6H8.1z M12.9,13.6c0,0.1,0,0.2,0,0.3c0,0.1-0.1,0.1-0.1,0.2
			c-0.1,0.1-0.1,0.1-0.2,0.1c-0.1,0-0.1,0.1-0.2,0.1c-0.1,0-0.2,0-0.3,0h-0.8v0.8h-1.1l-0.7-0.8l-0.7,0.8H6.5v-2.3h2.3l0.7,0.8
			l0.7-0.8h1.8C12.6,12.8,12.9,13.1,12.9,13.6L12.9,13.6z M10.4,10.7v0.5H8.5V8.9h1.9v0.5H9.1v0.4h1.3v0.5H9.1v0.5L10.4,10.7z
			 M22,15.4v1.9c0,0.3-0.1,0.6-0.3,0.8c-0.2,0.2-0.5,0.3-0.8,0.3H3.2c-0.3,0-0.6-0.1-0.8-0.3C2.1,18,2,17.7,2,17.4v-5.7h1l0.2-0.5
			h0.5l0.2,0.5h1.9v-0.4l0.2,0.4h1l0.2-0.4v0.4h4.7v-0.8h0.1c0.1,0,0.1,0,0.1,0.1v0.7h2.4v-0.2c0.1,0.1,0.3,0.1,0.5,0.2
			c0.2,0,0.3,0,0.5,0.1h1l0.2-0.5H17l0.2,0.5h2v-0.5l0.3,0.5h1.6V8.4h-1.6v0.4l-0.2-0.4h-1.6v0.4l-0.2-0.4h-2.2
			c-0.3,0-0.6,0.1-0.9,0.2V8.4h-1.5v0.2c-0.2-0.1-0.4-0.2-0.6-0.2H6.8L6.4,9.3L6.1,8.4H4.4v0.4L4.2,8.4H2.7L2,9.9V6.6
			C2,6.3,2.1,6,2.4,5.8c0.2-0.2,0.5-0.3,0.8-0.3h17.7c0.3,0,0.6,0.1,0.8,0.3C21.9,6,22,6.3,22,6.6v5.7h-1c-0.2,0-0.5,0.1-0.7,0.2
			v-0.2h-1.5c-0.2,0-0.5,0-0.7,0.2v-0.2h-2.7v0.2c-0.2-0.1-0.5-0.2-0.8-0.2h-1.8v0.2c-0.2-0.2-0.5-0.2-0.8-0.2h-2l-0.5,0.5L9,12.4H6
			v3.2h3l0.5-0.5l0.4,0.5h1.8v-0.8h0.2c0.3,0,0.5,0,0.8-0.1v0.9h1.5v-0.8h0.1c0,0,0.1,0,0.1,0c0,0,0,0,0,0.1v0.7H19
			c0.3,0,0.5-0.1,0.8-0.2v0.2h1.5C21.5,15.6,21.7,15.5,22,15.4z M15.4,13.4c0,0.1,0,0.3-0.1,0.4C15.2,13.9,15.1,14,15,14
			c0.1,0,0.2,0.1,0.3,0.2c0.1,0.1,0.1,0.3,0.1,0.4v0.5h-0.6v-0.4c0-0.1,0-0.3-0.1-0.4c-0.1-0.1-0.3-0.1-0.4-0.1h-0.6v0.8h-0.6v-2.3
			h1.4c0.2,0,0.5,0,0.7,0.1C15.3,13,15.4,13.2,15.4,13.4L15.4,13.4z M13,9.5c0,0.1,0,0.3-0.1,0.4c-0.1,0.1-0.2,0.2-0.3,0.2
			c0.1,0,0.2,0.1,0.3,0.2c0.1,0.1,0.1,0.3,0.1,0.4v0.5h-0.6c0-0.1,0-0.1,0-0.2c0-0.1,0-0.2,0-0.2c0-0.1,0-0.1,0-0.2
			c0-0.1,0-0.1-0.1-0.1c0,0-0.1-0.1-0.1-0.1c-0.1,0-0.2,0-0.3,0h-0.6v0.8h-0.6V8.9h1.3c0.2,0,0.5,0,0.7,0.1C12.9,9.1,13,9.3,13,9.5
			L13,9.5z M17.6,14.6v0.5h-1.9v-2.3h1.9v0.5h-1.3v0.4h1.3v0.5h-1.3v0.5H17.6z M13.9,8.9v2.3h-0.6V8.9L13.9,8.9z M19.9,14.4
			c0,0.5-0.3,0.7-0.9,0.7h-1.1v-0.5H19c0.2,0,0.3-0.1,0.3-0.2c0-0.1-0.1-0.2-0.1-0.2c-0.1,0-0.2,0-0.4,0c-0.1,0-0.3,0-0.4,0
			c-0.1,0-0.3-0.1-0.4-0.2c-0.1-0.1-0.2-0.3-0.1-0.5c0-0.2,0.1-0.4,0.2-0.5c0.2-0.1,0.4-0.2,0.6-0.2h1.1v0.5h-1
			c-0.2,0-0.3,0.1-0.3,0.2c0,0.1,0.1,0.2,0.1,0.2c0.1,0,0.2,0,0.4,0c0.1,0,0.3,0,0.4,0c0.1,0,0.3,0.1,0.4,0.2
			C19.9,14.1,19.9,14.3,19.9,14.4L19.9,14.4z M22,14v0.9c-0.2,0.2-0.5,0.3-0.8,0.3h-1.1v-0.5h1.1c0.2,0,0.3-0.1,0.3-0.2
			c0-0.1,0-0.1-0.1-0.2c-0.1,0-0.2-0.1-0.3,0c-0.1,0-0.2,0-0.3,0c-0.1,0-0.2,0-0.3-0.1c-0.1,0-0.2-0.1-0.3-0.2
			c-0.1-0.1-0.1-0.3-0.1-0.4c0-0.2,0.1-0.4,0.2-0.5c0.2-0.1,0.4-0.2,0.6-0.2H22v0.5h-1c-0.2,0-0.3,0.1-0.3,0.2s0.1,0.2,0.2,0.2
			l0.6,0C21.7,13.8,21.9,13.9,22,14L22,14z M20.6,8.9v2.3h-0.8l-1.1-1.7v1.7h-1.1l-0.2-0.5h-1.2L16,11.2h-0.6
			c-0.6,0.1-1.1-0.3-1.1-0.9c0-0.1,0-0.2,0-0.3c0-0.8,0.4-1.2,1.2-1.2h0.5v0.5h-0.5h-0.2c-0.1,0-0.1,0-0.2,0.1l-0.1,0.1
			c-0.1,0.1-0.1,0.1-0.1,0.2c0,0.1,0,0.2,0,0.3c0,0.2,0,0.3,0.1,0.5c0.1,0.1,0.3,0.2,0.4,0.2h0.2l0.8-1.8h0.8l0.9,2.2V8.9h0.9l1,1.6
			V8.9L20.6,8.9z"/>
	</g>
</g>
<rect class="st0" width="24" height="24"/>
</svg>
