<?xml version="1.0" encoding="utf-8"?>
<!-- Generator: Adobe Illustrator 20.1.0, SVG Export Plug-In . SVG Version: 6.00 Build 0)  -->
<svg version="1.1" id="Layer_1" xmlns="http://www.w3.org/2000/svg" xmlns:xlink="http://www.w3.org/1999/xlink" x="0px" y="0px"
	 viewBox="0 0 24 24" style="enable-background:new 0 0 24 24;" xml:space="preserve">
<style type="text/css">
	.st0{fill:none;}
</style>
<title>applications</title>
<desc>Created with Sketch.</desc>
<g id="EUXICONS">
	<g id="applications">
		<path id="Shape" d="M2,7h5V2H2V7L2,7z M9.5,22h5v-5h-5V22L9.5,22z M2,22h5v-5H2V22L2,22z M2,14.5h5v-5H2V14.5L2,14.5z M9.5,14.5h5
			v-5h-5V14.5L9.5,14.5z M17,2v5h5V2H17L17,2z M9.5,7h5V2h-5V7L9.5,7z M17,14.5h5v-5h-5V14.5L17,14.5z M17,22h5v-5h-5V22L17,22z"/>
	</g>
</g>
<rect class="st0" width="24" height="24"/>
</svg>
