<?xml version="1.0" encoding="utf-8"?>
<!-- Generator: Adobe Illustrator 20.1.0, SVG Export Plug-In . SVG Version: 6.00 Build 0)  -->
<svg version="1.1" id="Layer_1" xmlns="http://www.w3.org/2000/svg" xmlns:xlink="http://www.w3.org/1999/xlink" x="0px" y="0px"
	 viewBox="0 0 24 24" style="enable-background:new 0 0 24 24;" xml:space="preserve">
<style type="text/css">
	.st0{fill:none;}
</style>
<title>apron</title>
<desc>Created with Sketch.</desc>
<g id="EUXICONS">
	<g id="apron">
		<path id="Shape" d="M20.9,15.1L20.9,15.1c0-1.4-0.4-2.6-2-2.9l0,0l0,0c-0.1,0-0.2-0.1-0.3-0.1c-0.4-0.1-1.3-0.4-1.8-1.4
			c-0.3-0.5-0.6-1.2-0.8-2.1l-0.8-3.7c0,0,0,0,0-0.1V4.6l0,0C14.9,3.1,13.5,2,12,2S9.1,3.1,8.7,4.6l0,0v0.1c0,0,0,0,0,0.1L8.3,6.6
			l0,0c0,0,0,0,0,0.1L8,8.2c-0.3,0.9-0.5,1.6-0.8,2.2c-0.6,1.2-1.4,1.6-1.9,1.7c-0.1,0-0.2,0.1-0.3,0.1l0,0l0,0
			c-1.6,0.4-2,1.6-2,2.9v0.1c0,1-0.8,1.1-1.1,1.2V18c1.1,0,2.8-0.8,2.9-2.9v-0.1v-0.1l0,0c0-0.1,0-0.1,0-0.1c0-0.2,0.2-0.8,1.4-0.9
			L6.1,22H18l-0.2-8.1c1.1,0.1,1.3,0.6,1.3,0.9c0,0.1,0,0.1,0,0.1l0,0V15v0.1c0,2.1,1.7,2.9,2.9,2.9v-1.8
			C21.7,16.2,20.9,16.1,20.9,15.1L20.9,15.1z M9.8,8.8l0.5-3.6l0,0c0.1-0.8,0.9-1.4,1.7-1.4c0.9,0,1.6,0.6,1.7,1.4l0,0l0.5,3.6H9.8
			L9.8,8.8z"/>
	</g>
</g>
<rect class="st0" width="24" height="24"/>
</svg>
