<?xml version="1.0" encoding="utf-8"?>
<!-- Generator: Adobe Illustrator 20.1.0, SVG Export Plug-In . SVG Version: 6.00 Build 0)  -->
<svg version="1.1" id="Layer_1" xmlns="http://www.w3.org/2000/svg" xmlns:xlink="http://www.w3.org/1999/xlink" x="0px" y="0px"
	 viewBox="0 0 24 24" style="enable-background:new 0 0 24 24;" xml:space="preserve">
<style type="text/css">
	.st0{fill:none;}
</style>
<title>ban</title>
<path d="M12,2C6.5,2,2,6.5,2,12s4.5,10,10,10s10-4.5,10-10S17.5,2,12,2z M20,12c0,1.8-0.6,3.5-1.7,4.9L7.1,5.7
	c3.5-2.7,8.5-2.1,11.2,1.4C19.4,8.5,20,10.2,20,12z M4,12c0-1.8,0.6-3.5,1.7-4.9l11.2,11.2c-3.5,2.7-8.5,2.1-11.2-1.4
	C4.6,15.5,4,13.8,4,12z"/>
<rect class="st0" width="24" height="24"/>
</svg>
