<?xml version="1.0" encoding="utf-8"?>
<!-- Generator: Adobe Illustrator 20.1.0, SVG Export Plug-In . SVG Version: 6.00 Build 0)  -->
<svg version="1.1" id="Layer_1" xmlns="http://www.w3.org/2000/svg" xmlns:xlink="http://www.w3.org/1999/xlink" x="0px" y="0px"
	 viewBox="0 0 24 24" style="enable-background:new 0 0 24 24;" xml:space="preserve">
<style type="text/css">
	.st0{fill:none;}
</style>
<title>barcode</title>
<desc>Created with Sketch.</desc>
<g id="EUXICONS">
	<g id="barcode">
		<path id="Shape" d="M2.7,20H2V4h0.7V20z M3.4,20H3.1V4h0.4L3.4,20L3.4,20z M4.4,20H4.1V4h0.4L4.4,20L4.4,20z M6.2,20H5.9V4h0.4
			L6.2,20L6.2,20z M7.9,20H7.2V4h0.7V20z M9.4,20H9V4h0.4V20z M10.1,20H9.7V4h0.4V20z M10.8,20h-0.4V4h0.4V20z M12.5,20h-0.7V4h0.7
			V20z M14.2,20h-0.7V4h0.7V20z M15.7,20H15V4h0.7V20z M17.1,20h-0.7V4h0.7V20z M18.1,20h-0.7V4h0.7V20z M20.2,20h-1.1V4h1.1V20z
			 M20.9,20h-0.4V4h0.4V20z M22,20h-0.7V4H22V20z"/>
	</g>
</g>
<rect x="0" class="st0" width="24" height="24"/>
</svg>
