<?xml version="1.0" encoding="utf-8"?>
<!-- Generator: Adobe Illustrator 20.1.0, SVG Export Plug-In . SVG Version: 6.00 Build 0)  -->
<svg version="1.1" id="Layer_1" xmlns="http://www.w3.org/2000/svg" xmlns:xlink="http://www.w3.org/1999/xlink" x="0px" y="0px"
	 viewBox="0 0 24 24" style="enable-background:new 0 0 24 24;" xml:space="preserve">
<style type="text/css">
	.st0{fill:none;}
</style>
<title>bat</title>
<g id="EUXICONS">
	<g id="holiday_bat">
		<path id="Shape" d="M18.6,7.1c-2.3,0.4-4.3,1.8-5.2,3.9L12,9.1l-1.3,2C9.5,8.8,7.7,7.4,5.4,7.1C4.3,6.9,3.1,7,2,7.6
			c2.2,0.3,2.8,1.7,2.4,3c1.7-0.5,3.5,1.2,2.9,3.2c0.6-0.2,1.2-0.3,1.7-0.2c1.5,0.2,2.5,1.7,2.9,3.4c0.4-1.8,1.4-3.2,2.9-3.4
			c0.6-0.1,1.2,0,1.7,0.2c-0.6-2,1.2-3.7,2.9-3.2c-0.4-1.4,0.2-2.7,2.4-3C20.9,7,19.7,6.9,18.6,7.1z"/>
	</g>
</g>
<rect x="0" class="st0" width="24" height="24"/>
</svg>
