<?xml version="1.0" encoding="utf-8"?>
<!-- Generator: Adobe Illustrator 20.1.0, SVG Export Plug-In . SVG Version: 6.00 Build 0)  -->
<svg version="1.1" id="Layer_1" xmlns="http://www.w3.org/2000/svg" xmlns:xlink="http://www.w3.org/1999/xlink" x="0px" y="0px"
	 viewBox="0 0 24 24" style="enable-background:new 0 0 24 24;" xml:space="preserve">
<style type="text/css">
	.st0{fill:none;}
</style>
<title>battery_unknown</title>
<desc>Created with Sketch.</desc>
<g id="EUXICONS">
	<g id="battery_unknown">
		<path id="Shape" d="M15.7,4H14V2h-4v2H8.3C7.6,4,7,4.6,7,5.3v15.3C7,21.4,7.6,22,8.3,22h7.4c0.8,0,1.3-0.6,1.3-1.3V5.3
			C17.1,4.6,16.4,4,15.7,4L15.7,4z M13,17.9h-1.9v-1.9H13V17.9L13,17.9z M14.4,12.7c0,0-0.4,0.4-0.7,0.7c-0.5,0.5-0.8,1.1-0.8,1.6
			h-1.6c0-0.8,0.4-1.5,0.9-2l0.9-0.9c0.3-0.2,0.4-0.6,0.4-1.1c0-0.8-0.7-1.5-1.5-1.5s-1.5,0.7-1.5,1.5H9c0-1.7,1.3-3,3-3s3,1.3,3,3
			C15,11.7,14.8,12.2,14.4,12.7L14.4,12.7z"/>
	</g>
</g>
<rect x="0" class="st0" width="24" height="24"/>
</svg>
