<?xml version="1.0" encoding="utf-8"?>
<!-- Generator: Adobe Illustrator 20.1.0, SVG Export Plug-In . SVG Version: 6.00 Build 0)  -->
<svg version="1.1" id="Layer_1" xmlns="http://www.w3.org/2000/svg" xmlns:xlink="http://www.w3.org/1999/xlink" x="0px" y="0px"
	 viewBox="0 0 24 24" style="enable-background:new 0 0 24 24;" xml:space="preserve">
<style type="text/css">
	.st0{fill:none;}
</style>
<title>bell_active</title>
<path d="M7.6,3.7L6.1,2.2c-2.5,1.9-4,4.9-4.1,8h2C4.1,7.6,5.4,5.2,7.6,3.7z M20,10.2h2c-0.1-3.1-1.6-6.1-4.1-8l-1.4,1.5
	C18.6,5.2,19.9,7.6,20,10.2z M18,10.8c0-3.1-1.6-5.8-4.5-6.5V3.6c0.1-0.8-0.6-1.5-1.4-1.6c-0.8-0.1-1.5,0.6-1.6,1.4
	c0,0.1,0,0.1,0,0.2v0.7C7.6,5,6,7.6,6,10.8v5.1l-2,2v1h16v-1l-2-2V10.8z M12,22c0.1,0,0.3,0,0.4,0c0.7-0.1,1.2-0.6,1.5-1.2
	C14,20.5,14,20.2,14,20h-4C10,21.1,10.9,22,12,22z"/>
<rect y="0" class="st0" width="24" height="24"/>
</svg>
