<?xml version="1.0" encoding="utf-8"?>
<!-- Generator: Adobe Illustrator 20.1.0, SVG Export Plug-In . SVG Version: 6.00 Build 0)  -->
<svg version="1.1" id="Layer_1" xmlns="http://www.w3.org/2000/svg" xmlns:xlink="http://www.w3.org/1999/xlink" x="0px" y="0px"
	 viewBox="0 0 24 24" style="enable-background:new 0 0 24 24;" xml:space="preserve">
<style type="text/css">
	.st0{fill:none;}
</style>
<title>bell_off</title>
<path d="M19.5,18.6L7.3,5.7L4.8,3L3.5,4.3l2.8,2.9l0,0c-0.5,1.1-0.8,2.3-0.8,3.5v5.1l-2,2.1v1h13.7l2,2l1.3-1.3L19.5,18.6z M11.5,22
	c1.1,0,2-0.9,2-2c0,0,0,0,0,0h-4C9.5,21.1,10.4,22,11.5,22C11.5,22,11.5,22,11.5,22z M17.5,14.5v-3.7c0-3.2-1.6-5.8-4.5-6.5V3.5
	C13,2.7,12.3,2,11.5,2S10,2.7,10,3.5v0.7c-0.1,0-0.3,0.1-0.4,0.1c-0.1,0-0.2,0.1-0.3,0.1l0,0l0,0C9,4.6,8.8,4.7,8.6,4.8l0,0
	L17.5,14.5z"/>
<rect y="0" class="st0" width="24" height="24"/>
</svg>
