<?xml version="1.0" encoding="utf-8"?>
<!-- Generator: Adobe Illustrator 20.1.0, SVG Export Plug-In . SVG Version: 6.00 Build 0)  -->
<svg version="1.1" id="Layer_1" xmlns="http://www.w3.org/2000/svg" xmlns:xlink="http://www.w3.org/1999/xlink" x="0px" y="0px"
	 viewBox="0 0 24 24" style="enable-background:new 0 0 24 24;" xml:space="preserve">
<style type="text/css">
	.st0{fill:none;}
</style>
<title>benefits</title>
<g id="EUXICONS">
	<g id="employee_benefits">
		<path id="Combined-Shape" d="M22,11.5c0-0.6-0.5-1.2-1.1-1.2l0,0c-0.2,0-0.4,0.1-0.6,0.2l0,0l-4.8,2.7h-3c-0.3,0-0.5-0.2-0.7-0.5
			c-0.1-0.2-0.1-0.3-0.1-0.5c0-0.4,0.3-0.8,0.7-0.9h2.8l0,0l0,0c0.6,0,1.1-0.5,1.2-1.1c0,0,0,0,0-0.1c0-0.2-0.1-0.4-0.2-0.6
			C15.9,9.2,15.5,9,15.1,9l0,0l0,0H7.9l0,0C7.6,9,7.3,9.1,7,9.4l0,0l-3.2,3L2,14.1V22l1.8-1.5l5-4.3l0,0c0.4-0.4,0.9-0.6,1.4-0.6H16
			l5.4-3l0,0C21.8,12.4,22,12,22,11.5z M10.4,7.3c-0.1-0.2-0.1-0.4-0.1-0.7h0.9c0,0.4,0,0.4,0.4,0.4c0.1,0,0.3,0,0.4-0.1
			c0.1-0.1,0.1-0.2,0.1-0.3c0,0,0,0,0-0.1c0-0.1,0-0.3-0.6-0.4c-0.4,0-0.8-0.3-1-0.6c-0.2-0.2-0.2-0.5-0.2-0.8
			c0-0.3,0.1-0.7,0.4-0.9c0.1-0.1,0.3-0.2,0.5-0.3V3.2h1v0.5c0.2,0.1,0.4,0.2,0.5,0.3C12.9,4.3,13,4.6,13,4.9V5h-0.9V4.9
			c0-0.1,0-0.2-0.1-0.2c-0.1-0.1-0.2-0.1-0.4-0.1l0,0c-0.1,0-0.3,0-0.4,0.1c-0.1,0.1-0.1,0.2-0.1,0.3V5c0,0,0,0.3,0.5,0.4
			C13,5.6,13,6.4,13,6.6l0,0c0,0.2-0.1,0.4-0.2,0.6h3.5c0.3-2.6-1.6-5-4.2-5.2S7.3,3.7,7,6.3c0,0.3,0,0.7,0,1H10.4z"/>
	</g>
</g>
<rect class="st0" width="24" height="24"/>
</svg>
