<?xml version="1.0" encoding="utf-8"?>
<!-- Generator: Adobe Illustrator 20.1.0, SVG Export Plug-In . SVG Version: 6.00 Build 0)  -->
<svg version="1.1" id="Layer_1" xmlns="http://www.w3.org/2000/svg" xmlns:xlink="http://www.w3.org/1999/xlink" x="0px" y="0px"
	 viewBox="0 0 24 24" style="enable-background:new 0 0 24 24;" xml:space="preserve">
<style type="text/css">
	.st0{fill:none;}
</style>
<title>payment_bitcoin</title>
<g id="EUXICONS">
	<g id="payment_bitcoin">
		<path id="Shape" d="M18.3,8.2c0.3,1.3-0.4,2.6-1.6,3.1c0.9,0.2,1.6,0.6,2.2,1.2c0.5,0.8,0.7,1.7,0.6,2.6c0,0.5-0.2,1-0.4,1.5
			c-0.2,0.4-0.5,0.7-0.8,1c-0.4,0.3-0.8,0.5-1.2,0.7c-0.5,0.2-1,0.3-1.5,0.4c-0.6,0.1-1.2,0.2-1.8,0.2V22h-1.9v-3h-1.5v3H8.4v-3.1
			H4.5l0.4-2.2h1.4c0.3,0,0.7-0.2,0.7-0.5c0,0,0-0.1,0-0.1v-4.8h0.2H7V7.8C6.9,7.3,6.4,6.9,5.9,7H4.5V5h2.6h1.2V2h1.9v3h1.5V2h1.9v3
			c0.6,0,1.2,0.1,1.7,0.3c0.5,0.1,1,0.3,1.4,0.5c0.4,0.2,0.8,0.5,1,0.9C18.1,7.2,18.3,7.7,18.3,8.2L18.3,8.2z M15.7,14.7
			c0-0.3-0.1-0.5-0.2-0.8c-0.1-0.2-0.3-0.4-0.5-0.5c-0.2-0.2-0.5-0.3-0.7-0.4c-0.3-0.1-0.5-0.2-0.8-0.2c-0.3-0.1-0.6-0.1-0.9-0.1
			c-0.4,0-0.7-0.1-0.9-0.1h-0.8h-0.6v4.1h1.1H12c0.3,0,0.5,0,0.7,0c0.2,0,0.4-0.1,0.7-0.1c0.2,0,0.5-0.1,0.7-0.2
			c0.2-0.1,0.4-0.2,0.6-0.2c0.4-0.2,0.6-0.5,0.8-0.8C15.6,15.1,15.6,14.9,15.7,14.7L15.7,14.7z M14.8,9c0-0.3,0-0.5-0.2-0.7
			c-0.1-0.2-0.2-0.4-0.4-0.5c-0.2-0.1-0.4-0.3-0.6-0.3c-0.2-0.1-0.5-0.2-0.7-0.2c-0.3,0-0.5-0.1-0.8-0.1c-0.3,0-0.5,0-0.7,0h-0.7
			h-0.5v3.7h1h0.6c0.2,0,0.5,0,0.7-0.1l0.6-0.1c0.2,0,0.4-0.1,0.6-0.2c0.2-0.1,0.3-0.2,0.5-0.3c0.1-0.1,0.3-0.3,0.3-0.5
			C14.8,9.4,14.8,9.2,14.8,9L14.8,9z"/>
	</g>
</g>
<rect y="0" class="st0" width="24" height="24"/>
</svg>
