<?xml version="1.0" encoding="utf-8"?>
<!-- Generator: Adobe Illustrator 20.1.0, SVG Export Plug-In . SVG Version: 6.00 Build 0)  -->
<svg version="1.1" id="Layer_1" xmlns="http://www.w3.org/2000/svg" xmlns:xlink="http://www.w3.org/1999/xlink" x="0px" y="0px"
	 viewBox="0 0 24 24" style="enable-background:new 0 0 24 24;" xml:space="preserve">
<title>home_accessories</title>
<g id="EUXICONS">
	<g id="home_accessories">
		<path id="Combined-Shape" d="M4,2h13.1v1.8H4V2z M10.5,20.6c-0.6,0-1.1-0.5-1.1-1.1c0-0.6,0.5-1.1,1.1-1.1c0.6,0,1.1,0.5,1.1,1.1
			C11.7,20.1,11.1,20.6,10.5,20.6C10.5,20.6,10.5,20.6,10.5,20.6 M14.2,17H6.7C5.8,17,5,17.7,5,18.6V22h10.8v-3.4
			C15.8,17.7,15.1,17,14.2,17 M18.2,11.2h-1.9l0.4-2.8h1.6V11.2z M17,5.2h-1.8l-1.1,8.6H6.9L6.1,7L5.8,5.2H4l1.3,10.4h10.4l0.4-2.9
			v0.3H20V6.6h-3.1L17,5.2z"/>
	</g>
</g>
</svg>
