<?xml version="1.0" encoding="utf-8"?>
<!-- Generator: Adobe Illustrator 20.1.0, SVG Export Plug-In . SVG Version: 6.00 Build 0)  -->
<svg version="1.1" id="Layer_1" xmlns="http://www.w3.org/2000/svg" xmlns:xlink="http://www.w3.org/1999/xlink" x="0px" y="0px"
	 viewBox="0 0 24 24" style="enable-background:new 0 0 24 24;" xml:space="preserve">
<style type="text/css">
	.st0{fill:none;}
</style>
<title>bluetooth_search</title>
<g id="EUXICONS">
	<g id="bluetooth_search">
		<path id="Shape" d="M14.2,12l2.3,2.3c0.3-0.7,0.4-1.5,0.4-2.3c0-0.8-0.1-1.6-0.4-2.3L14.2,12z M19.5,6.7L18.3,8c0.6,1.3,1,2.6,1,4
			c0,1.4-0.3,2.8-1,4l1.2,1.2C21.5,14,21.5,9.9,19.5,6.7L19.5,6.7z M15.7,7.7L10,2H9v7.6L4.4,5L3,6.4L8.6,12L3,17.6L4.4,19L9,14.4
			V22h1l5.7-5.7L11.4,12L15.7,7.7L15.7,7.7z M11,5.8l1.9,1.9L11,9.6C11,9.6,11,5.8,11,5.8z M12.9,16.3L11,18.2v-3.8L12.9,16.3z"/>
	</g>
</g>
<rect class="st0" width="24" height="24"/>
</svg>
