<?xml version="1.0" encoding="utf-8"?>
<!-- Generator: Adobe Illustrator 20.1.0, SVG Export Plug-In . SVG Version: 6.00 Build 0)  -->
<svg version="1.1" id="Layer_1" xmlns="http://www.w3.org/2000/svg" xmlns:xlink="http://www.w3.org/1999/xlink" x="0px" y="0px"
	 viewBox="0 0 24 24" style="enable-background:new 0 0 24 24;" xml:space="preserve">
<style type="text/css">
	.st0{fill:none;}
</style>
<title>bluetooth_connected</title>
<desc>Created with Sketch.</desc>
<g id="EUXICONS">
	<g id="bluetooth_connected">
		<path id="Shape" d="M7,12l-2-2l-2,2l2,2L7,12L7,12z M17.7,7.7L12,2h-1v7.6L6.4,5L5,6.4l5.6,5.6L5,17.6L6.4,19l4.6-4.6V22h1
			l5.7-5.7L13.4,12L17.7,7.7L17.7,7.7z M13,5.8l1.9,1.9L13,9.6V5.8L13,5.8z M14.9,16.3L13,18.2v-3.8L14.9,16.3L14.9,16.3z M19,10
			l-2,2l2,2l2-2L19,10L19,10z"/>
	</g>
</g>
<rect y="0" class="st0" width="24" height="24"/>
</svg>
