<?xml version="1.0" encoding="utf-8"?>
<!-- Generator: Adobe Illustrator 20.1.0, SVG Export Plug-In . SVG Version: 6.00 Build 0)  -->
<svg version="1.1" id="Layer_1" xmlns="http://www.w3.org/2000/svg" xmlns:xlink="http://www.w3.org/1999/xlink" x="0px" y="0px"
	 viewBox="0 0 24 24" style="enable-background:new 0 0 24 24;" xml:space="preserve">
<style type="text/css">
	.st0{fill:none;}
</style>
<title>bolt</title>
<g id="EUXICONS">
	<g id="electrical_2">
		<path id="Shape" d="M17.3,7.3c0.1,0.1,0.2,0.4,0.1,0.5l-6.6,13.9c-0.1,0.2-0.3,0.3-0.5,0.3h-0.2c-0.1,0-0.2-0.1-0.3-0.2
			c-0.1-0.1-0.1-0.2-0.1-0.4l2.4-9.7l-5,1.2H7c-0.1,0-0.3,0-0.4-0.1c-0.1-0.1-0.2-0.3-0.2-0.5L9,2.4c0-0.1,0.1-0.2,0.2-0.3
			C9.3,2,9.4,2,9.5,2h4c0.1,0,0.3,0,0.4,0.1c0.1,0.1,0.2,0.2,0.2,0.4c0,0.1,0,0.2-0.1,0.2l-2.1,5.6l4.9-1.2h0.1
			C17.1,7.1,17.2,7.2,17.3,7.3L17.3,7.3z"/>
	</g>
</g>
<rect class="st0" width="24" height="24"/>
</svg>
