<?xml version="1.0" encoding="utf-8"?>
<!-- Generator: Adobe Illustrator 20.1.0, SVG Export Plug-In . SVG Version: 6.00 Build 0)  -->
<svg version="1.1" id="Layer_1" xmlns="http://www.w3.org/2000/svg" xmlns:xlink="http://www.w3.org/1999/xlink" x="0px" y="0px"
	 viewBox="0 0 24 24" style="enable-background:new 0 0 24 24;" xml:space="preserve">
<style type="text/css">
	.st0{fill:none;}
</style>
<title>bopis</title>
<g id="EUXICONS">
	<g id="bopis_boss">
		<path id="Combined-Shape" d="M14.4,10.3h-2.2l4,1.7V8.8h-1.8V10.3z M11.7,10.3h-2V8.8H7.9V12l2.6-1.1L11.7,10.3z M12,8.1
			c1.7,0,3.1-1.4,3.1-3.1S13.7,2,12,2S8.9,3.4,8.9,5.1l0,0C8.9,6.7,10.3,8.1,12,8.1z M17,15.8c0.1-0.1,0.2-0.2,0.3-0.3v-1.8
			l-0.7-0.3l-4.7-2.1l-1,0.5l-4.3,1.8v1.8c0.1,0.1,0.3,0.2,0.4,0.3c0.4,0.4,0.7,0.9,0.9,1.5v-2.2l3.5,1.6v3.7l-3.4-1.5l0,0v0.1
			c0,0.1-0.1,0.3-0.1,0.4c0,0.1-0.1,0.2-0.1,0.3c0,0.1-0.1,0.2-0.1,0.2L7.8,20l1.9,0.9L12,22l2.2-1.1l1.9-0.9l0.4-0.2
			c0-0.1-0.1-0.1-0.1-0.2c-0.1-0.1-0.1-0.2-0.1-0.3c0-0.1-0.1-0.3-0.1-0.4v-0.1l0,0l-3.5,1.5v-3.7l3.5-1.6v2.5
			C16.2,16.9,16.6,16.3,17,15.8z M5.8,16.2l-0.1-0.1l-1.1-0.5c0,0.5,0,2.4,0,3.3c0,0.1,0,0.3,0,0.4c0.1,0.1,0.2,0.2,0.3,0.3
			C4.9,19.6,5,19.6,5,19.7l0.2,0.1l0.1,0h0.1h0.1h0.2h0.2c0.1,0,0.1,0,0.2-0.1l0.2-0.1c0.1,0,0.1-0.1,0.2-0.1l0.1-0.1
			c0.1-0.1,0.1-0.1,0.1-0.2c0-0.1,0.1-0.1,0.1-0.2c0-0.1,0.1-0.2,0.1-0.3v-0.1c0.1-0.8-0.1-1.5-0.7-2.1C6,16.4,5.9,16.3,5.8,16.2z
			 M19.5,15.6l-1.1,0.5l-0.1,0.1c-0.2,0.1-0.3,0.2-0.4,0.4c-0.5,0.6-0.8,1.3-0.7,2.1v0.1c0,0.1,0,0.2,0.1,0.3c0,0.1,0.1,0.1,0.1,0.2
			c0,0.1,0.1,0.1,0.1,0.2l0.1,0.1c0.1,0.1,0.1,0.1,0.2,0.1l0.2,0.1c0.1,0,0.1,0,0.2,0.1h0.2h0.2h0.1h0.1l0.1,0l0.2-0.1
			c0.1,0,0.2-0.1,0.2-0.1c0.1-0.1,0.2-0.2,0.3-0.3c0-0.1,0-0.3,0-0.4C19.5,18,19.5,16.1,19.5,15.6L19.5,15.6z"/>
	</g>
</g>
<rect y="0" class="st0" width="24" height="24"/>
</svg>
