<?xml version="1.0" encoding="utf-8"?>
<!-- Generator: Adobe Illustrator 20.1.0, SVG Export Plug-In . SVG Version: 6.00 Build 0)  -->
<svg version="1.1" id="Layer_1" xmlns="http://www.w3.org/2000/svg" xmlns:xlink="http://www.w3.org/1999/xlink" x="0px" y="0px"
	 viewBox="0 0 24 24" style="enable-background:new 0 0 24 24;" xml:space="preserve">
<style type="text/css">
	.st0{fill:none;}
</style>
<title>bug</title>
<path d="M21,7.6h-3.2c-0.5-0.9-1.2-1.6-2-2.2l1.8-1.8L16,2l-2.4,2.4c-0.5-0.1-1.1-0.2-1.6-0.2c-0.5,0-1.1,0.1-1.6,0.2L8,2L6.4,3.6
	l1.8,1.8c-0.8,0.6-1.5,1.3-2,2.2H3v2.2h2.4c-0.1,0.4-0.1,0.7-0.1,1.1V12H3v2.2h2.2v1.1c0,0.4,0,0.7,0.1,1.1H3v2.2h3.2
	c1.9,3.2,6,4.3,9.2,2.4c1-0.6,1.9-1.4,2.5-2.4H21v-2.2h-2.4c0.1-0.4,0.1-0.7,0.1-1.1v-1.1H21V12h-2.3v-1.1c0-0.4,0-0.7-0.1-1.1H21
	L21,7.6z M14.3,16.4H9.7v-2.2h4.5L14.3,16.4z M14.3,12H9.7V9.8h4.5L14.3,12z"/>
<rect class="st0" width="24" height="24"/>
</svg>
