<?xml version="1.0" encoding="utf-8"?>
<!-- Generator: Adobe Illustrator 20.1.0, SVG Export Plug-In . SVG Version: 6.00 Build 0)  -->
<svg version="1.1" id="Layer_1" xmlns="http://www.w3.org/2000/svg" xmlns:xlink="http://www.w3.org/1999/xlink" x="0px" y="0px"
	 viewBox="0 0 24 24" style="enable-background:new 0 0 24 24;" xml:space="preserve">
<style type="text/css">
	.st0{fill:none;}
</style>
<title>building_1</title>
<g id="EUXICONS">
	<g id="building_1">
		<path id="Shape" d="M15.2,11.5V5.2L12,2L8.8,5.2v2.1H2.5V22h19V11.5H15.2z M6.7,19.9H4.6v-2.1h2.1C6.7,17.8,6.7,19.9,6.7,19.9z
			 M6.7,15.7H4.6v-2.1h2.1V15.7L6.7,15.7z M6.7,11.5H4.6V9.4h2.1V11.5L6.7,11.5z M13.1,19.9h-2.1v-2.1h2.1
			C13.1,17.8,13.1,19.9,13.1,19.9z M13.1,15.7h-2.1v-2.1h2.1V15.7L13.1,15.7z M13.1,11.5h-2.1V9.4h2.1V11.5L13.1,11.5z M13.1,7.3
			h-2.1V5.2h2.1V7.3L13.1,7.3z M19.4,19.9h-2.1v-2.1h2.1C19.4,17.8,19.4,19.9,19.4,19.9z M19.4,15.7h-2.1v-2.1h2.1V15.7L19.4,15.7z"
			/>
	</g>
</g>
<rect x="0" class="st0" width="24" height="24"/>
</svg>
