<?xml version="1.0" encoding="utf-8"?>
<!-- Generator: Adobe Illustrator 20.1.0, SVG Export Plug-In . SVG Version: 6.00 Build 0)  -->
<svg version="1.1" id="Layer_1" xmlns="http://www.w3.org/2000/svg" xmlns:xlink="http://www.w3.org/1999/xlink" x="0px" y="0px"
	 viewBox="0 0 24 24" style="enable-background:new 0 0 24 24;" xml:space="preserve">
<style type="text/css">
	.st0{fill:none;}
</style>
<title>building_2</title>
<g id="EUXICONS">
	<g id="building_2">
		<path id="Shape" d="M12,7V3H2v18h20V7H12z M6,19H4v-2h2V19z M6,15H4v-2h2V15z M6,11H4V9h2C6,9,6,11,6,11z M6,7H4V5h2C6,5,6,7,6,7z
			 M10,19H8v-2h2C10,17,10,19,10,19z M10,15H8v-2h2C10,13,10,15,10,15z M10,11H8V9h2C10,9,10,11,10,11z M10,7H8V5h2C10,5,10,7,10,7z
			 M20,19h-8v-2h2v-2h-2v-2h2v-2h-2V9h8C20,9,20,19,20,19z M18,11h-2v2h2V11z M18,15h-2v2h2V15z"/>
	</g>
</g>
<rect x="0" class="st0" width="24" height="24"/>
</svg>
