<svg id="Layer_1" data-name="Layer 1" xmlns="http://www.w3.org/2000/svg" viewBox="0 0 24 24"><defs><style>.cls-1,.cls-2{fill:#231f20;}.cls-1{fill-rule:evenodd;}.cls-3{fill:none;}</style></defs><title>bulk_price</title><path class="cls-1" d="M9.47,10.4a2.62,2.62,0,0,0,1.89-.63A2.34,2.34,0,0,0,12,8V4.5H10.42V7.91a1.47,1.47,0,0,1-.22.91.85.85,0,0,1-.71.28.85.85,0,0,1-.69-.28,1.39,1.39,0,0,1-.23-.9V4.5H7V8a2.29,2.29,0,0,0,.65,1.75A2.59,2.59,0,0,0,9.47,10.4Z" transform="translate(0)"/><polygon class="cls-1" points="16.55 9.05 14.28 9.05 14.28 4.5 12.69 4.5 12.69 10.32 16.55 10.32 16.55 9.05"/><path class="cls-1" d="M5.93,9.87a1.48,1.48,0,0,0,.6-1.25,1.43,1.43,0,0,0-.25-.87,1.37,1.37,0,0,0-.79-.48v0a1.13,1.13,0,0,0,.67-.45,1.38,1.38,0,0,0,.25-.84,1.19,1.19,0,0,0-.58-1.1A3.52,3.52,0,0,0,4.05,4.5H2v5.82H4.29A2.66,2.66,0,0,0,5.93,9.87ZM3.59,5.69H4q.75,0,.75.49a.48.48,0,0,1-.19.41.87.87,0,0,1-.53.14H3.59Zm0,3.42V7.88h.53A.92.92,0,0,1,4.69,8a.53.53,0,0,1,.2.45q0,.62-.74.62Z" transform="translate(0)"/><path class="cls-1" d="M18.54,8.37,19,8.1l1.16,2.23H22L20.14,7.11,22,4.5H20.26L19,6.28a6.9,6.9,0,0,0-.49.74V4.5h-1.6v5.82h1.6Z" transform="translate(0)"/><path class="cls-1" d="M16.42,12.36a2.31,2.31,0,0,1,.68.1,5.47,5.47,0,0,1,.64.24l.47-1.17a4.22,4.22,0,0,0-1.78-.39,3,3,0,0,0-1.48.35,2.34,2.34,0,0,0-1,1,3.22,3.22,0,0,0-.34,1.5,2.9,2.9,0,0,0,.69,2.09,2.63,2.63,0,0,0,2,.72,4.12,4.12,0,0,0,1.62-.3V15.23q-.36.14-.72.24a2.68,2.68,0,0,1-.74.1q-1.26,0-1.26-1.59a2,2,0,0,1,.31-1.2A1,1,0,0,1,16.42,12.36Z" transform="translate(0)"/><rect class="cls-2" x="11.55" y="11.22" width="1.56" height="5.5"/><path class="cls-1" d="M8.14,14.72h.39l1.22,2h1.76l-1.67-2.4a1.62,1.62,0,0,0,1-1.48q0-1.63-2.34-1.63H6.59v5.5H8.14Zm0-2.37h.31q.8,0,.8.57t-.81.69H8.14Z" transform="translate(0)"/><path class="cls-1" d="M3.55,14.89H4a2.35,2.35,0,0,0,1.61-.5A1.8,1.8,0,0,0,6.16,13a1.59,1.59,0,0,0-.55-1.29A2.5,2.5,0,0,0,4,11.22H2v5.5H3.55Zm0-2.48h.4q.64,0,.64.56a.67.67,0,0,1-.21.52.79.79,0,0,1-.56.19H3.55Z" transform="translate(0)"/><polygon class="cls-1" points="18.59 16.72 22 16.72 22 15.51 20.14 15.51 20.14 14.47 21.86 14.47 21.86 13.28 20.14 13.28 20.14 12.41 22 12.41 22 11.22 18.59 11.22 18.59 16.72"/><rect class="cls-2" x="2" y="18.02" width="20" height="1.48"/><rect class="cls-3" width="24" height="24"/></svg>