<?xml version="1.0" encoding="utf-8"?>
<!-- Generator: Adobe Illustrator 20.1.0, SVG Export Plug-In . SVG Version: 6.00 Build 0)  -->
<svg version="1.1" id="Layer_1" xmlns="http://www.w3.org/2000/svg" xmlns:xlink="http://www.w3.org/1999/xlink" x="0px" y="0px"
	 viewBox="0 0 24 24" style="enable-background:new 0 0 24 24;" xml:space="preserve">
<style type="text/css">
	.st0{fill:none;}
</style>
<title>calculator</title>
<g id="EUXICONS">
	<g id="calculator">
		<path id="Shape" d="M18.9,2H4.5v20h15V2H18.9z M14.5,10.7h-1.7V9.1h1.7V10.7z M11.1,10.7H9.5V9.1h1.7L11.1,10.7L11.1,10.7z
			 M6.2,12.3h1.7v1.6H6.2V12.3z M9.5,12.3h1.7v1.6H9.5V12.3z M7.8,10.7H6.2V9.1h1.7V10.7z M6.2,15.6h1.7v1.6H6.2V15.6z M9.5,15.6
			h1.7v1.6H9.5V15.6z M14.4,17.2h-1.7v-1.6h1.7L14.4,17.2L14.4,17.2z M11.1,20.4H9.5v-1.6h1.7C11.1,18.8,11.1,20.4,11.1,20.4z
			 M12.8,18.8h1.7v1.6h-1.7L12.8,18.8L12.8,18.8z M14.4,13.9h-1.7v-1.6h1.7L14.4,13.9L14.4,13.9z M17.8,7.5H6.2V3.6h11.7V7.5z
			 M6.2,18.8h1.7v1.6H6.2V18.8z M16.1,12.3h1.7v8.1h-1.7V12.3z"/>
	</g>
</g>
<rect x="0" class="st0" width="24" height="24"/>
</svg>
