<?xml version="1.0" encoding="utf-8"?>
<!-- Generator: Adobe Illustrator 20.1.0, SVG Export Plug-In . SVG Version: 6.00 Build 0)  -->
<svg version="1.1" id="Layer_1" xmlns="http://www.w3.org/2000/svg" xmlns:xlink="http://www.w3.org/1999/xlink" x="0px" y="0px"
	 viewBox="0 0 24 24" style="enable-background:new 0 0 24 24;" xml:space="preserve">
<style type="text/css">
	.st0{fill:none;}
</style>
<title>camera</title>
<g id="EUXICONS">
	<g id="camera">
		<path id="Combined-Shape" d="M12,16.2c1.8,0,3.2-1.4,3.2-3.2S13.8,9.8,12,9.8S8.8,11.2,8.8,13S10.2,16.2,12,16.2L12,16.2z M9,3
			L7.2,5H4C2.9,5,2,5.9,2,7v12c0,1.1,0.9,2,2,2h16c1.1,0,2-0.9,2-2V7c0-1.1-0.9-2-2-2h-3.2L15,3H9z M12,18c-2.8,0-5-2.2-5-5
			s2.2-5,5-5s5,2.2,5,5S14.8,18,12,18z"/>
	</g>
</g>
<rect x="0" class="st0" width="24" height="24"/>
</svg>
