<?xml version="1.0" encoding="utf-8"?>
<!-- Generator: Adobe Illustrator 20.1.0, SVG Export Plug-In . SVG Version: 6.00 Build 0)  -->
<svg version="1.1" id="Layer_2" xmlns="http://www.w3.org/2000/svg" xmlns:xlink="http://www.w3.org/1999/xlink" x="0px" y="0px"
	 viewBox="0 0 24 24" style="enable-background:new 0 0 24 24;" xml:space="preserve">
<style type="text/css">
	.st0{fill:none;}
</style>
<title>camera_off</title>
<g>
	<path d="M2.9,2L2,2.9l2.8,2.8c-0.6,0.3-1,0.9-1,1.6v10.3c0,0.9,0.8,1.7,1.7,1.7h12.8l2.7,2.7l0.9-0.9L2.9,2z M12.4,16.8
		c-2.4,0-4.3-1.9-4.3-4.2c0-0.9,0.3-1.9,0.9-2.6l1.1,1.1c-0.8,1.3-0.3,3,1,3.8c0.9,0.5,1.9,0.5,2.8,0l1.1,1.1
		C14.3,16.4,13.4,16.7,12.4,16.8z"/>
	<path d="M12.4,8.2c2.4,0,4.3,1.9,4.3,4.3c0,0.5-0.1,1-0.2,1.4l4.4,4.4c0.1-0.2,0.1-0.5,0.1-0.7V7.3c0-0.9-0.8-1.7-1.7-1.7h-2.7
		L15,3.9H9.9L8.3,5.6H8.2L11,8.4C11.5,8.2,11.9,8.2,12.4,8.2z"/>
</g>
<rect x="0" class="st0" width="24" height="24"/>
</svg>
