<?xml version="1.0" encoding="utf-8"?>
<!-- Generator: Adobe Illustrator 20.1.0, SVG Export Plug-In . SVG Version: 6.00 Build 0)  -->
<svg version="1.1" id="Layer_1" xmlns="http://www.w3.org/2000/svg" xmlns:xlink="http://www.w3.org/1999/xlink" x="0px" y="0px"
	 viewBox="0 0 24 24" style="enable-background:new 0 0 24 24;" xml:space="preserve">
<style type="text/css">
	.st0{fill:none;}
</style>
<title>card_membership</title>
<g id="EUXICONS">
	<g id="card_membership">
		<path id="Shape" d="M20,2H4C2.9,2,2,2.9,2,4c0,0,0,0,0,0v11c0,1.1,0.9,2,2,2c0,0,0,0,0,0h4v5l4-2l4,2v-5h4c1.1,0,2-0.9,2-2
			c0,0,0,0,0,0V4C22,2.9,21.1,2,20,2C20,2,20,2,20,2z M20,15H4v-2h16C20,13,20,15,20,15z M20,10H4V4h16C20,4,20,10,20,10z"/>
	</g>
</g>
<rect x="0" class="st0" width="24" height="24"/>
</svg>
