<svg id="add_cart" xmlns="http://www.w3.org/2000/svg" viewBox="0 0 24 24"><defs><style>.cls-1{fill:none;}</style></defs><title>cart_reorder</title><rect class="cls-1" width="24" height="24"/><path d="M8.31,18.63a1.78,1.78,0,0,0-1.8,1.68A1.72,1.72,0,0,0,8.31,22a1.69,1.69,0,1,0,0-3.37Z"/><path d="M17.31,18.63a1.78,1.78,0,0,0-1.8,1.68A1.72,1.72,0,0,0,17.31,22a1.69,1.69,0,1,0,0-3.37Z"/><path d="M8.49,16V15.8l.81-1.33H16a1.65,1.65,0,0,0,1.53-.89L21,7.65l-1.53-.8-1,1.68-2.43,4.25H9.75l-.09-.27-2.16-4L6.69,6.86,5.88,5.17H3V6.86H4.8L8,13.32l-1.26,2a1.07,1.07,0,0,0-.27.8,1.72,1.72,0,0,0,1.8,1.68h10.8V16.16H8.67A.19.19,0,0,1,8.49,16Z"/><path d="M11.78,10.5V8.87A2.73,2.73,0,1,1,15.45,6.3,2.68,2.68,0,0,1,14.81,8L13.68,6.92v3.31H17l-1.11-1.1A4.19,4.19,0,0,0,17,6.3a4.37,4.37,0,1,0-5.26,4.21Z"/></svg>