<?xml version="1.0" encoding="utf-8"?>
<!-- Generator: Adobe Illustrator 20.1.0, SVG Export Plug-In . SVG Version: 6.00 Build 0)  -->
<svg version="1.1" id="Layer_1" xmlns="http://www.w3.org/2000/svg" xmlns:xlink="http://www.w3.org/1999/xlink" x="0px" y="0px"
	 viewBox="0 0 24 24" style="enable-background:new 0 0 24 24;" xml:space="preserve">
<style type="text/css">
	.st0{fill:none;}
</style>
<title>cart</title>
<g id="EUXICONS">
	<g id="cart">
		<path id="Shape" d="M8,18c-1.1,0-2,0.9-2,2c0,1.1,0.9,2,2,2s2-0.9,2-2C10,18.9,9.1,18,8,18L8,18z M2,2v2h2l3.6,7.6L6.2,14
			C6.1,14.3,6,14.7,6,15c0,1.1,0.9,2,2,2h12v-2H8.4c-0.1,0-0.2-0.1-0.2-0.2v-0.1L9.1,13h7.5c0.7,0,1.4-0.4,1.8-1l3.6-6.5
			C22,5.3,22,5.2,22,5c0-0.6-0.4-1-1-1l0,0H6.2L5.3,2H2z M18,18c-1.1,0-2,0.9-2,2c0,1.1,0.9,2,2,2c1.1,0,2-0.9,2-2
			C20,18.9,19.1,18,18,18C18,18,18,18,18,18z"/>
	</g>
</g>
<rect y="0" class="st0" width="24" height="24"/>
</svg>
