<?xml version="1.0" encoding="utf-8"?>
<!-- Generator: Adobe Illustrator 20.1.0, SVG Export Plug-In . SVG Version: 6.00 Build 0)  -->
<svg version="1.1" id="Layer_1" xmlns="http://www.w3.org/2000/svg" xmlns:xlink="http://www.w3.org/1999/xlink" x="0px" y="0px"
	 viewBox="0 0 24 24" style="enable-background:new 0 0 24 24;" xml:space="preserve">
<style type="text/css">
	.st0{fill:none;}
</style>
<title>money_dollar_stack</title>
<g id="EUXICONS">
	<g id="money_dollar_stack">
		<path id="dollars" d="M21,15.6V6.8H4.6v-1H22v9.9H21z M20.4,17.2h-1.1V8.3H3v-1h17.4L20.4,17.2L20.4,17.2z M18.9,18.2H2V8.9h16.9
			V18.2z M17.8,9.9H3v7.3h14.8L17.8,9.9L17.8,9.9z M16.2,16.4c0,0.1,0,0.2,0,0.3h-5.9c1.5,0,2.6-1.4,2.6-3.1s-1.2-3.1-2.6-3.1h5.9
			c-0.1,0.2-0.1,0.5,0.1,0.7c0.2,0.3,0.6,0.4,0.9,0.3v4.3c-0.2-0.1-0.5-0.1-0.7,0.1C16.4,15.9,16.2,16.2,16.2,16.4L16.2,16.4z
			 M15.2,12.5c-0.5-0.1-0.9,0-1.2,0.4c-0.3,0.4-0.3,0.9,0,1.2c0.3,0.4,0.8,0.5,1.2,0.4c0.4-0.1,0.7-0.6,0.8-1
			C16,13,15.7,12.5,15.2,12.5L15.2,12.5z M11.5,11.7C11.5,11.7,11.5,11.7,11.5,11.7c0,0.1,0,0.1,0,0.2c0,0,0,0.1,0,0.1
			c0,0.1,0,0.1,0,0.2c0,0,0,0.1,0,0.1c0,0,0,0,0,0.1c0,0,0,0-0.1,0c0,0-0.1,0-0.1,0l-0.2-0.1c-0.1,0-0.2-0.1-0.3-0.1
			c-0.1,0-0.2,0-0.3,0c-0.1,0-0.2,0-0.2,0c-0.1,0-0.1,0.1-0.2,0.1c0,0-0.1,0.1-0.1,0.1c0,0.1,0,0.1,0,0.2c0,0.1,0,0.2,0.1,0.2
			c0.1,0.1,0.1,0.1,0.2,0.2c0.1,0.1,0.2,0.1,0.3,0.1l0.3,0.1c0.1,0.1,0.2,0.1,0.3,0.2c0.1,0.1,0.2,0.1,0.3,0.2
			c0.1,0.1,0.2,0.2,0.2,0.3c0.1,0.1,0.1,0.3,0.1,0.4c0,0.2,0,0.4-0.1,0.6c-0.1,0.2-0.2,0.3-0.3,0.4c-0.1,0.1-0.3,0.2-0.5,0.2h-0.1
			v0.6h-0.5v-0.4l0,0c-0.1,0-0.3,0-0.4,0c-0.1,0-0.2-0.1-0.3-0.1c-0.1,0-0.2-0.1-0.2-0.1c0,0-0.1-0.1-0.1-0.1c0,0-0.1-0.1-0.1-0.1
			c0-0.1,0-0.2,0-0.2c0-0.1,0-0.1,0-0.2c0,0,0-0.1,0-0.1c0,0,0,0,0-0.1c0,0,0,0,0.1,0c0,0,0.1,0,0.1,0.1l0.2,0.1
			c0.1,0,0.2,0.1,0.3,0.1c0.1,0,0.3,0.1,0.4,0.1c0.1,0,0.2,0,0.3,0c0.1,0,0.1-0.1,0.2-0.1c0.1,0,0.1-0.1,0.1-0.2c0-0.1,0-0.1,0-0.2
			c0-0.1,0-0.2-0.1-0.2c-0.1-0.1-0.1-0.1-0.2-0.2C10.5,14,10.4,14,10.3,14L10,13.8c-0.1-0.1-0.2-0.1-0.3-0.2
			c-0.1-0.1-0.2-0.1-0.3-0.2c-0.1-0.1-0.2-0.2-0.2-0.3c-0.1-0.3-0.1-0.7,0-1c0.1-0.1,0.2-0.3,0.3-0.4c0.1-0.1,0.3-0.2,0.5-0.2
			c0.1,0,0.2,0,0.3-0.1v-0.5h0.5v0.5h0.1c0.1,0,0.2,0,0.3,0.1c0.1,0,0.2,0.1,0.2,0.1C11.4,11.5,11.4,11.6,11.5,11.7L11.5,11.7
			L11.5,11.7z M7.8,13.6c0,1.7,1.2,3.1,2.6,3.1H4.6c0.1-0.3,0-0.7-0.3-0.9c-0.2-0.1-0.5-0.2-0.7-0.1v-4.3c0.4,0.2,0.8,0,1-0.4
			c0-0.1,0.1-0.2,0.1-0.3c0-0.1,0-0.2,0-0.3h5.9C9,10.4,7.8,11.8,7.8,13.6L7.8,13.6z M5.7,12.5c-0.4-0.1-0.9,0-1.2,0.4
			c-0.3,0.4-0.3,0.9,0,1.2c0.3,0.4,0.8,0.5,1.2,0.4c0.4-0.1,0.7-0.6,0.8-1C6.5,13,6.2,12.5,5.7,12.5L5.7,12.5z"/>
	</g>
</g>
<rect y="0" class="st0" width="24" height="24"/>
</svg>
