<svg id="Layer_1" data-name="Layer 1" xmlns="http://www.w3.org/2000/svg" viewBox="0 0 24 24"><defs><style>.cls-1{fill:none;}</style></defs><title>check_list</title><rect x="7.06" y="2" width="7.9" height="3.05"/><rect x="7.06" y="7.66" width="7.9" height="2.03"/><path d="M15.73,11.3h-.06A5.35,5.35,0,1,0,21,16.67v0A5.31,5.31,0,0,0,15.73,11.3Zm0,9.15h-.05a3.8,3.8,0,1,1,3.79-3.81h0A3.77,3.77,0,0,1,15.72,20.45Z"/><path d="M9.86,19.82h-5v-15h1V2.6H3V22h8.78A6.63,6.63,0,0,1,9.86,19.82Z"/><path d="M17.21,10.23A6.5,6.5,0,0,1,19,11V2.6H16.15V4.79h1.06Z"/><polygon points="15 17.61 13.43 16.18 12.71 16.99 14.71 18.77 15.09 19.13 18.65 15.15 17.84 14.43 15 17.61"/><path d="M11.2,11.79H7.06v2H9.69A6.61,6.61,0,0,1,11.2,11.79Z"/><path d="M9,16.63a6.67,6.67,0,0,1,0-.71h-2v2H9.18A6.63,6.63,0,0,1,9,16.63Z"/><rect class="cls-1" width="24" height="24"/></svg>