<svg id="Layer_1" data-name="Layer 1" xmlns="http://www.w3.org/2000/svg" viewBox="0 0 24 24"><defs><style>.cls-1{fill:none;}</style></defs><title>claims_intake</title><rect class="cls-1" width="24" height="24"/><path d="M15.22,3.52H13.58a1.62,1.62,0,0,0-3.24,0H8.69V5.94h6.52ZM12,4.14a.58.58,0,1,1,.6-.58A.59.59,0,0,1,12,4.14Z"/><polygon points="11.27 10.72 11.27 13.1 8.79 13.1 8.79 14.51 11.27 14.51 11.27 16.89 12.73 16.89 12.73 14.51 15.21 14.51 15.21 13.1 12.73 13.1 12.73 10.72 11.27 10.72"/><path d="M18.61,8.54V4H16.24V5.74h.88V8.19L12,7,6.88,8.16V5.74h.79V4H5.39V8.5L4,8.82a15.92,15.92,0,0,0,1.39,6.79h0v3.81H8.06A11.52,11.52,0,0,0,12,22a11.65,11.65,0,0,0,3.93-2.58h2.68V15.61A15.79,15.79,0,0,0,20,8.86ZM12,20.44A11.33,11.33,0,0,1,5.66,10L12,8.55s3.38.8,6.34,1.48A11.32,11.32,0,0,1,12,20.44Z"/></svg>