<?xml version="1.0" encoding="utf-8"?>
<!-- Generator: Adobe Illustrator 20.1.0, SVG Export Plug-In . SVG Version: 6.00 Build 0)  -->
<svg version="1.1" id="Layer_1" xmlns="http://www.w3.org/2000/svg" xmlns:xlink="http://www.w3.org/1999/xlink" x="0px" y="0px"
	 viewBox="0 0 24 24" style="enable-background:new 0 0 24 24;" xml:space="preserve">
<style type="text/css">
	.st0{fill:none;}
</style>
<title>closed_caption</title>
<path d="M18.7,10.9V9.7c0-0.6-0.5-1.1-1-1.1c0,0,0,0-0.1,0h-3.3c-0.6,0-1.1,0.5-1.1,1.1c0,0,0,0,0,0v4.5c0,0.6,0.5,1.1,1.1,1.1
	c0,0,0,0,0,0h3.3c0.6,0,1.1-0.5,1.1-1.1c0,0,0,0,0-0.1v-1.2H17v0.6h-2.2v-3.4H17v0.6H18.7z M10.9,10.9V9.7c0-0.6-0.5-1.1-1.1-1.1
	c0,0,0,0,0,0H6.4c-0.6,0-1.1,0.5-1.1,1.1c0,0,0,0,0,0.1v4.5c0,0.6,0.5,1.1,1,1.1c0,0,0,0,0.1,0h3.3c0.6,0,1.1-0.5,1.1-1.1
	c0,0,0,0,0,0v-1.2H9.2v0.6H7v-3.4h2.2v0.6H10.9z M19.8,3C21,3,22,4,22,5.3v13.5c0,1.2-1,2.2-2.2,2.3H4.2C3,21,2,20,2,18.7V5.3
	C2,4,3,3,4.2,3H19.8z"/>
<rect y="0" class="st0" width="24" height="24"/>
</svg>
