<?xml version="1.0" encoding="utf-8"?>
<!-- Generator: Adobe Illustrator 20.1.0, SVG Export Plug-In . SVG Version: 6.00 Build 0)  -->
<svg version="1.1" id="Layer_1" xmlns="http://www.w3.org/2000/svg" xmlns:xlink="http://www.w3.org/1999/xlink" x="0px" y="0px"
	 viewBox="0 0 24 24" style="enable-background:new 0 0 24 24;" xml:space="preserve">
<style type="text/css">
	.st0{fill:none;}
</style>
<title>cloudy</title>
<g id="EUXICONS">
	<g id="cloudy">
		<path id="weather_cloudy_day_" d="M13.7,18c1.3,0,2.4-1,2.6-2.3c0.1-1.4-0.8-2.7-2.2-3.1c0,0,0.3-3.8-3.1-4.2
			c-1.7-0.2-3.2,0.9-3.7,2.5c-0.6-0.5-1.4-0.6-2-0.2c-0.6,0.4-1,1.1-0.9,1.9C3,12.9,2,14.1,2,15.5c0.1,2.5,2.5,2.4,2.5,2.4
			 M19.4,15.6c1.3,0,2.4-1,2.6-2.3c0.1-1.4-0.8-2.7-2.2-3.1c0,0,0.3-3.8-3.1-4.2c-2.9-0.3-3.8,2.5-3.8,2.5s1.7,1,1.7,3.7
			c1.1,0.3,2.2,1.3,2.2,3.4"/>
	</g>
</g>
<rect y="0" class="st0" width="24" height="24"/>
</svg>
