<?xml version="1.0" encoding="utf-8"?>
<!-- Generator: Adobe Illustrator 20.1.0, SVG Export Plug-In . SVG Version: 6.00 Build 0)  -->
<svg version="1.1" id="Layer_1" xmlns="http://www.w3.org/2000/svg" xmlns:xlink="http://www.w3.org/1999/xlink" x="0px" y="0px"
	 viewBox="0 0 24 24" style="enable-background:new 0 0 24 24;" xml:space="preserve">
<style type="text/css">
	.st0{fill:none;}
</style>
<title>cloud_done</title>
<g id="EUXICONS">
	<g id="cloud_done">
		<path id="Shape" d="M18.1,10.4c-0.7-3.3-4-5.4-7.4-4.8C8.9,6,7.3,7.1,6.4,8.8C3.7,9.1,1.7,11.5,2,14.2c0.3,2.4,2.4,4.3,4.9,4.3
			h10.9c2.3,0,4.2-1.8,4.2-4.1C22,12.3,20.3,10.6,18.1,10.4z M10.3,16.1l-2.9-2.8l1.2-1.1l1.8,1.7l4.3-4.2l1.2,1.1L10.3,16.1
			L10.3,16.1z"/>
	</g>
</g>
<rect x="0" class="st0" width="24" height="24"/>
</svg>
