<?xml version="1.0" encoding="utf-8"?>
<!-- Generator: Adobe Illustrator 20.1.0, SVG Export Plug-In . SVG Version: 6.00 Build 0)  -->
<svg version="1.1" id="Layer_1" xmlns="http://www.w3.org/2000/svg" xmlns:xlink="http://www.w3.org/1999/xlink" x="0px" y="0px"
	 viewBox="0 0 24 24" style="enable-background:new 0 0 24 24;" xml:space="preserve">
<style type="text/css">
	.st0{fill:none;}
</style>
<title>payment_credit_card</title>
<g id="EUXICONS">
	<g id="payment_credit_card">
		<path id="Combined-Shape" d="M20.3,4c0.4,0,0.9,0.2,1.2,0.5C21.8,4.8,22,5.2,22,5.7v12.7c0,0.4-0.2,0.9-0.5,1.2
			c-0.3,0.3-0.7,0.5-1.2,0.5H3.7c-0.4,0-0.9-0.2-1.2-0.5C2.2,19.2,2,18.8,2,18.3V5.7c0-0.4,0.2-0.9,0.5-1.2C2.8,4.2,3.2,4,3.7,4
			H20.3z M3.7,5.3c-0.1,0-0.2,0-0.2,0.1C3.4,5.5,3.3,5.6,3.3,5.7V8h17.3V5.7c0-0.1,0-0.2-0.1-0.2c-0.1-0.1-0.1-0.1-0.2-0.1H3.7z
			 M20.3,18.7c0.1,0,0.2,0,0.2-0.1c0.1-0.1,0.1-0.1,0.1-0.2V12H3.3v6.3c0,0.1,0,0.2,0.1,0.2c0.1,0.1,0.1,0.1,0.2,0.1
			C3.7,18.7,20.3,18.7,20.3,18.7z M4.7,17.3V16h2.7v1.3L4.7,17.3z M8.7,17.3V16h4v1.3L8.7,17.3z"/>
	</g>
</g>
<rect x="0" class="st0" width="24" height="24"/>
</svg>
