<?xml version="1.0" encoding="utf-8"?>
<!-- Generator: Adobe Illustrator 20.1.0, SVG Export Plug-In . SVG Version: 6.00 Build 0)  -->
<svg version="1.1" id="Layer_1" xmlns="http://www.w3.org/2000/svg" xmlns:xlink="http://www.w3.org/1999/xlink" x="0px" y="0px"
	 viewBox="0 0 24 24" style="enable-background:new 0 0 24 24;" xml:space="preserve">
<style type="text/css">
	.st0{fill:none;}
</style>
<title>date_range</title>
<g id="EUXICONS">
	<g id="date_range">
		<path id="Shape" d="M9,11H7v2h2C9,13,9,11,9,11z M13,11h-2v2h2V11z M17,11h-2v2h2C17,13,17,11,17,11z M19,4h-1V2h-2v2H8V2H6v2H5
			C3.9,4,3,4.9,3,6c0,0,0,0,0,0v14c0,1.1,0.9,2,2,2c0,0,0,0,0,0h14c1.1,0,2-0.9,2-2V6C21,4.9,20.1,4,19,4z M19,20H5V9h14
			C19,9,19,20,19,20z"/>
	</g>
</g>
<rect x="0" class="st0" width="24" height="24"/>
</svg>
