<?xml version="1.0" encoding="utf-8"?>
<!-- Generator: Adobe Illustrator 20.1.0, SVG Export Plug-In . SVG Version: 6.00 Build 0)  -->
<svg version="1.1" id="Layer_1" xmlns="http://www.w3.org/2000/svg" xmlns:xlink="http://www.w3.org/1999/xlink" x="0px" y="0px"
	 viewBox="0 0 24 24" style="enable-background:new 0 0 24 24;" xml:space="preserve">
<style type="text/css">
	.st0{fill:none;}
</style>
<title>date</title>
<g id="EUXICONS">
	<g id="date">
		<path id="Shape" d="M17,13h-5v5h5V13z M16,2v2H8V2H6v2H5C3.9,4,3,4.9,3,6c0,0,0,0,0,0v14c0,1.1,0.9,2,2,2c0,0,0,0,0,0h14
			c1.1,0,2-0.9,2-2V6c0-1.1-0.9-2-2-2h-1V2H16z M19,20H5V9h14C19,9,19,20,19,20z"/>
	</g>
</g>
<rect x="0" class="st0" width="24" height="24"/>
</svg>
