<?xml version="1.0" encoding="utf-8"?>
<!-- Generator: Adobe Illustrator 20.1.0, SVG Export Plug-In . SVG Version: 6.00 Build 0)  -->
<svg version="1.1" id="Layer_1" xmlns="http://www.w3.org/2000/svg" xmlns:xlink="http://www.w3.org/1999/xlink" x="0px" y="0px"
	 viewBox="0 0 24 24" style="enable-background:new 0 0 24 24;" xml:space="preserve">
<style type="text/css">
	.st0{fill:none;}
</style>
<title>design</title>
<rect class="st0" width="24" height="24"/>
<g>
	<path d="M4.9,7.3L5.1,6l8,8.2c0.3,0.3,0.8,0.3,1.2,0c0.3-0.3,0.3-0.8,0-1.2l0,0l-8-8l0,0h1.5l8.3,8.7c0.3,0.3,0.8,0.3,1.2,0
		c0.3-0.3,0.3-0.8,0-1.2l-8.8-9H5.6L3.7,5.3L3.2,8l9,9.3c0.2,0.2,0.6,0.3,1,0c0.4-0.3,0.3-0.8,0-1.2L4.9,7.3z"/>
	<path d="M18.4,14.3c-0.5,0.2-0.8,0.4-0.7,1l0.5,2l-1.4,1.3l-2-0.5c-0.4-0.1-0.9,0-1,0.4c-0.1,0.3,0,0.6,0.1,0.8
		c0.2,0.2,5.3,1.5,5.3,1.5c0.3,0,0.5,0,0.7-0.2c0.2-0.2,0.2-0.5,0.2-0.7l-1-5C19,14.4,18.9,14.2,18.4,14.3z"/>
	<path d="M14.2,7.2L14.2,7.2l1.2,1c0.2,0.2,0.5,0.2,0.7,0c0.3-0.3,0.2-0.7,0-0.8l-1.2-1.2l0.7-0.7l1.2,1.2c0.2,0.2,0.5,0.2,0.7,0
		c0.3-0.2,0.1-0.7,0-0.8l-1.2-1.2L16.9,4l2.9,3l-2.9,2.8c-0.3,0.3-0.4,0.9,0,1.2c0.3,0.2,0.8,0.2,1,0L22,7l-5.1-5L13,5.8
		c-0.3,0.3-0.3,0.8,0,1.2C13.4,7.5,13.9,7.5,14.2,7.2z"/>
	<path d="M9.8,16.8l-2.9,2.8L4.2,17l0.5-0.5l1.2,1.2c0.3,0.3,0.7,0.2,0.8,0c0.2-0.2,0.1-0.5,0-0.7l-1.2-1.2l0.7-0.7l1.2,1.2
		c0.4,0.3,0.6,0.2,0.8,0c0.2-0.2,0.3-0.5,0-0.7l-1.4-1.5l0,0c0.3-0.3,0.3-0.8,0-1.2s-0.8-0.3-1.2,0L2,17l5.1,5l3.9-3.8
		c0.2-0.2,0.2-0.3,0.2-0.5s0-0.3-0.2-0.5C10.6,16.7,10.1,16.6,9.8,16.8z"/>
</g>
</svg>
