<svg id="Layer_1" data-name="Layer 1" xmlns="http://www.w3.org/2000/svg" viewBox="0 0 24 24"><defs><style>.cls-1{fill:none;}</style></defs><title>development</title><g id="EUXICONS"><g id="desktop_windows" data-name="desktop windows"><path id="Shape" d="M20.15,3H3.75A1.79,1.79,0,0,0,2,4.78s0,0,0,0V15.6a1.79,1.79,0,0,0,1.78,1.8h6.42v1.8H8.35V21h7.3V19.2h-1.8V17.4h6.4A1.79,1.79,0,0,0,22,15.62s0,0,0,0V4.8A2,2,0,0,0,20.15,3Zm0,12.6H3.75V4.8h16.4Z"/></g></g><rect class="cls-1" width="24" height="24"/><path d="M10.58,12.53,8.07,10l2.51-2.51-.76-.76L6.55,10l3.27,3.27Zm2.83,0L15.93,10,13.42,7.51l.76-.76L17.45,10l-3.27,3.27Z"/></svg>