<?xml version="1.0" encoding="utf-8"?>
<!-- Generator: Adobe Illustrator 20.1.0, SVG Export Plug-In . SVG Version: 6.00 Build 0)  -->
<svg version="1.1" id="Layer_1" xmlns="http://www.w3.org/2000/svg" xmlns:xlink="http://www.w3.org/1999/xlink" x="0px" y="0px"
	 viewBox="0 0 24 24" style="enable-background:new 0 0 24 24;" xml:space="preserve">
<style type="text/css">
	.st0{fill:none;}
</style>
<title>devices_other</title>
<g id="EUXICONS">
	<g id="devices_other">
		<path id="Shape" d="M3.8,6.8h16.4V5H3.8C2.8,5,2,5.8,2,6.8v10.5c0,1,0.8,1.7,1.8,1.8h3.6v-1.8H3.8V6.8z M12.9,12H9.3v1.6
			c-1.1,0.9-1.2,2.6-0.2,3.7c0.1,0.1,0.2,0.2,0.2,0.2V19h3.6v-1.6c1.1-0.9,1.2-2.6,0.2-3.7c-0.1-0.1-0.2-0.2-0.2-0.2
			C12.9,13.6,12.9,12,12.9,12z M11.1,16.8c-0.8,0-1.4-0.6-1.4-1.3c0-0.7,0.6-1.3,1.4-1.3s1.4,0.6,1.4,1.3
			C12.5,16.2,11.8,16.8,11.1,16.8L11.1,16.8z M21.1,8.5h-5.5c-0.5,0-0.9,0.4-0.9,0.9v8.8c0,0.5,0.4,0.8,0.9,0.9h5.5
			c0.5,0,0.9-0.4,0.9-0.9V9.4C22,8.9,21.6,8.5,21.1,8.5z M20.2,17.2h-3.6v-7h3.6V17.2z"/>
	</g>
</g>
<rect y="0" class="st0" width="24" height="24"/>
</svg>
