<?xml version="1.0" encoding="utf-8"?>
<!-- Generator: Adobe Illustrator 20.1.0, SVG Export Plug-In . SVG Version: 6.00 Build 0)  -->
<svg version="1.1" id="Layer_1" xmlns="http://www.w3.org/2000/svg" xmlns:xlink="http://www.w3.org/1999/xlink" x="0px" y="0px"
	 viewBox="0 0 24 24" style="enable-background:new 0 0 24 24;" xml:space="preserve">
<style type="text/css">
	.st0{fill:none;}
</style>
<title>devices</title>
<g id="EUXICONS">
	<g id="devices">
		<path id="Shape" d="M5.3,7h15V5.3h-15C4.4,5.3,3.7,6.1,3.7,7v9.2H2v2.5h11.7v-2.5H5.3V7z M21.2,8.7h-5c-0.5,0-0.8,0.4-0.8,0.8v8.3
			c0,0.5,0.4,0.8,0.8,0.8h5c0.5,0,0.8-0.4,0.8-0.8V9.5C22,9,21.6,8.7,21.2,8.7L21.2,8.7z M20.3,16.2H17v-5.8h3.3V16.2L20.3,16.2z"/>
	</g>
</g>
<rect x="0" class="st0" width="24" height="24"/>
</svg>
