<?xml version="1.0" encoding="utf-8"?>
<!-- Generator: Adobe Illustrator 20.1.0, SVG Export Plug-In . SVG Version: 6.00 Build 0)  -->
<svg version="1.1" id="Layer_1" xmlns="http://www.w3.org/2000/svg" xmlns:xlink="http://www.w3.org/1999/xlink" x="0px" y="0px"
	 viewBox="0 0 24 24" style="enable-background:new 0 0 24 24;" xml:space="preserve">
<style type="text/css">
	.st0{fill:none;}
</style>
<title>payment_discover</title>
<g id="EUXICONS">
	<g id="payment_discover">
		<path id="Shape" d="M4.7,11c0,0.3-0.1,0.5-0.3,0.7c-0.2,0.2-0.5,0.2-0.8,0.2H3.5v-1.9h0.1c0.3,0,0.6,0.1,0.8,0.2
			C4.6,10.5,4.7,10.7,4.7,11z M20.1,10.4c0,0.3-0.2,0.4-0.6,0.4h-0.2V10h0.2C19.9,10,20.1,10.2,20.1,10.4L20.1,10.4z M5.3,11
			c0-0.4-0.1-0.8-0.4-1C4.6,9.7,4.2,9.6,3.8,9.6H2.9v2.8h0.8c0.4,0,0.7-0.1,1-0.3C5.1,11.8,5.3,11.4,5.3,11z M5.6,12.4h0.6V9.6H5.6
			V12.4z M8.3,11.5c0-0.2,0-0.4-0.2-0.5c-0.2-0.2-0.4-0.3-0.6-0.4c-0.1,0-0.2-0.1-0.3-0.2c-0.1,0-0.1-0.1-0.1-0.2
			c0-0.1,0-0.2,0.1-0.2C7.3,10,7.4,10,7.5,10c0.2,0,0.4,0.1,0.5,0.2l0.3-0.4C8,9.6,7.7,9.5,7.4,9.5C7.2,9.5,7,9.6,6.8,9.8
			c-0.2,0.1-0.3,0.4-0.3,0.6c0,0.2,0,0.3,0.2,0.5C6.9,11,7,11.1,7.3,11.1c0.1,0,0.3,0.1,0.4,0.2c0.1,0.1,0.2,0.2,0.2,0.3
			c0,0.1,0,0.2-0.1,0.3C7.6,11.9,7.5,12,7.4,12c-0.3,0-0.5-0.1-0.6-0.4l-0.4,0.3c0.2,0.3,0.6,0.5,1,0.5c0.3,0,0.5-0.1,0.7-0.3
			C8.2,12,8.3,11.8,8.3,11.5L8.3,11.5z M10.8,12.3v-0.7c-0.2,0.2-0.4,0.3-0.7,0.3c-0.3,0-0.5-0.1-0.7-0.3c-0.4-0.4-0.4-1,0-1.4
			c0.2-0.2,0.4-0.3,0.7-0.3c0.3,0,0.5,0.1,0.7,0.3V9.7c-0.2-0.1-0.5-0.2-0.7-0.2C9.7,9.5,9.3,9.7,9,9.9c-0.6,0.6-0.6,1.5,0,2.1
			c0,0,0,0,0,0c0.3,0.3,0.7,0.4,1.1,0.4C10.3,12.5,10.5,12.4,10.8,12.3z M21.4,17.4V13c-0.4,0.2-0.8,0.5-1.2,0.7
			c-0.5,0.2-1.1,0.6-2.1,1c-0.9,0.4-1.9,0.8-2.9,1.2c-1,0.4-2.2,0.7-3.6,1.1c-1.4,0.4-2.9,0.7-4.4,1h13.6
			C21.2,17.9,21.4,17.7,21.4,17.4L21.4,17.4z M14.1,11c0-0.8-0.7-1.5-1.6-1.5c-0.4,0-0.8,0.2-1.1,0.5c-0.6,0.6-0.6,1.6,0,2.2
			s1.6,0.6,2.2,0C13.9,11.8,14.1,11.4,14.1,11z M15.4,12.4l1.2-2.9H16l-0.8,1.9l-0.8-1.9h-0.6l1.2,2.9H15.4z M16.9,12.4h1.6v-0.5h-1
			v-0.7h1v-0.5h-1v-0.6h1V9.6h-1.6L16.9,12.4z M20.3,12.4H21L20,11.2c0.4,0,0.7-0.4,0.7-0.8c0-0.2-0.1-0.5-0.3-0.6
			c-0.2-0.2-0.5-0.2-0.8-0.2h-0.8v2.8h0.6v-1.1h0.1L20.3,12.4z M22,6.6v10.7c0,0.3-0.1,0.6-0.3,0.8c-0.2,0.2-0.5,0.3-0.8,0.3H3.1
			c-0.3,0-0.6-0.1-0.8-0.3C2.1,18,2,17.7,2,17.4V6.6C2,6.3,2.1,6,2.3,5.8c0.2-0.2,0.5-0.3,0.8-0.3h17.7c0.3,0,0.6,0.1,0.8,0.3
			C21.9,6,22,6.3,22,6.6z"/>
	</g>
</g>
<rect x="0" class="st0" width="24" height="24"/>
</svg>
