<?xml version="1.0" encoding="utf-8"?>
<!-- Generator: Adobe Illustrator 20.1.0, SVG Export Plug-In . SVG Version: 6.00 Build 0)  -->
<svg version="1.1" id="Layer_1" xmlns="http://www.w3.org/2000/svg" xmlns:xlink="http://www.w3.org/1999/xlink" x="0px" y="0px"
	 viewBox="0 0 24 24" style="enable-background:new 0 0 24 24;" xml:space="preserve">
<style type="text/css">
	.st0{fill:none;}
</style>
<title>dissatisfied</title>
<g id="EUXICONS">
	<g id="sentiment_dissatisfied">
		<path id="Combined-Shape" d="M15.5,11c0.8,0,1.5-0.7,1.5-1.5C17,8.7,16.3,8,15.5,8C14.7,8,14,8.7,14,9.5v0
			C14,10.3,14.7,11,15.5,11z M8.5,11c0.8,0,1.5-0.7,1.5-1.5C10,8.7,9.3,8,8.5,8C7.7,8,7,8.7,7,9.5C7,10.3,7.7,11,8.5,11z M12,2
			C6.5,2,2,6.5,2,12s4.5,10,10,10s10-4.5,10-10S17.5,2,12,2z M12,20c-4.4,0-8-3.6-8-8s3.6-8,8-8s8,3.6,8,8c0,0,0,0,0,0
			C20,16.4,16.4,20,12,20z M12,14c-2.3,0-4.3,1.4-5.1,3.5h1.7c1.1-1.9,3.5-2.5,5.4-1.4c0.6,0.3,1.1,0.8,1.4,1.4h1.7
			C16.3,15.4,14.3,14,12,14z"/>
	</g>
</g>
<rect class="st0" width="24" height="24"/>
</svg>
