<?xml version="1.0" encoding="utf-8"?>
<!-- Generator: Adobe Illustrator 20.1.0, SVG Export Plug-In . SVG Version: 6.00 Build 0)  -->
<svg version="1.1" id="Layer_1" xmlns="http://www.w3.org/2000/svg" xmlns:xlink="http://www.w3.org/1999/xlink" x="0px" y="0px"
	 viewBox="0 0 24 24" style="enable-background:new 0 0 24 24;" xml:space="preserve">
<style type="text/css">
	.st0{fill:none;}
</style>
<title>money_dollar_symbol</title>
<path d="M16.5,8.4h-4V7.7c0-0.5,0-1-0.1-1.5c-0.1-0.2-0.3-0.4-0.6-0.3c-0.2,0-0.4,0.1-0.5,0.3c-0.1,0.3-0.2,0.6-0.2,0.9
	c0,0.5,0.1,1,0.4,1.4c0.7,0.6,1.4,1.1,2.2,1.5c0.7,0.4,1.4,0.9,2.1,1.5c0.4,0.4,0.7,0.9,0.9,1.5c0.3,0.7,0.4,1.5,0.4,2.4
	c0.1,1.3-0.3,2.5-1,3.5c-0.8,0.9-1.9,1.5-3.1,1.6V22h-1.8v-1.6c-1-0.1-2-0.6-2.8-1.3c-0.8-0.8-1.2-2.1-1.2-4v-0.8h4v1
	c0,0.7,0,1.4,0.1,2.1c0.1,0.3,0.3,0.4,0.6,0.4c0.2,0,0.5-0.1,0.6-0.3c0.2-0.2,0.2-0.5,0.2-0.8c0-0.7,0-1.4-0.2-2
	c-0.3-0.6-0.7-1-1.3-1.3c-0.9-0.5-1.7-1.1-2.5-1.8c-0.5-0.4-0.9-1-1.1-1.6C7.2,9.2,7,8.4,7,7.6C7,6.5,7.3,5.5,8,4.7
	c0.8-0.8,1.9-1.3,3-1.3V2h1.8v1.3c1,0.1,2,0.5,2.8,1.3c0.6,0.8,1,1.9,0.9,2.9C16.6,7.8,16.6,8,16.5,8.4z"/>
<rect class="st0" width="24" height="24"/>
</svg>
