<?xml version="1.0" encoding="utf-8"?>
<!-- Generator: Adobe Illustrator 20.1.0, SVG Export Plug-In . SVG Version: 6.00 Build 0)  -->
<svg version="1.1" id="Layer_1" xmlns="http://www.w3.org/2000/svg" xmlns:xlink="http://www.w3.org/1999/xlink" x="0px" y="0px"
	 viewBox="0 0 24 24" style="enable-background:new 0 0 24 24;" xml:space="preserve">
<style type="text/css">
	.st0{fill:none;}
</style>
<title>drill</title>
<g id="EUXICONS">
	<g id="drill">
		<path id="Combined-Shape" d="M8.4,5h2.8c0.8,0,1.5,0.6,1.5,1.3c0,0,0,0.1,0,0.1c0,1.4,0,2.8,0,4.1c0,0.8-0.6,1.4-1.4,1.4
			c0,0,0,0-0.1,0c-1,0-2,0-3,0C8.1,12,8,12,8,12.2c-0.4,1.2-0.7,2.4-0.8,3.6c-0.1,0.5,0.1,1,0.5,1.3c0.4,0.3,0.5,0.8,0.3,1.2
			C7.7,18.8,7.3,19,6.8,19H4.3c-0.8,0.1-1.5-0.5-1.6-1.3c0-0.1,0-0.2,0-0.4c0.1-1.1,0.3-2.2,0.7-3.2c0.2-0.5,0.4-1.1,0.6-1.6
			c0.2-0.3,0.1-0.8-0.2-1c0,0-0.1,0-0.1-0.1C2.7,10.9,2,9.8,2,8.6c0-1.8,1.3-3.3,3.1-3.5C5.9,5,6.6,5,7.3,5H8.4z M13.4,10.6V6.4
			c0.2,0,0.4,0,0.6,0c0.1,0,0.1,0.1,0.2,0.1c0.4,0.4,0.8,0.8,1.2,1.2c0.1,0.1,0.2,0.1,0.3,0.1c0.4,0,0.8,0,1.2,0
			c0,0-0.1,0.1-0.1,0.1c-0.9,0.9-1.7,1.7-2.6,2.5c-0.1,0.1-0.2,0.1-0.2,0.1C13.8,10.6,13.6,10.6,13.4,10.6L13.4,10.6z M7.9,15.5
			l0.6-2.7h0.1c0.8-0.1,1.2,0.1,1.2,1.1c0,0.3,0,0.7,0,1c0,0.4-0.3,0.7-0.6,0.7C8.7,15.5,8.3,15.5,7.9,15.5L7.9,15.5z M17,9.2
			l1.4-1.3c0,0,0.1,0,0.1,0h1.3l0,0.1C19.7,8,19.6,8,19.5,8.1l-1,1c-0.1,0.1-0.1,0.1-0.2,0.1C17.9,9.2,17.5,9.2,17,9.2L17,9.2z
			 M21.3,7.9L22,8.6l-0.6,0.6c0,0-0.1,0-0.1,0.1H20L21.3,7.9L21.3,7.9z"/>
	</g>
</g>
<rect x="0" class="st0" width="24" height="24"/>
</svg>
