<?xml version="1.0" encoding="utf-8"?>
<!-- Generator: Adobe Illustrator 20.1.0, SVG Export Plug-In . SVG Version: 6.00 Build 0)  -->
<svg version="1.1" id="Layer_1" xmlns="http://www.w3.org/2000/svg" xmlns:xlink="http://www.w3.org/1999/xlink" x="0px" y="0px"
	 viewBox="0 0 24 24" style="enable-background:new 0 0 24 24;" xml:space="preserve">
<style type="text/css">
	.st0{fill:none;}
</style>
<title>Error_Outline</title>
<desc>Created with Sketch.</desc>
<g id="Icons">
	<g id="Redlines" transform="translate(-229.000000, -616.000000)">
	</g>
	<g id="Icons_x2F_Alerts_x2F_Error-Outline" transform="translate(-210.000000, -210.000000)">
		<g transform="translate(210.000000, 210.000000)">
			<g id="Combined-Shape">
				<path d="M12,2C6.5,2,2,6.5,2,12s4.5,10,10,10s10-4.5,10-10S17.5,2,12,2L12,2z M12,20c-4.4,0-8-3.6-8-8s3.6-8,8-8s8,3.6,8,8
					S16.4,20,12,20L12,20z M13,15h-2v2h2V15L13,15z M13,7h-2v6h2V7L13,7z"/>
			</g>
		</g>
	</g>
</g>
<rect class="st0" width="24" height="24"/>
</svg>
