<?xml version="1.0" encoding="utf-8"?>
<!-- Generator: Adobe Illustrator 20.1.0, SVG Export Plug-In . SVG Version: 6.00 Build 0)  -->
<svg version="1.1" id="Layer_1" xmlns="http://www.w3.org/2000/svg" xmlns:xlink="http://www.w3.org/1999/xlink" x="0px" y="0px"
	 viewBox="0 0 24 24" style="enable-background:new 0 0 24 24;" xml:space="preserve">
<style type="text/css">
	.st0{fill:none;}
</style>
<title>logo_eux</title>
<rect class="st0" width="24" height="24"/>
<g>
	<g>
		<path d="M17.5,17.6c0,0-0.2-0.3-0.5-0.7s-0.5-0.7-0.6-0.9c-0.5,0.7-0.9,1.3-1.1,1.8l-0.5,0.8h3.4L17.5,17.6L17.5,17.6z"/>
		<path d="M6.4,16.2c0.3,0.2,0.6,0.3,1,0.3c0.3,0,0.7-0.1,0.9-0.3C8.7,16,8.9,15.7,9,15.4c0.2-0.5,0.2-1,0.2-1.5V9.5H5.6v4.3
			c0,0.5,0.1,1.1,0.2,1.6C5.9,15.7,6.1,16.1,6.4,16.2L6.4,16.2z"/>
		<path d="M14.9,13.9l-3.1-4.4h-0.1v5c0,0.7-0.1,1.4-0.4,2.1c-0.2,0.5-0.6,1-1,1.4c-0.3,0.2-0.5,0.4-0.8,0.5h2.2L14.9,13.9
			L14.9,13.9z"/>
		<polygon points="21,9.5 18,13.9 21.3,18.5 22,18.5 22,9.5 		"/>
		<path d="M3.8,17.1c-0.5-0.8-0.7-1.7-0.6-2.6v-5H2v9h3.4C4.7,18.2,4.2,17.7,3.8,17.1L3.8,17.1z"/>
		<path d="M14.8,9.5l0.4,0.6c0.3,0.5,0.7,1,1.1,1.7c0.4-0.7,0.8-1.3,1-1.6l0.5-0.7H14.8z"/>
	</g>
	<g>
		<path d="M3.8,6.1H2.6v0.7h1.2v0.4H2.6v1h1.2v0.4H2.1v-3h1.7V6.1z"/>
		<path d="M4.4,8.7V5.5l2.2,2.3V5.7H7v3.2L4.8,6.6v2.1H4.4z"/>
		<path d="M8.6,6.1v2.6H8.1V6.1H7.4V5.7h1.8v0.4H8.6z"/>
		<path d="M11.3,6.1h-1.2v0.7h1.2v0.4h-1.2v1h1.2v0.4H9.7v-3h1.7L11.3,6.1L11.3,6.1z"/>
		<path d="M12.4,7.5v1.2h-0.5v-3h0.5c0.3,0,0.4,0,0.6,0.1c0.1,0,0.2,0.1,0.3,0.2c0.2,0.2,0.3,0.4,0.3,0.6c0,0.3-0.1,0.5-0.3,0.7
			s-0.4,0.2-0.7,0.2C12.6,7.5,12.4,7.5,12.4,7.5z M12.4,7.1h0.2c0.4,0,0.6-0.2,0.6-0.5S13,6.1,12.6,6.1h-0.2V7.1z"/>
		<path d="M15.1,7.4L16,8.7h-0.6l-0.9-1.2h-0.1v1.2h-0.5v-3h0.5c0.4,0,0.7,0.1,0.9,0.2c0.2,0.2,0.3,0.4,0.3,0.7
			c0,0.2-0.1,0.4-0.2,0.6S15.3,7.4,15.1,7.4z M14.6,7.1h0.1c0.4,0,0.6-0.2,0.6-0.5s-0.2-0.5-0.6-0.5h-0.2L14.6,7.1L14.6,7.1z"/>
		<path d="M17,5.7v3h-0.5v-3H17z"/>
		<path d="M19.4,6.1L19,6.4c-0.1-0.1-0.1-0.2-0.2-0.2s-0.1-0.1-0.3-0.1c-0.1,0-0.2,0-0.3,0.1c-0.1,0.1-0.1,0.2-0.1,0.3
			c0,0.1,0.1,0.3,0.3,0.4L18.7,7c0.3,0,0.5,0.1,0.6,0.3s0.2,0.3,0.2,0.5c0,0.3-0.1,0.5-0.3,0.7c-0.2,0.2-0.4,0.3-0.7,0.3
			c-0.3,0-0.5-0.1-0.6-0.2c-0.2-0.2-0.3-0.4-0.3-0.7L18,7.8c0,0.2,0.1,0.3,0.1,0.4c0.1,0.1,0.2,0.2,0.4,0.2c0.1,0,0.3,0,0.4-0.1
			S19,8,19,7.8c0-0.1,0-0.1,0-0.2s0-0.1-0.1-0.1s-0.1-0.1-0.1-0.1s-0.1-0.1-0.2-0.1l-0.3-0.1c-0.4-0.2-0.6-0.4-0.6-0.8
			c0-0.2,0.1-0.4,0.3-0.6c0.2-0.2,0.4-0.2,0.6-0.2C18.9,5.6,19.2,5.8,19.4,6.1z"/>
		<path d="M21.7,6.1h-1.2v0.7h1.2v0.4h-1.2v1h1.2v0.4H20v-3h1.7V6.1z"/>
	</g>
</g>
</svg>
