<?xml version="1.0" encoding="utf-8"?>
<!-- Generator: Adobe Illustrator 20.1.0, SVG Export Plug-In . SVG Version: 6.00 Build 0)  -->
<svg version="1.1" id="Layer_1" xmlns="http://www.w3.org/2000/svg" xmlns:xlink="http://www.w3.org/1999/xlink" x="0px" y="0px"
	 viewBox="0 0 24 24" style="enable-background:new 0 0 24 24;" xml:space="preserve">
<style type="text/css">
	.st0{fill:none;}
</style>
<title>ev_station</title>
<g id="EUXICONS">
	<g id="ev_station">
		<path id="Shape" d="M20.2,6.7L20.2,6.7l-4-4.1L15,3.7l2.3,2.3c-1.4,0.5-2.1,2.1-1.6,3.6c0.4,1.1,1.4,1.8,2.5,1.8
			c0.4,0,0.7-0.1,1.1-0.2v8c0,0.6-0.5,1.1-1.1,1.1c-0.6,0-1.1-0.5-1.1-1.1c0,0,0,0,0,0v-5c0-1.2-1-2.2-2.2-2.2h-1.1V4.2
			c0-1.2-1-2.2-2.2-2.2H5.2C4,2,3,3,3,4.2V22h10.9v-8.3h1.6v5.6c0,1.5,1.2,2.8,2.7,2.8s2.7-1.2,2.7-2.8V8.7
			C21,7.9,20.7,7.2,20.2,6.7z M18.2,9.8c-0.6,0-1.1-0.5-1.1-1.1s0.5-1.1,1.1-1.1c0.6,0,1.1,0.5,1.1,1.1C19.3,9.3,18.8,9.8,18.2,9.8
			L18.2,9.8z M7.4,18.7v-5H5.2l4.4-8.3v5.6h2.2L7.4,18.7z"/>
	</g>
</g>
<rect x="0" class="st0" width="24" height="24"/>
</svg>
