<?xml version="1.0" encoding="utf-8"?>
<!-- Generator: Adobe Illustrator 20.1.0, SVG Export Plug-In . SVG Version: 6.00 Build 0)  -->
<svg version="1.1" id="Layer_1" xmlns="http://www.w3.org/2000/svg" xmlns:xlink="http://www.w3.org/1999/xlink" x="0px" y="0px"
	 viewBox="0 0 24 24" style="enable-background:new 0 0 24 24;" xml:space="preserve">
<style type="text/css">
	.st0{fill:none;}
</style>
<title>exit_to_app</title>
<path d="M9.9,16l1.6,1.6L17,12l-5.6-5.6L9.9,8l2.9,2.9H2v2.2h10.7L9.9,16z M19.8,2H4.2C3,2,2,3,2,4.2c0,0,0,0,0,0v4.4h2.2V4.2h15.5
	v15.5H4.2v-4.4H2v4.4C2,21,3,22,4.2,22c0,0,0,0,0,0h15.5c1.2,0,2.2-1,2.2-2.2V4.2C22,3,21,2,19.8,2z"/>
<rect x="0" class="st0" width="24" height="24"/>
</svg>
