<?xml version="1.0" encoding="utf-8"?>
<!-- Generator: Adobe Illustrator 20.1.0, SVG Export Plug-In . SVG Version: 6.00 Build 0)  -->
<svg version="1.1" id="Layer_1" xmlns="http://www.w3.org/2000/svg" xmlns:xlink="http://www.w3.org/1999/xlink" x="0px" y="0px"
	 viewBox="0 0 24 24" style="enable-background:new 0 0 24 24;" xml:space="preserve">
<style type="text/css">
	.st0{fill:none;}
</style>
<title>extension</title>
<path d="M19.6,11.5h-1.4V7.7c0-1-0.8-1.9-1.9-1.9h-3.8V4.4c0-1.3-1.1-2.4-2.4-2.4C8.8,2,7.7,3.1,7.7,4.4c0,0,0,0,0,0v1.4H3.9
	C2.8,5.8,2,6.6,2,7.7l0,0v3.6h1.4c1.4,0,2.6,1.2,2.6,2.6s-1.2,2.6-2.6,2.6H2v3.7c0,1,0.8,1.9,1.9,1.9h3.7v-1.4
	c0-1.4,1.2-2.6,2.6-2.6s2.6,1.2,2.6,2.6V22h3.6c1,0,1.9-0.8,1.9-1.9v-3.8h1.4c1.3,0,2.4-1.1,2.4-2.4S20.9,11.5,19.6,11.5
	C19.6,11.5,19.6,11.5,19.6,11.5L19.6,11.5z"/>
<rect class="st0" width="24" height="24"/>
</svg>
