<?xml version="1.0" encoding="utf-8"?>
<!-- Generator: Adobe Illustrator 20.1.0, SVG Export Plug-In . SVG Version: 6.00 Build 0)  -->
<svg version="1.1" id="Layer_1" xmlns="http://www.w3.org/2000/svg" xmlns:xlink="http://www.w3.org/1999/xlink" x="0px" y="0px"
	 viewBox="0 0 24 24" style="enable-background:new 0 0 24 24;" xml:space="preserve">
<style type="text/css">
	.st0{fill:none;}
</style>
<title>facet</title>
<g id="EUXICONS">
	<g id="facet_selector">
		<path id="Combined-Shape" d="M18.2,11.8V7.3c0-3-2.4-5.3-5.4-5.3S7.5,4.4,7.5,7.3h2.8c0-1.4,1.2-2.6,2.6-2.6
			c1.4,0,2.6,1.2,2.6,2.6v4.5h-3.6c0,0.2,0,0.3-0.1,0.5c-0.1,0.7-0.5,1.3-1.1,1.8H22v-2.3H18.2z M5.9,12.3c0-0.2-0.1-0.3-0.1-0.5H2
			v2.3h4.9C6.4,13.7,6,13,5.9,12.3z M11.8,18.7c-0.3,1.6-1.8,2.7-3.5,2.5c-1.3-0.2-2.3-1.2-2.5-2.5c-0.1-0.8,0-1.6,0.4-2.3H4.7V22
			h14.7v-5.6h-7.9C11.8,17.1,12,17.9,11.8,18.7L11.8,18.7z M8.9,13c0.6,0,1.1-0.4,1.2-1c0.2-0.9-0.7-2-1.2-2.9
			c-0.4,0.8-1.4,2-1.2,2.9C7.8,12.6,8.3,13,8.9,13z M7.7,18.3c0.1,0.6,0.7,1.1,1.3,1c0.5-0.1,0.9-0.5,1-1c0.2-0.9-0.7-2-1.2-2.9
			C8.4,16.3,7.5,17.5,7.7,18.3z"/>
	</g>
</g>
<rect x="0" class="st0" width="24" height="24"/>
</svg>
