<?xml version="1.0" encoding="utf-8"?>
<!-- Generator: Adobe Illustrator 20.1.0, SVG Export Plug-In . SVG Version: 6.00 Build 0)  -->
<svg version="1.1" id="Layer_1" xmlns="http://www.w3.org/2000/svg" xmlns:xlink="http://www.w3.org/1999/xlink" x="0px" y="0px"
	 viewBox="0 0 24 24" style="enable-background:new 0 0 24 24;" xml:space="preserve">
<style type="text/css">
	.st0{fill:none;}
</style>
<title>finger_print</title>
<g id="EUXICONS">
	<g id="fingerprint">
		<path id="Shape" d="M17.8,4.5c-0.1,0-0.2,0-0.2-0.1C15.9,3.5,14,3,12,3c-1.9,0-3.9,0.5-5.6,1.4c-0.2,0.1-0.5,0-0.7-0.2
			s0-0.5,0.2-0.7c3.8-2,8.3-2,12.1,0c0.2,0.1,0.3,0.4,0.2,0.7c0,0,0,0,0,0C18.2,4.4,18,4.5,17.8,4.5L17.8,4.5z M3.5,9.7
			c-0.1,0-0.2,0-0.3-0.1C3,9.5,2.9,9.2,3.1,8.9c0,0,0,0,0,0c1-1.4,2.3-2.5,3.8-3.3c3.2-1.6,7.1-1.6,10.3,0c1.5,0.8,2.8,1.9,3.8,3.2
			c0.2,0.2,0.1,0.5-0.1,0.7c-0.2,0.2-0.5,0.1-0.7-0.1l0,0c-0.9-1.2-2-2.2-3.4-2.9c-3-1.5-6.4-1.5-9.4,0C6,7.3,4.8,8.3,3.9,9.5
			C3.8,9.6,3.7,9.7,3.5,9.7L3.5,9.7z M9.8,21.8c-0.1,0-0.3-0.1-0.4-0.1c-0.8-0.8-1.5-1.7-2-2.7c-0.7-1.3-1.1-2.8-1.1-4.3
			c0.1-3,2.6-5.4,5.7-5.4c3-0.1,5.6,2.3,5.7,5.4c0,0.3-0.2,0.5-0.5,0.5c-0.3,0-0.5-0.2-0.5-0.5c-0.1-2.5-2.2-4.4-4.7-4.4
			c-2.5-0.1-4.6,1.9-4.7,4.4c0,1.3,0.3,2.7,0.9,3.8c0.5,0.9,1.1,1.7,1.9,2.4c0.2,0.2,0.2,0.5,0,0.7C10,21.7,9.9,21.7,9.8,21.8
			L9.8,21.8z M16.9,19.9c-1.1,0-2.2-0.3-3.1-0.9c-1.5-1-2.4-2.6-2.4-4.4c0-0.3,0.2-0.5,0.5-0.5c0.3,0,0.5,0.2,0.5,0.5
			c0,1.4,0.7,2.8,1.9,3.6c0.8,0.5,1.6,0.7,2.5,0.7c0.3,0,0.7,0,1-0.1c0.3,0,0.5,0.1,0.6,0.4c0,0.3-0.1,0.5-0.4,0.6l0,0
			C17.7,19.9,17.3,19.9,16.9,19.9L16.9,19.9z M14.9,22h-0.1c-1.4-0.3-2.7-1.1-3.8-2.1c-1.4-1.4-2.2-3.3-2.2-5.2c0-1.7,1.4-3,3.1-2.9
			c1.7,0,3,1.3,3.1,2.9c0.1,1.1,1.1,2,2.2,1.9c1-0.1,1.8-0.9,1.9-1.9c0-3.7-3.3-6.8-7.3-6.8c-2.8,0-5.3,1.5-6.6,4
			c-0.4,0.9-0.6,1.8-0.6,2.8c0,1.2,0.2,2.4,0.7,3.6c0.1,0.3,0,0.5-0.3,0.6c-0.3,0.1-0.5,0-0.6-0.3c-0.5-1.3-0.7-2.6-0.7-4
			c0-1.1,0.2-2.2,0.7-3.2C5.9,8.5,8.8,6.7,12,6.8c4.6,0,8.3,3.5,8.3,7.8c0,1.7-1.4,3.1-3.1,3.1s-3.1-1.4-3.1-3.1l0,0
			c0-1.1-1-2-2.1-1.9c-1.1,0-2.1,0.8-2.1,1.9c0,0,0,0,0,0c0,1.7,0.7,3.3,1.9,4.5c0.9,0.9,2,1.6,3.3,1.9c0.3,0.1,0.4,0.3,0.4,0.6
			c0,0,0,0,0,0C15.3,21.8,15.1,22,14.9,22L14.9,22z"/>
	</g>
</g>
<rect x="0" class="st0" width="24" height="24"/>
</svg>
