<?xml version="1.0" encoding="utf-8"?>
<!-- Generator: Adobe Illustrator 20.1.0, SVG Export Plug-In . SVG Version: 6.00 Build 0)  -->
<svg version="1.1" id="Layer_1" xmlns="http://www.w3.org/2000/svg" xmlns:xlink="http://www.w3.org/1999/xlink" x="0px" y="0px"
	 viewBox="0 0 24 24" style="enable-background:new 0 0 24 24;" xml:space="preserve">
<style type="text/css">
	.st0{fill:none;}
</style>
<title>free_shipping</title>
<g id="EUXICONS">
	<g id="free_shipping">
		<path id="Combined-Shape" d="M12,2L2,6.5v10.5L12,22l10-4.9V6.5L12,2z M12,3.9L14.4,5L7.2,8.2L4.9,7.1L12,3.9z M11.1,19.6L3.8,16
			V8.5l7.3,3.6L11.1,19.6L11.1,19.6z M12,10.6L9.3,9.3L16.5,6L19,7.1L12,10.6L12,10.6z M20.2,15.9l-7.4,3.7v-7.4l7.4-3.6L20.2,15.9z
			 M9.2,13.1l-4-2v3.6l4,2V13.1z"/>
	</g>
</g>
<rect x="0" class="st0" width="24" height="24"/>
</svg>
