<?xml version="1.0" encoding="utf-8"?>
<!-- Generator: Adobe Illustrator 20.1.0, SVG Export Plug-In . SVG Version: 6.00 Build 0)  -->
<svg version="1.1" id="Layer_1" xmlns="http://www.w3.org/2000/svg" xmlns:xlink="http://www.w3.org/1999/xlink" x="0px" y="0px"
	 viewBox="0 0 24 24" style="enable-background:new 0 0 24 24;" xml:space="preserve">
<style type="text/css">
	.st0{fill:none;}
</style>
<title>fuel_rewards</title>
<path d="M20.2,6.8L20.2,6.8l-4-4.1L15,3.9l2.3,2.2c-1,0.4-1.7,1.4-1.7,2.6c0,1.5,1.2,2.8,2.7,2.8c0,0,0,0,0,0c0.4,0,0.7-0.1,1.1-0.2
	v8c0,0.6-0.5,1.1-1.1,1.1l0,0c-0.6,0-1.1-0.4-1.1-1c0,0,0-0.1,0-0.1v-5c0-1.2-1-2.2-2.2-2.2h-1.1V4.2c0-1.2-1-2.2-2.2-2.2H5.2
	C4,2,3,3,3,4.2V22h10.9v-8.4h1.6v5.6c0,1.5,1.2,2.8,2.7,2.8c1.5,0,2.7-1.3,2.7-2.8V8.6C21,7.9,20.7,7.3,20.2,6.8z M11.1,16
	c-0.5,0.5-1.1,0.8-1.8,0.9v0.9H8.1v-1C7.5,16.7,7,16.4,6.5,16c-0.5-0.6-0.8-1.5-0.8-2.3v-0.4h2.4V14c-0.1,0.4,0,0.8,0.1,1.2
	c0,0.1,0.2,0.2,0.3,0.2s0.3-0.1,0.3-0.2C9,15.1,9,15,9,14.8c0-0.4,0-0.8-0.1-1.2c-0.1-0.3-0.3-0.4-0.8-0.8c-0.8-0.4-1.2-0.8-1.5-1
	c-0.3-0.2-0.5-0.6-0.7-0.9C5.7,10.4,5.6,10,5.6,9.5c0-0.7,0.2-1.3,0.7-1.8C6.8,7.2,7.4,7,8.1,6.9V6.1h1.1v0.8c0.6,0,1.2,0.3,1.6,0.8
	c0.4,0.5,0.6,1.1,0.6,1.7v0.5H9V9.5c0-0.3,0-0.6-0.1-0.9c0-0.1-0.1-0.2-0.3-0.2c-0.1,0-0.2,0.1-0.3,0.2C8.1,8.8,8.1,9,8.1,9.2
	c0,0.3,0.1,0.5,0.2,0.8c0.4,0.3,0.8,0.6,1.3,0.9c0.5,0.2,0.9,0.5,1.2,0.9c0.3,0.2,0.4,0.6,0.5,0.9c0.1,0.4,0.2,0.9,0.2,1.3
	C11.7,14.7,11.5,15.4,11.1,16L11.1,16z M18.3,9.8c-0.6,0-1.1-0.5-1.1-1.1v0c0-0.6,0.5-1.1,1.1-1.1c0.6,0,1.1,0.5,1.1,1.1
	c0,0,0,0,0,0C19.4,9.3,18.9,9.8,18.3,9.8C18.3,9.8,18.3,9.8,18.3,9.8L18.3,9.8z"/>
<rect x="0" class="st0" width="24" height="24"/>
</svg>
