<?xml version="1.0" encoding="utf-8"?>
<!-- Generator: Adobe Illustrator 20.1.0, SVG Export Plug-In . SVG Version: 6.00 Build 0)  -->
<svg version="1.1" id="Layer_1" xmlns="http://www.w3.org/2000/svg" xmlns:xlink="http://www.w3.org/1999/xlink" x="0px" y="0px"
	 viewBox="0 0 24 24" style="enable-background:new 0 0 24 24;" xml:space="preserve">
<style type="text/css">
	.st0{fill:none;}
</style>
<title>get_it_installed</title>
<g id="EUXICONS">
	<g id="get_it_installed">
		<path id="Combined-Shape" d="M6,7.3h1.2v2.1l2.4-0.9L22,13.1v-1.4L9.7,7.1v0v0L8.6,7.5V6h-4v3L2,10v1.4l4-1.5L6,7.3L6,7.3z
			 M3.6,14.8c0.4,0,0.9-0.2,1.2-0.5C4.9,14,5,13.6,5,13.3H3.6v0.5h0.6c0,0.3-0.3,0.5-0.6,0.5c0,0,0,0,0,0c-0.4,0-0.8-0.4-0.7-0.8
			c0,0,0,0,0,0c0-0.4,0.3-0.8,0.7-0.8c0,0,0,0,0,0c0.3,0,0.5,0.2,0.6,0.4l0.7-0.3C4.6,12.3,4.1,12,3.6,12c-0.8-0.1-1.5,0.5-1.5,1.2
			c0,0.1,0,0.1,0,0.2c0,0.8,0.6,1.4,1.4,1.4C3.5,14.8,3.5,14.8,3.6,14.8z M6.9,12.7v-0.6H5.3v2.6h1.6v-0.6H6.1v-0.5h0.8v-0.6H6.1
			v-0.4H6.9z M8.5,14.7v-2.1h0.6v-0.6H7.1v0.6h0.6v2.1L8.5,14.7z M10.6,12.1h0.7v2.6h-0.7V12.1z M12.9,14.7v-2.1h0.6v-0.6h-1.9v0.6
			h0.6v2.1L12.9,14.7z M2.2,15.3h0.7v2.6H2.2V15.3z M5.5,16.9L5.5,16.9l-1.3-1.6H3.4v2.6h0.7v-1.6l0,0l1.3,1.6h0.7v-2.6H5.5V16.9z
			 M7.9,16.3l-0.2,0c-0.1,0-0.3-0.1-0.3-0.3s0.2-0.2,0.3-0.2c0.2,0,0.3,0.1,0.5,0.2l0.3-0.5c-0.3-0.1-0.6-0.2-0.9-0.2
			c-0.5,0-0.9,0.3-1,0.8c0,0,0,0.1,0,0.1c0,0.5,0.3,0.6,0.8,0.7c0.2,0,0.4,0.1,0.4,0.3s-0.2,0.3-0.3,0.3c-0.2,0-0.5-0.1-0.6-0.3
			l-0.3,0.6c0.3,0.2,0.6,0.3,1,0.3c0.3,0,0.5-0.1,0.8-0.2c0.2-0.2,0.3-0.4,0.3-0.7C8.6,16.6,8.3,16.4,7.9,16.3 M8.7,15.9h0.6V18h0.7
			v-2.1h0.6v-0.6h-2V15.9L8.7,15.9z M11.7,15.3l-1.1,2.6h0.8l0.2-0.5h1l0.2,0.5h0.8l-1.1-2.6H11.7z M11.8,17l0.3-0.8l0,0l0.3,0.8
			H11.8z M14.5,15.3h-0.7v2.6h1.6v-0.6h-0.9V15.3z M16.4,15.3h-0.7v2.6h1.6v-0.6h-0.8V15.3z M17.5,17.9h1.6v-0.6h-0.9v-0.5H19v-0.6
			h-0.8v-0.4H19v-0.6h-1.6L17.5,17.9L17.5,17.9z M20.5,15.3h-1v2.6h1c0.7,0,1.3-0.6,1.3-1.3C21.9,15.9,21.3,15.3,20.5,15.3
			C20.5,15.3,20.5,15.3,20.5,15.3 M20.4,17.4h-0.2v-1.5h0.2c0.4,0,0.7,0.3,0.7,0.7C21.1,17,20.8,17.3,20.4,17.4
			C20.4,17.3,20.4,17.3,20.4,17.4"/>
	</g>
</g>
<rect y="0" class="st0" width="24" height="24"/>
</svg>
