<?xml version="1.0" encoding="utf-8"?>
<!-- Generator: Adobe Illustrator 20.1.0, SVG Export Plug-In . SVG Version: 6.00 Build 0)  -->
<svg version="1.1" id="Layer_1" xmlns="http://www.w3.org/2000/svg" xmlns:xlink="http://www.w3.org/1999/xlink" x="0px" y="0px"
	 viewBox="0 0 24 24" style="enable-background:new 0 0 24 24;" xml:space="preserve">
<style type="text/css">
	.st0{fill:none;}
</style>
<title>gift_card</title>
<g id="EUXICONS">
	<g id="gift_card">
		<path id="Shape" d="M20,6.5h-2.2C18.4,5,17.6,3.2,16,2.7c-1.3-0.5-2.7,0-3.5,1.2L12,4.5l-0.5-0.7C10.6,2.5,8.7,2.1,7.4,3
			C6.2,3.7,5.7,5.2,6.2,6.5H4c-1.1,0-2,0.9-2,2c0,0,0,0,0,0v11c0,1.1,0.9,2,2,2c0,0,0,0,0,0h16c1.1,0,2-0.9,2-2c0,0,0,0,0,0v-11
			C22,7.4,21.1,6.5,20,6.5C20,6.5,20,6.5,20,6.5z M15,4.5c0.6,0,1,0.4,1,1s-0.4,1-1,1s-1-0.4-1-1S14.4,4.5,15,4.5L15,4.5z M9,4.5
			c0.6,0,1,0.4,1,1c0,0.6-0.4,1-1,1s-1-0.4-1-1c0,0,0,0,0,0C8,5,8.4,4.5,9,4.5C9,4.5,9,4.5,9,4.5z M20,19.5H4v-2h16V19.5z M20,14.5
			H4v-6h5.1L7,11.3l1.6,1.2L11,9.3l1-1.4l1,1.4l2.4,3.2l1.6-1.2l-2.1-2.8H20V14.5z"/>
	</g>
</g>
<rect x="0" class="st0" width="24" height="24"/>
</svg>
