<?xml version="1.0" encoding="utf-8"?>
<!-- Generator: Adobe Illustrator 20.1.0, SVG Export Plug-In . SVG Version: 6.00 Build 0)  -->
<svg version="1.1" id="Layer_1" xmlns="http://www.w3.org/2000/svg" xmlns:xlink="http://www.w3.org/1999/xlink" x="0px" y="0px"
	 viewBox="0 0 24 24" style="enable-background:new 0 0 24 24;" xml:space="preserve">
<style type="text/css">
	.st0{fill:none;}
</style>
<title>grill</title>
<g id="EUXICONS">
	<g id="grill">
		<path id="Combined-Shape" d="M19.4,18.7c-0.9,0-1.6,0.7-1.6,1.7c0,0.9,0.7,1.7,1.6,1.7c0.9,0,1.6-0.7,1.6-1.7
			C21,19.4,20.3,18.7,19.4,18.7L19.4,18.7z M8.7,2h6.6v1.4H8.7V2z M12,4.8c-4.6,0-8.4,2.3-9,5.4H21C20.4,7.1,16.6,4.8,12,4.8z
			 M12,17c4.6,0,8.4-2.3,9-5.4H3C3.6,14.7,7.4,17,12,17L12,17z M17.3,16.9c-0.6,0.3-1.3,0.5-1.9,0.7l0.7,0.7H7.9l0.7-0.7
			c-0.7-0.2-1.3-0.4-1.9-0.7L3,20.7V22h1.3l2.2-2.3h10.1c0.2-0.9,0.7-1.6,1.5-2.1L17.3,16.9z"/>
	</g>
</g>
<rect x="0" class="st0" width="24" height="24"/>
</svg>
