<?xml version="1.0" encoding="utf-8"?>
<!-- Generator: Adobe Illustrator 20.1.0, SVG Export Plug-In . SVG Version: 6.00 Build 0)  -->
<svg version="1.1" id="Layer_1" xmlns="http://www.w3.org/2000/svg" xmlns:xlink="http://www.w3.org/1999/xlink" x="0px" y="0px"
	 viewBox="0 0 24 24" style="enable-background:new 0 0 24 24;" xml:space="preserve">
<style type="text/css">
	.st0{fill:none;}
</style>
<title>chart_growth</title>
<g id="EUXICONS">
	<g id="chart_growth">
		<path id="Shape" d="M22,18.2v1.2H2v-15h1.2v13.8H22z M20.8,6.1v4.2c0,0.2-0.1,0.3-0.3,0.3c-0.1,0-0.2,0-0.2-0.1L19,9.3l-6.2,6.2
			c-0.1,0.1-0.3,0.1-0.4,0c0,0,0,0,0,0l-2.3-2.3l-4.1,4.1l-1.9-1.9l5.7-5.7c0.1-0.1,0.3-0.1,0.4,0c0,0,0,0,0,0l2.3,2.3l4.5-4.5
			L16,6.3c-0.1-0.1-0.1-0.3,0-0.4c0.1-0.1,0.1-0.1,0.2-0.1h4.2C20.6,5.7,20.7,5.9,20.8,6.1C20.8,6,20.8,6.1,20.8,6.1z"/>
	</g>
</g>
<rect x="0" class="st0" width="24" height="24"/>
</svg>
