<?xml version="1.0" encoding="utf-8"?>
<!-- Generator: Adobe Illustrator 20.1.0, SVG Export Plug-In . SVG Version: 6.00 Build 0)  -->
<svg version="1.1" id="Layer_1" xmlns="http://www.w3.org/2000/svg" xmlns:xlink="http://www.w3.org/1999/xlink" x="0px" y="0px"
	 viewBox="0 0 24 24" style="enable-background:new 0 0 24 24;" xml:space="preserve">
<style type="text/css">
	.st0{fill:none;}
</style>
<title>hammer</title>
<g id="EUXICONS">
	<g id="hammer">
		<path id="path3059" d="M14.7,10.6L4.8,21L2,18.3l10.5-9.8L14.7,10.6z M20.1,12.3c-0.3,0.3-0.9,0.3-1.3,0l-0.4-0.4
			c-0.3-0.2-0.4-0.6-0.2-0.9c0.3-0.2,0.2-0.7-0.3-1.2c-0.7-0.7-1.7-0.7-2-0.4c-0.2,0.1-0.6,0.6-0.6,0.6L13,8l0.4-0.3
			c0,0,0.1-0.1,0.3-0.3c0.4-0.4,0.4-1,0-1.4c-1.3-1.1-3-1.8-4.8-1.8V3.4c5.5-1.4,7.6,1,8.4,1.7l1.6,1.6c0.4,0.4,0,1.5,0.6,2.1
			C19.7,9,20,9.1,20.4,9.1c0.3-0.2,0.8-0.2,1,0.1l0.3,0.3c0.3,0.3,0.3,0.8,0,1.1c0,0,0,0,0,0L20.1,12.3z"/>
	</g>
</g>
<rect x="0.1" y="0.1" class="st0" width="23.9" height="23.9"/>
</svg>
