<?xml version="1.0" encoding="utf-8"?>
<!-- Generator: Adobe Illustrator 20.1.0, SVG Export Plug-In . SVG Version: 6.00 Build 0)  -->
<svg version="1.1" id="Layer_1" xmlns="http://www.w3.org/2000/svg" xmlns:xlink="http://www.w3.org/1999/xlink" x="0px" y="0px"
	 viewBox="0 0 24 24" style="enable-background:new 0 0 24 24;" xml:space="preserve">
<style type="text/css">
	.st0{fill:none;}
</style>
<title>hand_saw</title>
<path d="M18,2L7.9,12.5l-0.4-0.4L3,16.7l1.1,1.2l1-1l2.9,3l-1,1L8.2,22l2.9-3l0-0.7l1.1,0.2l-0.3-1.2l1,0.3l-0.3-1.2l0,0l1.1,0.3
	l-0.3-1.4l0,0l1,0.3L14,14.2l1.1,0.3l-0.3-1.3l0,0l1.1,0.3l-0.3-1.3l0,0l1.1,0.3l-0.3-1.3l0,0l1,0.3l-0.3-1.3l0,0l1.1,0.3l-0.3-1.3
	l0,0l1,0.3l-0.3-1.2l0,0l1.1,0.3l-0.3-1.3l0,0l1.1,0.3L19.9,6l0-0.1L21,6.2l-0.3-1.3l0.1-0.1 M9.2,18.6l-2.9-3l1-1l2.9,3L9.2,18.6z"
	/>
<rect x="0" class="st0" width="24" height="24"/>
</svg>
