<?xml version="1.0" encoding="utf-8"?>
<!-- Generator: Adobe Illustrator 20.1.0, SVG Export Plug-In . SVG Version: 6.00 Build 0)  -->
<svg version="1.1" id="Layer_1" xmlns="http://www.w3.org/2000/svg" xmlns:xlink="http://www.w3.org/1999/xlink" x="0px" y="0px"
	 viewBox="0 0 24 24" style="enable-background:new 0 0 24 24;" xml:space="preserve">
<style type="text/css">
	.st0{fill:none;}
</style>
<title>payment_hd_credit_card</title>
<g>
	<path d="M21.5,4.5C21.2,4.2,20.8,4,20.3,4H3.7C3.2,4,2.8,4.2,2.5,4.5C2.2,4.8,2,5.2,2,5.7v12.7c0,0.4,0.2,0.9,0.5,1.2
		C2.8,19.8,3.2,20,3.7,20h16.7c0.4,0,0.9-0.2,1.2-0.5c0.3-0.3,0.5-0.7,0.5-1.2V5.7C22,5.2,21.8,4.8,21.5,4.5z M20.6,17.9
		c0,0.3-0.3,0.6-0.6,0.6H4c-0.3,0-0.6-0.3-0.6-0.6V6.3c0-0.3,0.3-0.6,0.6-0.6h16c0.3,0,0.6,0.3,0.6,0.6V17.9z"/>
	<polygon points="4.7,17.3 4.7,16 7.3,16 7.3,17.3 4.7,17.3 	"/>
	<polygon points="8.7,17.3 8.7,16 12.7,16 12.7,17.3 8.7,17.3 	"/>
	<path d="M6.5,8h2v1.9h1.3V8h2v5.6h-2v-1.9H8.5v1.9h-2V8z"/>
	<path d="M12.6,8h2.1c1.9,0,3.4,0.8,3.4,2.9c0.1,1.4-1.1,2.7-2.5,2.7c-0.1,0-0.2,0-0.3,0h-2.6V8z M14.7,12h0.1c0.7,0,1.2-0.3,1.2-1
		c0-0.7-0.5-1.1-1.2-1.1h-0.1V12z"/>
</g>
<rect y="0" class="st0" width="24" height="24"/>
</svg>
