<svg id="Layer_1" data-name="Layer 1" xmlns="http://www.w3.org/2000/svg" viewBox="0 0 24 24"><defs><style>.cls-1{fill:none;}</style></defs><title>heart_rate</title><rect class="cls-1" width="24" height="24"/><path d="M12.27,13.8,9.47,16.68,8.13,11,6.5,13.8h-3A15.88,15.88,0,0,0,12,21v0l0,0,0,0v0a15.88,15.88,0,0,0,8.48-7.17Z"/><path d="M5.79,12l3-5,1.52,6.84L11.89,12h9.47c1-2.76.88-5.51-1-7.3-4.5-4.09-8.08.45-8.41.88-.32-.43-3.91-5-8.41-.88-1.84,1.8-2,4.54-1,7.3Z"/><rect class="cls-1" width="24" height="24"/></svg>