<?xml version="1.0" encoding="utf-8"?>
<!-- Generator: Adobe Illustrator 20.1.0, SVG Export Plug-In . SVG Version: 6.00 Build 0)  -->
<svg version="1.1" id="Layer_1" xmlns="http://www.w3.org/2000/svg" xmlns:xlink="http://www.w3.org/1999/xlink" x="0px" y="0px"
	 viewBox="0 0 24 24" style="enable-background:new 0 0 24 24;" xml:space="preserve">
<style type="text/css">
	.st0{fill:none;}
</style>
<title>alert_warning copy</title>
<desc>Created with Sketch.</desc>
<g id="EUXICONS">
	<g id="alert_warning-copy">
		<path id="Shape" d="M12,2C6.5,2,2,6.5,2,12s4.5,10,10,10s10-4.5,10-10S17.5,2,12,2L12,2z M13,19h-2v-2h2V19L13,19z M15.1,11.2
			l-0.9,0.9C13.4,12.9,13,13.5,13,15h-2v-0.5c0-1.1,0.4-2.1,1.2-2.8l1.2-1.2C13.8,10.1,14,9.6,14,9c0-1.1-0.9-2-2-2s-2,0.9-2,2H8
			c0-2.2,1.8-4,4-4s4,1.8,4,4C16,9.9,15.6,10.7,15.1,11.2L15.1,11.2z"/>
	</g>
</g>
<rect y="0" class="st0" width="24" height="24"/>
</svg>
