<?xml version="1.0" encoding="utf-8"?>
<!-- Generator: Adobe Illustrator 20.1.0, SVG Export Plug-In . SVG Version: 6.00 Build 0)  -->
<svg version="1.1" id="Layer_1" xmlns="http://www.w3.org/2000/svg" xmlns:xlink="http://www.w3.org/1999/xlink" x="0px" y="0px"
	 viewBox="0 0 24 24" style="enable-background:new 0 0 24 24;" xml:space="preserve">
<style type="text/css">
	.st0{fill:none;}
</style>
<title>help_outline</title>
<path d="M11,18h2v-2h-2V18z M12,2C6.5,2,2,6.5,2,12s4.5,10,10,10s10-4.5,10-10S17.5,2,12,2z M12,20c-4.4,0-8-3.6-8-8s3.6-8,8-8
	s8,3.6,8,8c0,0,0,0,0,0C20,16.4,16.4,20,12,20z M12,6c-2.2,0-4,1.8-4,4h2c0-1.1,0.9-2,2-2s2,0.9,2,2c0,2-3,1.8-3,5h2
	c0-2.3,3-2.5,3-5C16,7.8,14.2,6,12,6L12,6z"/>
<rect x="0" class="st0" width="24" height="24"/>
</svg>
