<?xml version="1.0" encoding="utf-8"?>
<!-- Generator: Adobe Illustrator 20.1.0, SVG Export Plug-In . SVG Version: 6.00 Build 0)  -->
<svg version="1.1" id="Layer_1" xmlns="http://www.w3.org/2000/svg" xmlns:xlink="http://www.w3.org/1999/xlink" x="0px" y="0px"
	 viewBox="0 0 24 24" style="enable-background:new 0 0 24 24;" xml:space="preserve">
<style type="text/css">
	.st0{fill:none;}
</style>
<title>logo_homedepot</title>
<g>
	<path d="M2.5,18.4c-0.2-0.2-0.2-0.3-0.5-0.1V22h3.8c0.1-0.3,0.1-0.3-0.1-0.5L2.5,18.4z"/>
	<path d="M21.3,4.6C21.3,4.7,21.3,4.7,21.3,4.6L22,5.4V2h-3.5l0.7,0.7c0,0,0.1,0.2,0,0.3s-0.2,0.1-0.3,0c-0.6-0.3-1.3-0.3-1.8,0.1
		l-0.3-0.3L17.6,2H2v15.6l1.4-1.4c0,0,0.2-0.2,0.4,0c0.1,0.1,0.1,0.2,0,0.3c-0.1,0.3-0.1,0.3,0.1,0.5L7.1,20
		c0.2,0.2,0.2,0.3,0.5,0.1c0.1-0.1,0.2-0.1,0.3,0c0.2,0.2,0,0.4,0,0.4L6.4,22h5.7l0-0.1c0-0.1,0-0.2-0.1-0.2L10.3,20
		c0,0-0.1-0.1-0.2-0.1c-0.1,0-0.2,0.1-0.2,0s0-0.2,0.1-0.2l0.8-0.8l2.5,2.5L12.5,22H22v-9.5l-0.8,0.8c0,0-0.1,0.1-0.2,0
		c0,0,0-0.1,0-0.2c0.1-0.2,0.1-0.2-0.1-0.3l-2.1-2.1l0.8-0.8l2.1,2.1c0.1,0.1,0.1,0.1,0.3,0.1V6.4l-0.9,0.8l-0.3-0.3
		c0.4-0.5,0.5-1.3,0.1-1.9c0-0.1-0.1-0.3,0-0.4C21,4.6,21.2,4.6,21.3,4.6z M18.6,3.5C18.8,3.3,19,3.6,19,3.6l1.2,1.2
		c0,0,0.3,0.2,0.1,0.4c-0.2,0.2-0.3,0.1-0.4,0C19.7,5.1,19.3,5,19,5.2l-0.4-0.4c0.1-0.3,0.1-0.7-0.1-0.9C18.5,3.8,18.5,3.6,18.6,3.5
		z M14.3,5.3c0,0,0.2-0.2,0.4,0c0.1,0.1,0.1,0.2,0,0.3c-0.1,0.3-0.1,0.3,0.1,0.5l3.1,3.1c0.2,0.2,0.2,0.3,0.5,0.1
		c0.1-0.1,0.2-0.1,0.3,0c0.2,0.2,0,0.4,0,0.4L17,11.4c0,0-0.2,0.2-0.4,0c-0.1-0.1-0.1-0.2,0-0.3c0.1-0.3,0.1-0.3-0.1-0.5l-2.8-2.7
		l2.4,4.4l-0.2,0.2L11,10.1c-0.1-0.1-0.2-0.1-0.4-0.2c-0.1,0-0.2-0.1-0.3,0C10.2,10,10.1,10.1,10,10C9.8,9.8,10,9.6,10,9.5l1.5-1.5
		L14,9.2l-1.2-2.4L14.3,5.3z M14.2,17c0-0.1-0.1-0.1,0-0.2s0.2,0,0.2,0.1l0.7,0.7c0,0,0.2,0.1,0.1,0.2c-0.1,0.1-0.1,0-0.2,0
		c-0.1-0.1-0.4-0.1-0.5-0.1l-0.2-0.2C14.3,17.3,14.3,17.1,14.2,17z M14.5,16.5L14.5,16.5c-0.1,0-0.1,0-0.2,0c-0.3-0.2-0.7-0.2-1,0.1
		l-0.2-0.2l0.7-0.7l0.7,0.7C14.5,16.3,14.6,16.4,14.5,16.5z M12.1,15L12.1,15L9,11.9c-0.2-0.2-0.5-0.3-0.7-0.1l-0.3-0.3
		c1.4-1.1,3-0.7,4.1,0.5s1.6,2.8,0.5,4.1l-0.3-0.3C12.3,15.5,12.3,15.2,12.1,15z M13.8,12.8L13.8,12.8l-2-2l1.3,0.6l1,1
		c0.8,0.6,1,0,1.2,0.3c0.3,0.3-0.1,0.4-0.1,0.5l-0.7,0.7c-0.1,0.1-0.3,0.3-0.5,0.1C13.8,13.8,14.4,13.6,13.8,12.8z M11.5,5.9
		c0-0.1-0.1-0.1,0-0.2c0-0.1,0.1-0.1,0.2,0c0,0,0,0,0,0l0.6,0.6L11.6,7l-0.2-0.2C11.6,6.5,11.7,6.2,11.5,5.9z M11.2,6
		C11.1,6,11.1,6,11,6c-0.1-0.1-0.3-0.1-0.5-0.1l-0.2-0.2c0.1-0.2,0.1-0.4-0.1-0.5c0-0.1-0.1-0.1,0-0.2c0.1-0.1,0.2,0,0.2,0.1
		l0.7,0.6C11.2,5.8,11.3,5.9,11.2,6z M10,4l0.6,0.6c0,0,0.1,0.1,0,0.2c-0.1,0.1-0.1,0-0.2,0c-0.3-0.2-0.7-0.2-1,0.1L9.3,4.7L10,4z
		 M8.3,5.7l0.8-0.8l2.3,2.3L10.7,8c0,0-0.1,0.1-0.2,0c0,0,0-0.1,0-0.1c0.1-0.1,0-0.2-0.1-0.3L8.7,5.9C8.6,5.8,8.6,5.8,8.5,5.9
		c0,0-0.1,0-0.2,0C8.2,5.8,8.3,5.7,8.3,5.7z M7.1,6.8L8,6c0,0,0.1-0.1,0.2,0c0,0,0,0.1,0,0.1c-0.1,0.1,0,0.2,0.1,0.3L9.9,8
		c0.1,0.1,0.1,0.1,0.3,0.1c0,0,0.1,0,0.1,0c0.1,0.1,0,0.2,0,0.2L9.5,9.2c0,0-0.1,0.1-0.2,0c0,0,0-0.1,0-0.1c0.1-0.1,0.1-0.2-0.1-0.3
		L8.4,8L8.2,8.3L8,8.1l0.3-0.3L7.5,7.1C7.4,7,7.4,7,7.3,7.1c0,0-0.1,0-0.2,0C7,7,7.1,6.8,7.1,6.8z M6,8l0.9-0.9c0,0,0.1-0.1,0.2,0
		c0,0,0,0.1,0,0.2C7,7.4,7,7.4,7.1,7.5l1.6,1.6C8.9,9.3,8.9,9.3,9,9.2c0,0,0.1,0,0.2,0c0.1,0.1,0,0.2,0,0.2l-0.9,0.9
		c0,0-0.1,0.1-0.2,0c0,0,0-0.1,0-0.2C8.2,10,8.1,10,8,9.9L6.4,8.3C6.3,8.2,6.2,8.2,6.1,8.2c0,0-0.1,0-0.1,0C5.8,8.1,6,8,6,8z
		 M5.8,8.2l0.7,0.7c0.1,0,0.1,0.1,0,0.2c0,0,0,0,0,0c-0.1,0.1-0.2,0-0.3,0C6,8.9,5.7,8.9,5.5,8.9L5.3,8.7L5.8,8.2z M5.2,8.8l2,2
		c0.1,0.1,0.1,0.1,0.3,0.1c0,0,0.1,0,0.2,0c0.1,0.1,0,0.2,0,0.2L6.7,12c0,0-0.1,0.1-0.2,0c0,0,0-0.1,0-0.2c0.1-0.1,0.1-0.2-0.1-0.3
		l-2-2L5.2,8.8z M3.8,10.2l0.4-0.4l0.2,0.2c0,0.3,0.1,0.5,0.2,0.7c0.1,0.1,0.1,0.2,0,0.3c0,0.1-0.1,0.1-0.2,0c0,0,0,0,0,0L3.8,10.2z
		 M10.1,18.3L10.1,18.3L8.4,20c0,0-0.2,0.2-0.4,0c-0.1-0.1-0.1-0.2,0-0.3c0.1-0.3,0.1-0.3-0.1-0.5l-1.4-1.4l-0.5,0.5L5.6,18l0.5-0.5
		l-1.3-1.3c-0.2-0.2-0.2-0.3-0.5-0.1C4.2,16.1,4,16.1,4,16c-0.2-0.2,0-0.4,0-0.4L5.7,14c0,0,0.2-0.2,0.4,0c0.1,0.1,0.1,0.2,0,0.3
		c-0.1,0.3-0.1,0.3,0.1,0.5l3.1,3.1c0.2,0.2,0.2,0.3,0.5,0.1c0.1-0.1,0.2-0.1,0.3,0C10.3,18.1,10.1,18.3,10.1,18.3z M8.1,15.8
		L8.1,15.8c-1.1-1.2-1.6-2.8-0.5-4.1L8,12.1c-0.1,0.2-0.1,0.5,0.1,0.7l3.1,3.1c0.2,0.2,0.5,0.3,0.7,0.1l0.3,0.3
		C10.9,17.5,9.3,17,8.1,15.8z M13.5,21c0,0-0.1,0.1-0.1,0.1h0l-0.2-0.2c0.2-0.2,0-0.4-0.1-0.6L11.6,19c-0.1-0.1-0.3-0.3-0.6-0.1
		l-0.2-0.2c0.6-0.6,1.4-0.6,2.3,0.2C13.9,19.3,14,20.3,13.5,21z M14.6,19.9c0,0-0.1,0.1-0.2,0c0,0,0-0.1,0-0.2
		c0.1-0.1,0.1-0.2-0.1-0.3l-1.8-1.7c-0.1-0.1-0.1-0.1-0.3-0.1c0,0-0.1,0-0.2,0c-0.1-0.1,0-0.2,0-0.2l0.9-0.9l2.5,2.5L14.6,19.9z
		 M15.6,18.9l-0.2-0.2c0.2-0.3,0.3-0.7,0.1-1.1c0-0.1-0.1-0.1,0-0.2c0-0.1,0.1-0.1,0.2,0c0,0,0,0,0,0l0.6,0.7L15.6,18.9z M17.6,16.9
		L17.6,16.9l-0.9,1c-0.1,0.1-0.1,0.1-0.2,0c0,0,0,0,0,0c0,0,0-0.1,0-0.2c0.1-0.2,0-0.2-0.1-0.3l-1.8-1.8c-0.1-0.1-0.1-0.1-0.3-0.1
		c0,0-0.1,0-0.2,0c-0.1-0.1,0-0.2,0-0.2l0.9-0.9l2.1,2.1c0.1,0.1,0.1,0.1,0.3,0.1c0,0,0.1,0,0.2,0C17.7,16.8,17.6,16.9,17.6,16.9z
		 M17.4,14.7C17.4,14.7,17.3,14.7,17.4,14.7L17.4,14.7c-0.1-0.1-0.1-0.1-0.2-0.2c0.1,0.2,0.1,0.4,0,0.6c-0.1,0.3-0.3,0.6-0.5,0.8
		l-0.2-0.2c0.2-0.2,0-0.4-0.1-0.5l-0.5-0.5c-0.1-0.2-0.3-0.3-0.5-0.1l-0.2-0.2c0.2-0.2,0.5-0.4,0.8-0.5c0.4-0.1,0.7,0,1,0.3
		c-0.3-0.6-0.3-1.3,0.2-1.8l0.2,0.2c-0.1,0.1-0.1,0.3,0.1,0.4l1.7,1.7c0.1,0.1,0.3,0.2,0.4,0.1l0.2,0.2C19,15.5,17.9,15.4,17.4,14.7
		z M21,20.4c0.3,0,0.6,0.3,0.6,0.6s-0.3,0.6-0.6,0.6c-0.3,0-0.6-0.3-0.6-0.6S20.7,20.4,21,20.4z M18.8,11.1c0,0.3,0.1,0.6,0.3,0.8
		c0.1,0.1,0.1,0.2,0,0.3c0.1,0.1,0.3,0.2,0.4,0.3c0.7,0.6,0.8,1.6,0.3,2.3l-0.2-0.2c0.1-0.1,0.1-0.3-0.1-0.4l-1.7-1.7
		c-0.1-0.1-0.3-0.2-0.4-0.1l-0.2-0.2c0.4-0.4,1-0.5,1.5-0.3l-0.6-0.5l0.5-0.5L18.8,11.1z M21,10.3C21,10.3,21,10.3,21,10.3
		c-0.1,0.1-0.2,0-0.3,0C20.5,10.1,20.2,10,20,10l-0.2-0.2l0.5-0.5l0.8,0.8C21.1,10.1,21.1,10.2,21,10.3z M20.9,7.5l-1.6,1.6
		c0,0-0.2,0.2-0.4,0c-0.1-0.1-0.1-0.2,0-0.3c0.1-0.3,0.1-0.3-0.1-0.5l-3.1-3.1c-0.2-0.2-0.2-0.3-0.5-0.1c-0.1,0.1-0.2,0.1-0.3,0
		c-0.2-0.2,0-0.4,0-0.4l1.6-1.6L20.9,7.5z"/>
	<path d="M21,21.5c0.3,0,0.5-0.2,0.5-0.5s-0.2-0.5-0.5-0.5c-0.3,0-0.5,0.2-0.5,0.5S20.8,21.5,21,21.5z M20.9,20.7H21
		c0.1,0,0.2,0,0.2,0.1c0,0,0.1,0.1,0.1,0.1c0,0,0,0.1,0,0.1s-0.1,0.1-0.1,0.1l0.2,0.3h-0.1L21,21.1h0v0.3h-0.1V20.7z"/>
	<path d="M21.2,20.9c0-0.1,0-0.1-0.1-0.1h0V21h0C21.1,21,21.2,21,21.2,20.9z"/>
</g>
<rect x="0" class="st0" width="24" height="24"/>
</svg>
