<?xml version="1.0" encoding="utf-8"?>
<!-- Generator: Adobe Illustrator 20.1.0, SVG Export Plug-In . SVG Version: 6.00 Build 0)  -->
<svg version="1.1" id="Layer_1" xmlns="http://www.w3.org/2000/svg" xmlns:xlink="http://www.w3.org/1999/xlink" x="0px" y="0px"
	 viewBox="0 0 24 24" style="enable-background:new 0 0 24 24;" xml:space="preserve">
<style type="text/css">
	.st0{fill:none;}
</style>
<title>insects</title>
<g id="EUXICONS">
	<g id="insects">
		<path id="Combined-Shape" d="M10.6,8.6l-1,0.1L8.8,5.3L5.5,2l-1,0.9l3,3l0.7,2.9l-4,0.6l0,0C2.9,9.6,1.9,10.8,2,12.2
			s1.4,2.4,2.8,2.3c0.4,0,0.7-0.2,1-0.3c1.2-0.7,2.4-1.4,3.6-2.3l-1.3,2l-4.4,4.4l1,0.9l4.5-4.6L9.7,14v1.3l-2.2,6.2L8.8,22l2-5.9
			c0.4,0.6,1.2,0.8,1.8,0.4c0.3-0.2,0.5-0.5,0.6-0.8l2.2,6.3l1.3-0.4l-2.1-6.2V14l0.5,0.8l4.5,4.6l1-0.9l-4.4-4.4l-1.1-1.8
			c1.4,1,2.9,1.8,3.2,2c1.2,0.7,2.8,0.3,3.5-0.9c0.7-1.2,0.3-2.8-0.9-3.5c-0.3-0.2-0.6-0.3-1-0.3l0,0l-4-0.6L16.4,6l3-3L18.5,2
			l-3.3,3.3l-0.9,3.4l-1.1-0.2V6.3h-0.6V3.2h-1.4v3.1h-0.6L10.6,8.6z"/>
	</g>
</g>
<rect x="0" class="st0" width="24" height="24"/>
</svg>
