<?xml version="1.0" encoding="utf-8"?>
<!-- Generator: Adobe Illustrator 20.1.0, SVG Export Plug-In . SVG Version: 6.00 Build 0)  -->
<svg version="1.1" id="Layer_1" xmlns="http://www.w3.org/2000/svg" xmlns:xlink="http://www.w3.org/1999/xlink" x="0px" y="0px"
	 viewBox="0 0 24 24" style="enable-background:new 0 0 24 24;" xml:space="preserve">
<style type="text/css">
	.st0{fill:none;}
</style>
<title>keyboard_hide</title>
<g id="EUXICONS">
	<g id="keyboard_hide">
		<path id="Shape" d="M20,2H4C2.9,2,2,2.9,2,4v10c0,1.1,0.9,2,2,2h16c1.1,0,2-0.9,2-2V4C22,2.9,21.1,2,20,2z M11,5h2v2h-2V5z M11,8
			h2v2h-2V8z M8,5h2v2H8V5z M8,8h2v2H8V8z M7,10H5V8h2V10z M7,7H5V5h2V7z M16,14H8v-2h8V14z M16,10h-2V8h2C16,8,16,10,16,10z M16,7
			h-2V5h2C16,5,16,7,16,7z M19,10h-2V8h2C19,8,19,10,19,10z M19,7h-2V5h2C19,5,19,7,19,7z M12,22l4-4H8L12,22z"/>
	</g>
</g>
<rect y="0" class="st0" width="24" height="24"/>
</svg>
