<?xml version="1.0" encoding="utf-8"?>
<!-- Generator: Adobe Illustrator 20.1.0, SVG Export Plug-In . SVG Version: 6.00 Build 0)  -->
<svg version="1.1" id="Layer_1" xmlns="http://www.w3.org/2000/svg" xmlns:xlink="http://www.w3.org/1999/xlink" x="0px" y="0px"
	 viewBox="0 0 24 24" style="enable-background:new 0 0 24 24;" xml:space="preserve">
<style type="text/css">
	.st0{fill:none;}
</style>
<title>language</title>
<g id="EUXICONS">
	<g id="language">
		<path id="Shape" d="M12,2C6.5,2,2,6.5,2,12s4.5,10,10,10s10-4.5,10-10S17.5,2,12,2z M18.9,8h-3c-0.3-1.2-0.8-2.4-1.4-3.6
			C16.4,5.1,17.9,6.3,18.9,8z M12,4c0.8,1.2,1.5,2.5,1.9,4h-3.8C10.5,6.6,11.2,5.3,12,4z M4.3,14C4.1,13.3,4,12.7,4,12
			c0-0.7,0.1-1.3,0.3-2h3.4c-0.1,0.7-0.1,1.3-0.1,2c0,0.7,0,1.3,0.1,2H4.3z M5.1,16h3c0.3,1.2,0.8,2.4,1.4,3.6
			C7.6,18.9,6,17.7,5.1,16z M8,8h-3c1-1.7,2.5-2.9,4.3-3.6C8.8,5.6,8.3,6.8,8,8z M12,20c-0.8-1.2-1.5-2.5-1.9-4h3.8
			C13.5,17.4,12.8,18.7,12,20z M14.3,14H9.7c-0.1-0.7-0.2-1.3-0.2-2c0-0.7,0.1-1.3,0.2-2h4.7c0.1,0.7,0.2,1.3,0.2,2
			C14.5,12.7,14.4,13.3,14.3,14z M14.6,19.6c0.6-1.1,1.1-2.3,1.4-3.6h2.9C17.9,17.7,16.4,18.9,14.6,19.6z M16.4,14
			c0.1-0.7,0.1-1.3,0.1-2c0-0.7,0-1.3-0.1-2h3.4c0.2,0.7,0.2,1.3,0.2,2c0,0.7-0.1,1.3-0.3,2H16.4z"/>
	</g>
</g>
<rect y="0" class="st0" width="24" height="24"/>
</svg>
