<?xml version="1.0" encoding="utf-8"?>
<!-- Generator: Adobe Illustrator 20.1.0, SVG Export Plug-In . SVG Version: 6.00 Build 0)  -->
<svg version="1.1" id="Layer_1" xmlns="http://www.w3.org/2000/svg" xmlns:xlink="http://www.w3.org/1999/xlink" x="0px" y="0px"
	 viewBox="0 0 24 24" style="enable-background:new 0 0 24 24;" xml:space="preserve">
<style type="text/css">
	.st0{fill:none;}
</style>
<title>light_bulb_2</title>
<g id="EUXICONS">
	<g id="light_bulb_2">
		<path id="Combined-Shape" d="M12.1,2c2.8,0,5.1,2.2,5.2,5c0,0.1,0,0.1,0,0.2c0,2.7-2.6,4.6-2.7,9.2H12H9.4c0-4.6-2.6-6.4-2.6-9.2
			C6.7,4.4,9,2,11.9,2C11.9,2,12,2,12.1,2z M9.4,19.7c0-0.4,0.3-0.6,0.7-0.6h3.9c0.4,0,0.7,0.3,0.7,0.7s-0.3,0.7-0.7,0.7H10
			C9.7,20.4,9.4,20.1,9.4,19.7C9.4,19.8,9.4,19.7,9.4,19.7z M9.4,17.7c0-0.4,0.3-0.6,0.7-0.6h3.9c0.4,0,0.7,0.3,0.7,0.7
			s-0.3,0.7-0.7,0.7H10C9.7,18.4,9.4,18.2,9.4,17.7C9.4,17.8,9.4,17.8,9.4,17.7z M12,22c-0.3,0-0.7-0.1-0.9-0.3
			c-0.2-0.2-0.4-0.4-0.4-0.7h2.6C13.2,21.6,12.6,22.1,12,22z"/>
	</g>
</g>
<rect y="0" class="st0" width="24" height="24"/>
</svg>
