<?xml version="1.0" encoding="utf-8"?>
<!-- Generator: Adobe Illustrator 20.1.0, SVG Export Plug-In . SVG Version: 6.00 Build 0)  -->
<svg version="1.1" id="Layer_1" xmlns="http://www.w3.org/2000/svg" xmlns:xlink="http://www.w3.org/1999/xlink" x="0px" y="0px"
	 viewBox="0 0 24 24" style="enable-background:new 0 0 24 24;" xml:space="preserve">
<style type="text/css">
	.st0{fill:none;}
</style>
<title>lightning</title>
<g id="EUXICONS">
	<g id="lightning">
		<path id="weather_storm" d="M16,11.1L13.7,15l4.6,0c1.8,0,3.3-1.3,3.6-3.1c0.2-2-1.2-3.7-3.1-4.2c0,0,0.4-5.1-4.3-5.7
			c-2.3-0.2-4.5,1.1-5.2,3.3c-0.8-0.7-2-0.8-2.9-0.2C5.6,5.7,5.1,6.7,5.3,7.7c-1.9,0.4-3.2,2-3.3,4C2.1,15.1,5.5,15,5.5,15h3.6
			l1.7-4L16,11.1z M11.4,11.8l-2.1,4.8h3L9.9,22l5.3-6.2h-2.8l2.3-4L11.4,11.8L11.4,11.8z"/>
	</g>
</g>
<rect y="0" class="st0" width="24" height="24"/>
</svg>
