<?xml version="1.0" encoding="utf-8"?>
<!-- Generator: Adobe Illustrator 20.1.0, SVG Export Plug-In . SVG Version: 6.00 Build 0)  -->
<svg version="1.1" id="Layer_1" xmlns="http://www.w3.org/2000/svg" xmlns:xlink="http://www.w3.org/1999/xlink" x="0px" y="0px"
	 viewBox="0 0 24 24" style="enable-background:new 0 0 24 24;" xml:space="preserve">
<style type="text/css">
	.st0{fill:none;}
</style>
<title>light_bulb_1</title>
<g>
	<path d="M14.7,10.9H14l1.3-2.8l0.2,0C15.8,8,16,7.6,15.8,7.3c-0.1-0.2-0.4-0.4-0.7-0.4L8.6,8.8C8.2,8.9,8,9.2,8,9.5
		c0,0.3,0.4,0.6,0.7,0.6c0.1,0,0.2,0,0.2-0.1l0.6-0.2l0.6,1.1H9.5c-0.7,0-1.3,0.6-1.3,1.2v2.6l1.3,2.1h5.2l1.3-2.1v-2.6
		C16,11.5,15.4,10.9,14.7,10.9z M12.7,10.9l-1.3,0l-0.8-1.4l3.2-0.9L12.7,10.9z"/>
	<path d="M15.2,5.1L8.6,7C8.5,7,8.5,7.1,8.4,7.1C8.1,7.4,8.1,7.8,8.3,8C8.5,8.2,8.7,8.2,9,8.2l6.6-1.9c0.2-0.1,0.4-0.4,0.4-0.6
		C15.9,5.3,15.5,5.1,15.2,5.1z"/>
	<path d="M9,6.3l6.6-1.9c0.2-0.1,0.4-0.4,0.4-0.6c0-0.3-0.4-0.6-0.7-0.6L8.6,5.2c-0.1,0-0.2,0.1-0.3,0.1c-0.3,0.2-0.3,0.6,0,0.9
		C8.5,6.3,8.7,6.4,9,6.3z"/>
	<path d="M9,4.5l4.4-1.3c0.1,0,0.2-0.1,0.3-0.2c0.3-0.2,0.2-0.6,0-0.9C13.4,2,13.2,2,12.9,2L8.6,3.3l0,0C8.3,3.5,8.1,3.8,8.2,4.1
		C8.3,4.4,8.7,4.6,9,4.5z"/>
	<path d="M14,19.2h-3.9c-0.4,0-0.7,0.3-0.7,0.6c0,0.3,0.3,0.6,0.7,0.6H14c0.4,0,0.7-0.3,0.7-0.6C14.7,19.5,14.4,19.2,14,19.2z"/>
	<path d="M14,17.3h-3.9c-0.4,0-0.7,0.3-0.7,0.6v0c0,0.3,0.3,0.6,0.7,0.6H14c0.4,0,0.7-0.3,0.7-0.6C14.7,17.6,14.4,17.3,14,17.3z"/>
	<path d="M11.1,21.7c0.3,0.2,0.6,0.3,0.9,0.3c0.6,0.1,1.2-0.3,1.3-0.9h-2.6C10.8,21.3,10.9,21.6,11.1,21.7z"/>
</g>
<rect y="0" class="st0" width="24" height="24"/>
</svg>
