<?xml version="1.0" encoding="utf-8"?>
<!-- Generator: Adobe Illustrator 20.1.0, SVG Export Plug-In . SVG Version: 6.00 Build 0)  -->
<svg version="1.1" id="Layer_1" xmlns="http://www.w3.org/2000/svg" xmlns:xlink="http://www.w3.org/1999/xlink" x="0px" y="0px"
	 viewBox="0 0 24 24" style="enable-background:new 0 0 24 24;" xml:space="preserve">
<style type="text/css">
	.st0{fill:none;}
</style>
<title>list</title>
<path d="M4.9,4.5v2.1C4.9,6.8,4.7,7,4.5,7H2.4C2.3,7,2.2,7,2.1,6.9C2,6.8,2,6.7,2,6.6V4.5c0-0.1,0-0.2,0.1-0.3
	c0.1-0.1,0.2-0.1,0.2-0.1h2.1c0.1,0,0.2,0,0.2,0.1C4.8,4.3,4.9,4.4,4.9,4.5z M4.9,8.8v2.1c0,0.2-0.2,0.4-0.4,0.4H2.4
	c-0.1,0-0.2,0-0.2-0.1C2,11.1,2,11,2,10.9V8.8c0-0.1,0-0.2,0.1-0.2c0.1-0.1,0.2-0.1,0.2-0.1h2.1C4.7,8.4,4.9,8.6,4.9,8.8z M4.9,13.1
	v2.1c0,0.1,0,0.2-0.1,0.2c-0.1,0.1-0.2,0.1-0.2,0.1H2.4c-0.1,0-0.2,0-0.2-0.1C2,15.4,2,15.3,2,15.2v-2.1c0-0.1,0-0.2,0.1-0.2
	c0.1-0.1,0.2-0.1,0.2-0.1h2.1C4.7,12.7,4.9,12.9,4.9,13.1L4.9,13.1z M4.9,17.3v2.1c0,0.2-0.2,0.4-0.4,0.4H2.4c-0.1,0-0.2,0-0.2-0.1
	C2,19.7,2,19.6,2,19.5v-2.1c0-0.1,0-0.2,0.1-0.2C2.2,17,2.3,17,2.4,17h2.1c0.1,0,0.2,0,0.2,0.1C4.8,17.2,4.9,17.3,4.9,17.3L4.9,17.3
	z M22,4.5v2.1C22,6.8,21.8,7,21.6,7h-15C6.4,7,6.3,6.8,6.3,6.6V4.5c0-0.1,0-0.2,0.1-0.3c0.1-0.1,0.2-0.1,0.3-0.1h15
	c0.1,0,0.2,0,0.2,0.1C22,4.3,22,4.4,22,4.5z M22,8.8v2.1c0,0.2-0.2,0.4-0.4,0.4h-15c-0.2,0-0.4-0.2-0.4-0.4V8.8
	c0-0.2,0.2-0.4,0.4-0.4h15C21.8,8.4,22,8.6,22,8.8z M22,13.1v2.1c0,0.2-0.2,0.4-0.4,0.4h-15c-0.2,0-0.4-0.2-0.4-0.4v-2.1
	c0-0.2,0.2-0.4,0.4-0.4h15C21.8,12.7,22,12.9,22,13.1L22,13.1z M22,17.3v2.1c0,0.2-0.2,0.4-0.4,0.4h-15c-0.2,0-0.4-0.2-0.4-0.4v-2.1
	c0-0.2,0.2-0.4,0.4-0.4h15C21.8,17,22,17.2,22,17.3L22,17.3z"/>
<rect y="0" class="st0" width="24" height="24"/>
</svg>
