<?xml version="1.0" encoding="utf-8"?>
<!-- Generator: Adobe Illustrator 20.1.0, SVG Export Plug-In . SVG Version: 6.00 Build 0)  -->
<svg version="1.1" id="Layer_1" xmlns="http://www.w3.org/2000/svg" xmlns:xlink="http://www.w3.org/1999/xlink" x="0px" y="0px"
	 viewBox="0 0 24 24" style="enable-background:new 0 0 24 24;" xml:space="preserve">
<style type="text/css">
	.st0{fill:none;}
</style>
<title>local_offer</title>
<path d="M21.4,11.6l-9-9C12,2.2,11.5,2,11,2H4C2.9,2,2,2.9,2,4v7c0,0.5,0.2,1,0.6,1.4l9,9C12,21.8,12.5,22,13,22
	c0.5,0,1-0.2,1.4-0.6l7-7C21.8,14,22,13.5,22,13C22,12.5,21.8,12,21.4,11.6z M5.5,7C4.7,7,4,6.3,4,5.5S4.7,4,5.5,4S7,4.7,7,5.5
	S6.3,7,5.5,7L5.5,7z"/>
<rect y="0" class="st0" width="24" height="24"/>
</svg>
