<?xml version="1.0" encoding="utf-8"?>
<!-- Generator: Adobe Illustrator 20.1.0, SVG Export Plug-In . SVG Version: 6.00 Build 0)  -->
<svg version="1.1" id="Layer_1" xmlns="http://www.w3.org/2000/svg" xmlns:xlink="http://www.w3.org/1999/xlink" x="0px" y="0px"
	 viewBox="0 0 24 24" style="enable-background:new 0 0 24 24;" xml:space="preserve">
<style type="text/css">
	.st0{fill:none;}
</style>
<title>lock_outline</title>
<g id="EUXICONS">
	<g id="lock_outline">
		<path id="Shape" d="M12,17.2c1,0,1.8-0.8,1.8-1.9S13,13.5,12,13.5s-1.8,0.8-1.8,1.9C10.2,16.4,11,17.2,12,17.2z M17.7,8.6h-0.9
			V6.8C16.7,4.1,14.6,2,12,2C9.4,2,7.3,4.1,7.3,6.8v1.9h-1c-1,0-1.8,0.8-1.8,1.9v9.6c0,1,0.8,1.9,1.8,1.9h11.3c1,0,1.8-0.8,1.8-1.9
			v-9.6C19.5,9.5,18.7,8.7,17.7,8.6L17.7,8.6z M9.1,6.8c0-1.6,1.3-3,2.9-3c1.6,0,2.9,1.3,2.9,3v1.9H9.1L9.1,6.8L9.1,6.8z M17.7,20.1
			H6.3v-9.6h11.3V20.1z"/>
	</g>
</g>
<rect y="0" class="st0" width="24" height="24"/>
</svg>
