<?xml version="1.0" encoding="utf-8"?>
<!-- Generator: Adobe Illustrator 20.1.0, SVG Export Plug-In . SVG Version: 6.00 Build 0)  -->
<svg version="1.1" id="Layer_1" xmlns="http://www.w3.org/2000/svg" xmlns:xlink="http://www.w3.org/1999/xlink" x="0px" y="0px"
	 viewBox="0 0 24 24" style="enable-background:new 0 0 24 24;" xml:space="preserve">
<style type="text/css">
	.st0{fill:none;}
</style>
<title>lock</title>
<g id="EUXICONS">
	<g id="lock">
		<path id="Shape" d="M17.6,8.7h-0.9V6.8C16.7,4.2,14.6,2,12,2C9.4,2,7.3,4.2,7.3,6.8v1.9h-1c-1,0-1.8,0.8-1.8,1.9v9.6
			c0,1,0.8,1.9,1.8,1.9h11.3c1,0,1.8-0.8,1.8-1.9v-9.6C19.5,9.5,18.6,8.7,17.6,8.7L17.6,8.7z M12,17.3c-1,0-1.8-0.8-1.8-1.9
			s0.8-1.9,1.8-1.9s1.8,0.8,1.8,1.9C13.8,16.4,13,17.2,12,17.3z M14.9,8.7H9.1V6.8c0-1.6,1.3-3,2.9-3s2.9,1.3,2.9,3L14.9,8.7
			L14.9,8.7z"/>
	</g>
</g>
<rect y="0" class="st0" width="24" height="24"/>
</svg>
