<?xml version="1.0" encoding="utf-8"?>
<!-- Generator: Adobe Illustrator 20.1.0, SVG Export Plug-In . SVG Version: 6.00 Build 0)  -->
<svg version="1.1" id="Layer_1" xmlns="http://www.w3.org/2000/svg" xmlns:xlink="http://www.w3.org/1999/xlink" x="0px" y="0px"
	 viewBox="0 0 24 24" style="enable-background:new 0 0 24 24;" xml:space="preserve">
<style type="text/css">
	.st0{fill:none;}
</style>
<title>map</title>
<g id="EUXICONS">
	<g id="map">
		<path id="Shape" d="M21.4,2l-0.2,0l-5.9,2.3L8.7,2L2.4,4.1C2.2,4.2,2,4.4,2,4.6v16.8C2,21.8,2.2,22,2.5,22c0,0,0,0,0,0l0.2,0
			l5.9-2.3l6.7,2.3l6.3-2.1c0.2-0.1,0.4-0.3,0.4-0.5V2.5C22,2.2,21.7,2,21.4,2z M15.3,19.8l-6.7-2.3V4.2l6.7,2.3V19.8z"/>
	</g>
</g>
<rect y="0" class="st0" width="24" height="24"/>
</svg>
