<?xml version="1.0" encoding="utf-8"?>
<!-- Generator: Adobe Illustrator 20.1.0, SVG Export Plug-In . SVG Version: 6.00 Build 0)  -->
<svg version="1.1" id="Layer_1" xmlns="http://www.w3.org/2000/svg" xmlns:xlink="http://www.w3.org/1999/xlink" x="0px" y="0px"
	 viewBox="0 0 24 24" style="enable-background:new 0 0 24 24;" xml:space="preserve">
<style type="text/css">
	.st0{fill:none;}
</style>
<title>payment_mastercard</title>
<g id="EUXICONS">
	<g id="payment_mastercard">
		<path id="Shape" d="M7.8,12.3H7.7c-0.3,0-0.4,0.1-0.4,0.3s0.1,0.2,0.2,0.2c0.1,0,0.2,0,0.2-0.1C7.8,12.6,7.8,12.4,7.8,12.3
			L7.8,12.3z M11.3,12h0.5l0,0c0,0,0,0,0-0.1v-0.1c0,0,0,0,0-0.1c0,0,0,0,0-0.1l-0.1,0c0,0-0.1,0-0.1,0C11.4,11.7,11.3,11.8,11.3,12
			L11.3,12z M15.9,12.3h-0.1c-0.3,0-0.4,0.1-0.4,0.3s0.1,0.2,0.2,0.2c0.1,0,0.2,0,0.2-0.1C15.9,12.6,15.9,12.4,15.9,12.3z
			 M18.7,12.1c0-0.2-0.1-0.4-0.3-0.4c-0.1,0-0.2,0.1-0.3,0.2c-0.1,0.1-0.1,0.3-0.1,0.4c0,0.2,0.1,0.4,0.2,0.4c0.1,0,0.2-0.1,0.3-0.2
			C18.7,12.4,18.7,12.3,18.7,12.1L18.7,12.1z M6.2,10.8h0.8l-0.4,2.3H6.1l0.3-1.7l-0.6,1.7H5.4l0-1.7l-0.3,1.7H4.6L5,10.9h0.7v1.4
			L6.2,10.8z M8.4,11.8c0,0,0,0.2,0,0.4c-0.1,0.6-0.1,0.9-0.1,1H7.8v-0.2c-0.1,0.1-0.3,0.2-0.5,0.2c-0.1,0-0.2,0-0.3-0.1
			c-0.1-0.1-0.1-0.2-0.1-0.4c0-0.2,0.1-0.4,0.2-0.5c0.2-0.1,0.4-0.2,0.6-0.2h0.2c0,0,0,0,0-0.1v-0.1c0-0.1-0.1-0.2-0.3-0.2
			c-0.2,0-0.3,0-0.5,0.1c0,0,0-0.2,0.1-0.4c0.2-0.1,0.4-0.1,0.6-0.1C8.1,11.2,8.3,11.4,8.4,11.8L8.4,11.8z M9.7,11.3l-0.1,0.4
			c-0.1,0-0.2,0-0.4,0c-0.2,0-0.2,0-0.2,0.1c0,0,0,0.1,0,0.1C9.2,12,9.2,12,9.3,12c0.2,0.1,0.4,0.3,0.3,0.5c0,0.4-0.3,0.6-0.8,0.6
			c-0.2,0-0.3,0-0.5-0.1c0,0,0-0.2,0.1-0.4c0.1,0,0.3,0.1,0.4,0.1c0.2,0,0.3-0.1,0.3-0.2c0,0,0-0.1,0-0.1c-0.1,0-0.1-0.1-0.2-0.1
			c-0.2-0.1-0.4-0.3-0.4-0.5c0-0.4,0.2-0.6,0.7-0.6C9.4,11.3,9.6,11.3,9.7,11.3L9.7,11.3z M10.5,11.3h0.3l-0.1,0.4h-0.2
			c0,0.1,0,0.2-0.1,0.3c0,0.1-0.1,0.2-0.1,0.3c0,0.1,0,0.1,0,0.2c0,0.1,0.1,0.1,0.2,0.1h0.1l-0.1,0.4c-0.1,0-0.2,0.1-0.3,0.1
			c-0.2,0-0.4-0.1-0.4-0.4c0-0.2,0-0.3,0.1-0.5c0-0.1,0.1-0.5,0.2-1.2h0.5L10.5,11.3z M12.2,11.9c0,0.2,0,0.3-0.1,0.4h-1
			c0,0.1,0,0.2,0.1,0.3c0.1,0.1,0.2,0.1,0.3,0.1c0.2,0,0.3,0,0.5-0.1l-0.1,0.5c-0.2,0-0.3,0.1-0.5,0.1c-0.4,0.1-0.8-0.2-0.8-0.6
			c0-0.1,0-0.1,0-0.2c0-0.3,0.1-0.5,0.2-0.8c0.1-0.2,0.4-0.3,0.6-0.3c0.2,0,0.4,0.1,0.5,0.2C12.2,11.6,12.3,11.8,12.2,11.9
			L12.2,11.9z M13.4,11.3c-0.1,0.2-0.2,0.4-0.2,0.5c-0.1,0-0.2,0.1-0.3,0.2c-0.1,0.4-0.2,0.7-0.2,1.1h-0.5V13
			c0.1-0.8,0.2-1.3,0.2-1.7H13v0.3c0.1-0.1,0.1-0.2,0.2-0.3C13.3,11.3,13.4,11.3,13.4,11.3L13.4,11.3z M15.1,10.9L15,11.4
			c-0.1-0.1-0.3-0.1-0.4-0.1c-0.2,0-0.3,0.1-0.4,0.2c-0.1,0.2-0.2,0.4-0.2,0.6c0,0.1,0,0.3,0.1,0.4c0.1,0.1,0.2,0.2,0.3,0.1
			c0.1,0,0.3,0,0.4-0.1l-0.1,0.5c-0.1,0-0.3,0.1-0.4,0.1c-0.2,0-0.5-0.1-0.6-0.3c-0.2-0.2-0.2-0.5-0.2-0.7c0-0.4,0.1-0.7,0.3-1
			c0.2-0.2,0.5-0.4,0.8-0.4C14.7,10.8,14.9,10.9,15.1,10.9L15.1,10.9z M16.5,11.8c0,0.1,0,0.2,0,0.4c-0.1,0.5-0.1,0.8-0.1,1h-0.4
			v-0.2c-0.1,0.2-0.3,0.2-0.5,0.2c-0.1,0-0.2,0-0.3-0.1c-0.1-0.1-0.1-0.2-0.1-0.4c0-0.2,0.1-0.4,0.2-0.5c0.2-0.1,0.4-0.2,0.6-0.2H16
			c0,0,0-0.1,0-0.1c0-0.1-0.1-0.2-0.3-0.2c-0.2,0-0.3,0-0.5,0.1c0,0,0-0.2,0.1-0.4c0.2-0.1,0.4-0.1,0.6-0.1
			C16.2,11.2,16.4,11.4,16.5,11.8L16.5,11.8z M17.7,11.3c-0.1,0.2-0.2,0.3-0.2,0.5c-0.1,0-0.2,0.1-0.3,0.2c-0.1,0.4-0.2,0.8-0.3,1.1
			h-0.5V13c0.1-0.6,0.2-1.2,0.2-1.7h0.4c0,0.1,0,0.2,0,0.3c0.1-0.1,0.1-0.2,0.2-0.3C17.5,11.3,17.6,11.3,17.7,11.3L17.7,11.3z
			 M19,10.9h0.5l-0.4,2.3h-0.5V13c-0.1,0.1-0.3,0.2-0.4,0.2c-0.2,0-0.3-0.1-0.4-0.2c-0.1-0.2-0.2-0.4-0.2-0.6c0-0.3,0.1-0.6,0.2-0.8
			c0.1-0.2,0.3-0.3,0.6-0.3c0.2,0,0.4,0.1,0.5,0.2L19,10.9z M19.9,12c0-2.6-2.1-4.7-4.7-4.7c-1,0-2,0.3-2.8,1
			c0.7,0.7,1.2,1.5,1.5,2.5h-0.4c-0.3-0.9-0.8-1.6-1.4-2.2c-0.7,0.6-1.1,1.3-1.4,2.2h-0.4c0.2-0.9,0.8-1.8,1.5-2.5
			C10.2,7.1,8.1,7,6.5,7.9c-2.3,1.3-3,4.2-1.7,6.5c0.4,0.7,1,1.3,1.7,1.7c1.6,0.9,3.7,0.8,5.2-0.3c-0.7-0.6-1.2-1.4-1.4-2.3h0.4
			c0.3,0.8,0.7,1.5,1.3,2c0.6-0.6,1.1-1.3,1.3-2h0.4c-0.3,0.9-0.8,1.7-1.4,2.3c2.1,1.6,5,1.2,6.6-0.9C19.5,14,19.9,13,19.9,12
			L19.9,12z M22,6.4v11.1c0,0.6-0.5,1.1-1.1,1.1H3.1c-0.3,0-0.6-0.1-0.8-0.3C2.1,18.1,2,17.9,2,17.6V6.4c0-0.3,0.1-0.6,0.3-0.8
			c0.2-0.2,0.5-0.3,0.8-0.3h17.8C21.5,5.3,22,5.8,22,6.4z"/>
	</g>
</g>
<rect y="0" class="st0" width="24" height="24"/>
</svg>
