<svg id="Layer_1" data-name="Layer 1" xmlns="http://www.w3.org/2000/svg" viewBox="0 0 24 24"><defs><style>.cls-1{fill:#231f20;}.cls-2{fill:none;}</style></defs><title>met_sku</title><polygon class="cls-1" points="15.43 7.44 13.37 7.44 13.37 6.12 15.28 6.12 15.28 4.61 13.37 4.61 13.37 3.51 15.43 3.51 15.43 2 11.64 2 11.64 8.98 15.43 8.98 15.43 7.44"/><path class="cls-1" d="M4.53,5.95q0-.71-.09-2h0L5.78,9H7.42L8.71,4h0Q8.7,5.1,8.69,5.39t0,.53V9h1.58V2H8L6.66,7h0L5.3,2H3V9H4.53Z"/><polygon class="cls-1" points="16.16 2 16.16 3.54 17.72 3.54 17.72 8.98 19.45 8.98 19.45 3.54 21 3.54 21 2 16.16 2"/><rect class="cls-1" x="10.24" y="10.74" width="0.62" height="2.52"/><rect class="cls-1" x="9.35" y="10.74" width="0.3" height="2.52"/><rect class="cls-1" x="4.51" y="10.74" width="0.3" height="2.52"/><rect class="cls-1" x="5.7" y="10.74" width="0.3" height="2.52"/><rect class="cls-1" x="6.58" y="10.74" width="0.61" height="2.52"/><rect class="cls-1" x="6.05" y="10.74" width="0.3" height="2.52"/><rect class="cls-1" x="15.68" y="10.74" width="0.92" height="2.52"/><rect class="cls-1" x="11.08" y="10.74" width="0.62" height="2.52"/><rect class="cls-1" x="13.55" y="10.74" width="0.62" height="2.52"/><rect class="cls-1" x="12.67" y="10.74" width="0.62" height="2.52"/><rect class="cls-1" x="14.48" y="10.74" width="0.62" height="2.52"/><rect class="cls-1" x="19.59" y="10.74" width="0.3" height="2.52"/><rect class="cls-1" x="16.91" y="10.74" width="0.31" height="2.52"/><rect class="cls-1" x="3.92" y="10.74" width="0.31" height="2.52"/><rect class="cls-1" x="19.06" y="10.74" width="0.31" height="2.52"/><rect class="cls-1" x="17.53" y="10.74" width="0.62" height="2.53"/><polygon class="cls-1" points="8.95 10.74 8.65 10.74 8.65 12.56 8.65 13.27 8.95 13.27 8.95 10.74"/><rect class="cls-1" x="20.29" y="10.74" width="0.61" height="2.52"/><rect class="cls-1" x="3" y="10.74" width="0.62" height="2.53"/><rect class="cls-1" x="7.94" y="10.74" width="0.3" height="2.52"/><polygon class="cls-1" points="14.49 14.37 12.8 14.37 10.85 16.93 10.24 17.81 10.24 14.37 8.72 14.37 8.72 21.9 10.24 21.9 10.24 19.21 10.89 18.72 12.78 21.9 14.51 21.9 11.98 17.7 14.49 14.37"/><path class="cls-1" d="M5.94,17.55A9.09,9.09,0,0,1,5,17a1.05,1.05,0,0,1-.3-.3.77.77,0,0,1,.14-.92,1,1,0,0,1,.67-.21,3,3,0,0,1,.74.1,7,7,0,0,1,1,.35l.49-1.24A7.16,7.16,0,0,0,6.6,14.4a4.06,4.06,0,0,0-1.07-.14,2.62,2.62,0,0,0-1.79.57,2,2,0,0,0-.65,1.57,2.06,2.06,0,0,0,.2.93,2.33,2.33,0,0,0,.53.7,4.4,4.4,0,0,0,1,.62,8.81,8.81,0,0,1,.93.51,1.35,1.35,0,0,1,.35.33.68.68,0,0,1,.12.39.7.7,0,0,1-.27.6,1.27,1.27,0,0,1-.77.2,3.51,3.51,0,0,1-.92-.14A8.18,8.18,0,0,1,3,20.06v1.48A4.43,4.43,0,0,0,5,22a3,3,0,0,0,2-.59,2,2,0,0,0,.7-1.61,2,2,0,0,0-.37-1.24A3.86,3.86,0,0,0,5.94,17.55Z"/><path class="cls-1" d="M19.48,19a2,2,0,0,1-.34,1.29,1.33,1.33,0,0,1-1.09.41,1.36,1.36,0,0,1-1.11-.41A2,2,0,0,1,16.61,19V14.37H15.08v4.85a2.7,2.7,0,0,0,.77,2A3,3,0,0,0,18,22a3.56,3.56,0,0,0,1.6-.33,2.36,2.36,0,0,0,1-1A2.91,2.91,0,0,0,21,19.24V14.37H19.48Z"/><rect class="cls-2" width="24" height="24"/></svg>