<?xml version="1.0" encoding="utf-8"?>
<!-- Generator: Adobe Illustrator 20.1.0, SVG Export Plug-In . SVG Version: 6.00 Build 0)  -->
<svg version="1.1" id="Layer_1" xmlns="http://www.w3.org/2000/svg" xmlns:xlink="http://www.w3.org/1999/xlink" x="0px" y="0px"
	 viewBox="0 0 24 24" style="enable-background:new 0 0 24 24;" xml:space="preserve">
<style type="text/css">
	.st0{fill:none;}
</style>
<title>mic</title>
<g id="EUXICONS">
	<g id="mic">
		<path id="Shape" d="M12,14.6c1.7,0,3.1-1.4,3.1-3.1c0,0,0,0,0,0V5.2C15.1,3.4,13.7,2,12,2S8.8,3.4,8.8,5.2v6.3
			c0,1.7,1.4,3.1,3.1,3.2C11.9,14.6,11.9,14.6,12,14.6L12,14.6z M17.6,11.5c-0.1,3-2.5,5.4-5.6,5.4c0,0,0,0,0,0
			c-3,0.1-5.5-2.3-5.6-5.3c0,0,0,0,0,0H4.6c0.1,3.6,2.8,6.6,6.3,7.1V22h2.1v-3.4c3.6-0.5,6.2-3.5,6.3-7.1L17.6,11.5z"/>
	</g>
</g>
<rect y="0" class="st0" width="24" height="24"/>
</svg>
