<?xml version="1.0" encoding="utf-8"?>
<!-- Generator: Adobe Illustrator 20.1.0, SVG Export Plug-In . SVG Version: 6.00 Build 0)  -->
<svg version="1.1" id="Layer_1" xmlns="http://www.w3.org/2000/svg" xmlns:xlink="http://www.w3.org/1999/xlink" x="0px" y="0px"
	 viewBox="0 0 24 24" style="enable-background:new 0 0 24 24;" xml:space="preserve">
<style type="text/css">
	.st0{fill:none;}
</style>
<title>mic_off</title>
<g id="EUXICONS">
	<g id="mic_off">
		<path id="Shape" d="M19.8,11.4h-1.9c0,0.8-0.2,1.6-0.5,2.3l1.4,1.4C19.4,14,19.8,12.7,19.8,11.4z M15.3,11.6c0-0.1,0-0.1,0-0.2
			V4.8c0-1.8-1.5-3.3-3.3-3.3S8.6,2.9,8.6,4.8V5L15.3,11.6L15.3,11.6z M3.4,2.6L2,4l6.7,6.7v0.8c0,1.8,1.4,3.3,3.3,3.3c0,0,0,0,0,0
			c0.2,0,0.5,0,0.7-0.1l1.8,1.8c-0.8,0.4-1.7,0.6-2.6,0.6c-3.2,0.1-5.8-2.5-5.9-5.6c0,0,0,0,0,0H4.2c0.1,3.8,2.9,6.9,6.7,7.5v3.6
			h2.2v-3.6c1-0.1,2-0.5,2.8-1l4.7,4.6l1.4-1.4L3.4,2.6z"/>
	</g>
</g>
<rect y="0" class="st0" width="24" height="24"/>
</svg>
