<?xml version="1.0" encoding="utf-8"?>
<!-- Generator: Adobe Illustrator 20.1.0, SVG Export Plug-In . SVG Version: 6.00 Build 0)  -->
<svg version="1.1" id="Layer_1" xmlns="http://www.w3.org/2000/svg" xmlns:xlink="http://www.w3.org/1999/xlink" x="0px" y="0px"
	 viewBox="0 0 24 24" style="enable-background:new 0 0 24 24;" xml:space="preserve">
<style type="text/css">
	.st0{fill:none;}
</style>
<title>microwave</title>
<g>
	<path d="M2.6,5.6C2.2,5.6,2,5.9,2,6.2v11.7c0,0.3,0.2,0.6,0.6,0.6h13.9V5.6H2.6z M14.2,15.6c0,0.3-0.2,0.6-0.6,0.6H4.8
		c-0.3,0-0.6-0.3-0.6-0.6V8.4c0-0.3,0.2-0.6,0.6-0.6c0,0,0,0,0,0h8.9c0.3,0,0.6,0.2,0.6,0.6V15.6z"/>
	<path d="M21.4,5.6H17v12.8h4.4c0.3,0,0.6-0.2,0.6-0.6V6.2C22,5.9,21.8,5.6,21.4,5.6z M19.5,13c-0.4,0-0.8-0.3-0.8-0.8
		c0-0.4,0.3-0.8,0.8-0.8c0.4,0,0.8,0.3,0.8,0.8l0,0C20.3,12.7,19.9,13,19.5,13z M20.9,9.5h-2.8V7.8h2.8L20.9,9.5z"/>
</g>
<rect y="0" class="st0" width="24" height="24"/>
</svg>
