<?xml version="1.0" encoding="utf-8"?>
<!-- Generator: Adobe Illustrator 20.1.0, SVG Export Plug-In . SVG Version: 6.00 Build 0)  -->
<svg version="1.1" id="Layer_1" xmlns="http://www.w3.org/2000/svg" xmlns:xlink="http://www.w3.org/1999/xlink" x="0px" y="0px"
	 viewBox="0 0 24 24" style="enable-background:new 0 0 24 24;" xml:space="preserve">
<style type="text/css">
	.st0{fill:none;}
</style>
<title>mobile_setttings</title>
<g id="EUXICONS">
	<g id="settings_mobile">
		<path id="Shape" d="M11.8,12.5v-0.9l1-0.7c0.1-0.1,0.1-0.2,0.1-0.3L12,9c-0.1-0.1-0.2-0.2-0.3-0.1l-1.2,0.4
			C10.3,9.1,10,8.9,9.7,8.8L9.6,7.6c0-0.1-0.1-0.2-0.3-0.2H7.5c-0.1,0-0.2,0.1-0.3,0.2L7,8.8C6.7,8.9,6.5,9.1,6.2,9.3L5,8.8
			c-0.1,0-0.2,0-0.3,0.1l-0.9,1.5c-0.1,0.1,0,0.2,0.1,0.3l1,0.7v0.9l-1,0.7c-0.1,0.1-0.1,0.2-0.1,0.4L4.7,15
			c0.1,0.1,0.2,0.2,0.3,0.1l1.2-0.4c0.3,0.2,0.5,0.3,0.8,0.5l0.2,1.2c-0.1,0.1,0.1,0.2,0.2,0.2h1.8c0.1,0,0.2-0.1,0.3-0.2l0.2-1.2
			c0.3-0.1,0.6-0.3,0.8-0.5l1.2,0.5c0.1,0,0.2,0,0.3-0.1l0.9-1.5c0.1-0.1,0-0.2-0.1-0.3L11.8,12.5L11.8,12.5z M8.4,13.8
			c-1,0-1.8-0.8-1.8-1.8s0.8-1.8,1.8-1.8s1.8,0.8,1.8,1.8c0,0,0,0,0,0C10.2,13,9.4,13.8,8.4,13.8z M18.4,2H9.3c-1,0-1.8,0.8-1.8,1.8
			v2.7h1.8V4.7h9.1v14.5H9.3v-1.8H7.5v2.7c0,1,0.8,1.8,1.8,1.8h9.1c1,0,1.8-0.8,1.8-1.8V3.8C20.2,2.8,19.4,2,18.4,2z"/>
	</g>
</g>
<rect y="0" class="st0" width="24" height="24"/>
</svg>
