<?xml version="1.0" encoding="utf-8"?>
<!-- Generator: Adobe Illustrator 20.1.0, SVG Export Plug-In . SVG Version: 6.00 Build 0)  -->
<svg version="1.1" id="Layer_1" xmlns="http://www.w3.org/2000/svg" xmlns:xlink="http://www.w3.org/1999/xlink" x="0px" y="0px"
	 viewBox="0 0 24 24" style="enable-background:new 0 0 24 24;" xml:space="preserve">
<style type="text/css">
	.st0{fill:none;}
</style>
<title>more_vertical</title>
<g id="Icons">
	<g id="Icons_Navigation_More-Vertical">
		<path id="Shape" d="M12,7c1.4,0,2.5-1.1,2.5-2.5S13.4,2,12,2S9.5,3.1,9.5,4.5S10.6,7,12,7z M12,9.5c-1.4,0-2.5,1.1-2.5,2.5
			s1.1,2.5,2.5,2.5s2.5-1.1,2.5-2.5S13.4,9.5,12,9.5z M12,17c-1.4,0-2.5,1.1-2.5,2.5S10.6,22,12,22s2.5-1.1,2.5-2.5S13.4,17,12,17z"
			/>
	</g>
</g>
<rect y="0" class="st0" width="24" height="24"/>
</svg>
