<?xml version="1.0" encoding="utf-8"?>
<!-- Generator: Adobe Illustrator 20.1.0, SVG Export Plug-In . SVG Version: 6.00 Build 0)  -->
<svg version="1.1" id="Layer_1" xmlns="http://www.w3.org/2000/svg" xmlns:xlink="http://www.w3.org/1999/xlink" x="0px" y="0px"
	 viewBox="0 0 24 24" style="enable-background:new 0 0 24 24;" xml:space="preserve">
<style type="text/css">
	.st0{fill:none;}
</style>
<title>more_horizontal</title>
<path d="M4.5,9.5C3.1,9.5,2,10.6,2,12s1.1,2.5,2.5,2.5S7,13.4,7,12S5.9,9.5,4.5,9.5z M19.5,9.5c-1.4,0-2.5,1.1-2.5,2.5
	s1.1,2.5,2.5,2.5S22,13.4,22,12S20.9,9.5,19.5,9.5z M12,9.5c-1.4,0-2.5,1.1-2.5,2.5s1.1,2.5,2.5,2.5s2.5-1.1,2.5-2.5
	S13.4,9.5,12,9.5z"/>
<rect y="0" class="st0" width="24" height="24"/>
</svg>
