<?xml version="1.0" encoding="utf-8"?>
<!-- Generator: Adobe Illustrator 20.1.0, SVG Export Plug-In . SVG Version: 6.00 Build 0)  -->
<svg version="1.1" id="Layer_1" xmlns="http://www.w3.org/2000/svg" xmlns:xlink="http://www.w3.org/1999/xlink" x="0px" y="0px"
	 viewBox="0 0 24 24" style="enable-background:new 0 0 24 24;" xml:space="preserve">
<style type="text/css">
	.st0{fill:none;}
</style>
<title>mower</title>
<g id="EUXICONS">
	<g id="mower">
		<path id="Combined-Shape" d="M5.1,17L5.1,17l-0.1-0.1l-0.1-0.1l-0.1-0.1l-0.1,0l-0.1,0H4.5c-0.1,0-0.1,0-0.2,0c-0.1,0-0.1,0-0.2,0
			H4l-0.1,0l-0.1,0l-0.1,0.1l-0.1,0.1l-0.1,0L3.5,17l0,0c-0.4,0.4-0.4,1.1,0.1,1.5c0.4,0.4,1.1,0.4,1.5-0.1
			C5.5,18.1,5.5,17.4,5.1,17L5.1,17z M14.5,8.9L5.9,9.6v1.7h8.6V8.9z M14.6,12.7h-7v1.8H2v3.1h0c0.1-1.2,1.3-2.1,2.5-2
			c1,0.1,1.8,0.9,2,2h0.9v0.9h6.5v-0.9H15c-0.1-0.4-0.2-0.8-0.2-1.2c0-0.6,0.1-1.3,0.5-1.8c1.5-1.8,6.7-6.9,6.7-6.9V5.2L14.6,12.7z
			 M18.5,13.7c-1.4,0-2.6,1.1-2.6,2.6c0,1.4,1.1,2.6,2.6,2.6s2.6-1.1,2.6-2.6c0,0,0,0,0,0C21.1,14.8,19.9,13.7,18.5,13.7L18.5,13.7z
			"/>
	</g>
</g>
<rect y="0" class="st0" width="24" height="24"/>
</svg>
