<?xml version="1.0" encoding="utf-8"?>
<!-- Generator: Adobe Illustrator 20.1.0, SVG Export Plug-In . SVG Version: 6.00 Build 0)  -->
<svg version="1.1" id="Layer_1" xmlns="http://www.w3.org/2000/svg" xmlns:xlink="http://www.w3.org/1999/xlink" x="0px" y="0px"
	 viewBox="0 0 24 24" style="enable-background:new 0 0 24 24;" xml:space="preserve">
<style type="text/css">
	.st0{fill:none;}
</style>
<title>nav_my_projects</title>
<desc>Created with Sketch.</desc>
<g>
	<path d="M13,13.8h-2.1v-0.6H7.1v2.2c0,0.6,0.5,1.1,1.1,1.1h7.6c0.6,0,1.1-0.5,1.1-1.1v-2.2H13V13.8z"/>
	<path d="M16.4,8.9h-2.2V7.8l-1.1-1.1h-2.2L9.9,7.8v1.1H7.6C7,8.9,6.6,9.4,6.6,9.9v1.6c0,0.6,0.5,1.1,1.1,1.1h3.3v-1.1h2.2v1.1h3.3
		c0.6,0,1.1-0.5,1.1-1.1V9.9C17.4,9.4,17,8.9,16.4,8.9z M13.1,8.9h-2.2V7.8h2.2V8.9z"/>
	<path d="M12,2C6.5,2,2,6.5,2,12s4.5,10,10,10s10-4.5,10-10S17.5,2,12,2z M12,20c-4.4,0-8-3.6-8-8s3.6-8,8-8s8,3.6,8,8
		S16.4,20,12,20z"/>
</g>
<rect class="st0" width="24" height="24"/>
</svg>
