<svg id="Layer_1" data-name="Layer 1" xmlns="http://www.w3.org/2000/svg" viewBox="0 0 24 24"><defs><style>.cls-1{fill:none;}</style></defs><title>nav_top_30</title><rect class="cls-1" width="24" height="24"/><path d="M10.78,10a1.74,1.74,0,0,0,.91-1.56A2.24,2.24,0,0,0,9.37,6.28,2.33,2.33,0,0,0,6.91,8.56h2v0c0-.07,0-.58.41-.58s.42.4.42.65c0,.59-.29.77-.83.77H8.63v1.59h.28a.8.8,0,0,1,.9.83c0,.36-.16.68-.56.68-.24,0-.46-.17-.49-.58v-.13h-2a2.26,2.26,0,0,0,2.46,2.35,2.36,2.36,0,0,0,2.59-2.25A1.9,1.9,0,0,0,10.78,10Z"/><path d="M14.58,6.28c-2.1,0-2.67,2.23-2.67,3.9s.57,3.9,2.67,3.9,2.67-2.23,2.67-3.9S16.67,6.28,14.58,6.28Zm0,6.06c-.62,0-.66-1.31-.66-2.16S14,8,14.58,8s.66,1.31.66,2.16S15.2,12.33,14.58,12.33Z"/><path d="M12,2A10,10,0,1,0,22,12,10,10,0,0,0,12,2Zm4.4,16.67L12,14.58,7.6,18.67a8,8,0,1,1,8.81,0Z"/></svg>