<?xml version="1.0" encoding="utf-8"?>
<!-- Generator: Adobe Illustrator 20.1.0, SVG Export Plug-In . SVG Version: 6.00 Build 0)  -->
<svg version="1.1" id="Layer_1" xmlns="http://www.w3.org/2000/svg" xmlns:xlink="http://www.w3.org/1999/xlink" x="0px" y="0px"
	 viewBox="0 0 24 24" style="enable-background:new 0 0 24 24;" xml:space="preserve">
<style type="text/css">
	.st0{fill:none;}
</style>
<title>nav_hd_online</title>
<desc>Created with Sketch.</desc>
<g>
	<polygon points="17.3,12.7 13.6,11.4 14.8,15.2 15.7,14.2 16.9,15.4 17.6,14.8 16.4,13.6 	"/>
	<polygon points="13.6,13.9 8.2,13.9 8.2,8.1 15.8,8.1 15.8,11.4 16.9,11.7 16.9,7.2 7.3,7.2 7.3,14.9 13.9,14.9 	"/>
	<rect x="8.7" y="15.9" width="6.1" height="1"/>
	<path d="M12,2C6.5,2,2,6.5,2,12s4.5,10,10,10s10-4.5,10-10S17.5,2,12,2z M12,20c-4.4,0-8-3.6-8-8s3.6-8,8-8s8,3.6,8,8
		S16.4,20,12,20z"/>
</g>
<rect class="st0" width="24" height="24"/>
</svg>
