<?xml version="1.0" encoding="utf-8"?>
<!-- Generator: Adobe Illustrator 20.1.0, SVG Export Plug-In . SVG Version: 6.00 Build 0)  -->
<svg version="1.1" id="Layer_1" xmlns="http://www.w3.org/2000/svg" xmlns:xlink="http://www.w3.org/1999/xlink" x="0px" y="0px"
	 viewBox="0 0 24 24" style="enable-background:new 0 0 24 24;" xml:space="preserve">
<style type="text/css">
	.st0{fill:none;}
</style>
<title>nav_appliance_ordering</title>
<g>
	<path d="M12,2C6.5,2,2,6.5,2,12s4.5,10,10,10s10-4.5,10-10S17.5,2,12,2z M12.1,20C12.1,20,12.1,20,12.1,20L12.1,20
		C7.6,20,4,16.4,4,12c0-4.4,3.6-8,8-8c4.4,0,8,3.6,8,8C20,16.4,16.5,20,12.1,20z"/>
	<path d="M13.5,11.5l-3.1,3.1c0.8,0.9,2.2,1,3.1,0.1c0.9-0.8,1-2.2,0.1-3.1C13.6,11.6,13.6,11.6,13.5,11.5z"/>
	<path d="M15.3,6.6C15.3,6.6,15.3,6.6,15.3,6.6l-6.6,0C8.1,6.5,7.6,7,7.6,7.6c0,0,0,0,0,0v8.8c0,0.6,0.5,1.1,1.1,1.1h6.6
		c0.6,0,1.1-0.5,1.1-1.1c0,0,0,0,0,0V7.6C16.4,7,15.9,6.5,15.3,6.6z M10.9,7.6c0.3,0,0.5,0.2,0.5,0.5s-0.2,0.5-0.5,0.5
		s-0.5-0.2-0.5-0.5S10.6,7.6,10.9,7.6z M9.3,7.6c0.3,0,0.5,0.2,0.5,0.5S9.6,8.7,9.3,8.7C9,8.7,8.7,8.5,8.7,8.2S9,7.6,9.3,7.6z
		 M12,16.4c-1.8,0-3.3-1.5-3.3-3.3c0-1.8,1.5-3.3,3.3-3.3s3.3,1.5,3.3,3.3C15.3,14.9,13.8,16.4,12,16.4z"/>
</g>
<rect y="0" class="st0" width="24" height="24"/>
</svg>
