<?xml version="1.0" encoding="utf-8"?>
<!-- Generator: Adobe Illustrator 20.1.0, SVG Export Plug-In . SVG Version: 6.00 Build 0)  -->
<svg version="1.1" id="Layer_1" xmlns="http://www.w3.org/2000/svg" xmlns:xlink="http://www.w3.org/1999/xlink" x="0px" y="0px"
	 viewBox="0 0 24 24" style="enable-background:new 0 0 24 24;" xml:space="preserve">
<style type="text/css">
	.st0{fill:none;}
</style>
<title>nav_myapron</title>
<desc>Created with Sketch.</desc>
<g>
	<path d="M17.4,13.2c0-0.8-0.2-1.6-1.2-1.8c-0.1,0-0.1,0-0.2-0.1c-0.2-0.1-0.8-0.3-1.1-0.9c-0.1-0.3-0.3-0.7-0.4-1.3L14,6.9
		c-0.2-0.9-1-1.6-1.9-1.6s-1.7,0.7-1.9,1.6L9.9,8.1L9.7,9c-0.1,0.6-0.3,1-0.4,1.3c-0.3,0.7-0.9,0.9-1.1,1c-0.1,0-0.1,0-0.2,0.1
		c-0.9,0.3-1.2,0.9-1.2,1.7v0.1c0,0.6-0.4,0.7-0.7,0.7v1.1c0.7,0,1.7-0.5,1.7-1.7v-0.1c0,0,0,0,0-0.1V13c0-0.2,0.1-0.5,0.8-0.5v4.9
		h7.1l-0.1-4.9c0.7,0.1,0.8,0.4,0.8,0.5v0.1c0,0,0,0,0,0.1v0.1c0,1.3,1.1,1.7,1.7,1.7v-1.1C17.9,13.9,17.4,13.9,17.4,13.2z
		 M10.7,9.4L11,7.3c0.1-0.5,0.5-0.9,1-0.9s0.9,0.4,1.1,0.9l0.3,2.2H10.7z"/>
	<path d="M12,2C6.5,2,2,6.5,2,12s4.5,10,10,10s10-4.5,10-10S17.5,2,12,2z M12,20c-4.4,0-8-3.6-8-8s3.6-8,8-8s8,3.6,8,8
		S16.4,20,12,20z"/>
</g>
<rect class="st0" width="24" height="24"/>
</svg>
