<?xml version="1.0" encoding="utf-8"?>
<!-- Generator: Adobe Illustrator 20.1.0, SVG Export Plug-In . SVG Version: 6.00 Build 0)  -->
<svg version="1.1" id="Layer_1" xmlns="http://www.w3.org/2000/svg" xmlns:xlink="http://www.w3.org/1999/xlink" x="0px" y="0px"
	 viewBox="0 0 24 24" style="enable-background:new 0 0 24 24;" xml:space="preserve">
<style type="text/css">
	.st0{fill:none;}
</style>
<title>nav_pro_paint</title>
<g>
	<polygon points="15.8,7.9 15.8,7.2 7,7.2 7,9.7 15.8,9.7 15.8,8.9 16.8,8.9 16.8,10.6 11.4,10.6 11.4,12.6 11.1,12.6 11.1,18 
		12.8,18 12.8,12.6 12.4,12.6 12.4,11.6 17.8,11.6 17.8,7.9 	"/>
	<path d="M12,2C6.5,2,2,6.5,2,12s4.5,10,10,10s10-4.5,10-10S17.5,2,12,2z M12.1,20C12.1,20,12.1,20,12.1,20L12.1,20
		C7.6,20,4,16.4,4,12c0-4.4,3.6-8,8-8c4.4,0,8,3.6,8,8C20,16.4,16.5,20,12.1,20z"/>
</g>
<rect class="st0" width="24" height="24"/>
</svg>
