<?xml version="1.0" encoding="utf-8"?>
<!-- Generator: Adobe Illustrator 20.1.0, SVG Export Plug-In . SVG Version: 6.00 Build 0)  -->
<svg version="1.1" id="Layer_1" xmlns="http://www.w3.org/2000/svg" xmlns:xlink="http://www.w3.org/1999/xlink" x="0px" y="0px"
	 viewBox="0 0 24 24" style="enable-background:new 0 0 24 24;" xml:space="preserve">
<style type="text/css">
	.st0{fill:none;}
</style>
<title>nav_delivery_tracks</title>
<desc>Created with Sketch.</desc>
<g>
	<path d="M19.8,8.6l0.9-1.2H9.3c-0.1,0-0.2,0.1-0.3,0.1C8.9,7.6,8.9,7.6,8.9,7.8v1.2H7.9c-0.1,0-0.3,0-0.4,0.1
		C7.4,9.1,7.3,9.1,7.3,9.2L6,10.4c-0.1,0.1-0.1,0.1-0.1,0.2c-0.1,0.1-0.1,0.1-0.1,0.2c-0.1,0.1-0.1,0.1-0.1,0.2c0,0.1,0,0.2,0,0.2
		c0,0.1,0,0.1,0,0.2c0,0.1,0,0.2,0,0.2v2H5l0.8,0.8h0.8c0,0.4,0.1,0.8,0.4,1.1S7.7,16,8.1,16s0.8-0.1,1.1-0.4s0.4-0.7,0.4-1.1h2.4
		c0,0.4,0.1,0.8,0.4,1.1s0.7,0.4,1.1,0.4c0.4,0,0.8-0.1,1.1-0.4s0.4-0.7,0.4-1.1c0-0.4-0.1-0.6-0.1-0.6h0.7l0.8-1.1h-1.4l0.4-0.6
		h1.4l0.8-1h-1.6l0.6-0.8h1.6l0.8-1h-1.9l0.6-0.9H19.8z M6.5,11.3v-0.2c0-0.1,0-0.1,0.1-0.1l1.2-1.2c0.1-0.1,0.1-0.1,0.1-0.1h1v1.6
		H6.5z M8.7,15c-0.2,0.2-0.3,0.3-0.6,0.3c-0.2,0-0.4-0.1-0.6-0.3c-0.2-0.2-0.3-0.3-0.3-0.6c0-0.2,0.1-0.4,0.3-0.6
		c0.2-0.2,0.3-0.3,0.6-0.3c0.2,0,0.4,0.1,0.6,0.3s0.2,0.3,0.2,0.6C8.9,14.7,8.8,14.9,8.7,15z M14.2,15c-0.2,0.2-0.3,0.3-0.6,0.3
		c-0.2,0-0.4-0.1-0.6-0.3s-0.3-0.3-0.3-0.6c0-0.2,0.1-0.4,0.3-0.6s0.3-0.3,0.6-0.3c0.2,0,0.4,0.1,0.6,0.3s0.3,0.3,0.3,0.6
		C14.4,14.7,14.4,14.9,14.2,15z"/>
	<path d="M21.4,8.7l-1.6,2.1c0.1,0.4,0.1,0.8,0.1,1.2c0,4.4-3.6,8-8,8s-8-3.6-8-8s3.6-8,8-8c2.1,0,4,0.8,5.4,2.1h2.7
		C18.2,3.6,15.3,2,12,2C6.5,2,2,6.5,2,12s4.5,10,10,10s10-4.5,10-10C22,10.8,21.8,9.8,21.4,8.7z"/>
</g>
<rect class="st0" width="24" height="24"/>
</svg>
