<?xml version="1.0" encoding="utf-8"?>
<!-- Generator: Adobe Illustrator 20.1.0, SVG Export Plug-In . SVG Version: 6.00 Build 0)  -->
<svg version="1.1" id="Layer_1" xmlns="http://www.w3.org/2000/svg" xmlns:xlink="http://www.w3.org/1999/xlink" x="0px" y="0px"
	 viewBox="0 0 24 24" style="enable-background:new 0 0 24 24;" xml:space="preserve">
<style type="text/css">
	.st0{fill:none;}
</style>
<title>nav_quote_center</title>
<g>
	<path d="M12.2,14.6c0.8-0.8,1.2-1.9,1.1-3.1c0-3.2-2.2-4-3.8-4s-3.8,0.9-3.8,4c0,3,2.2,4,3.8,4c0.4,0,0.7,0,1.1-0.1
		c0.4,0.3,0.7,0.7,1,1H14C14,16.4,12.2,14.6,12.2,14.6z M9.6,14c-0.9,0-2-0.6-2-2.6c0-1.9,1.2-2.6,2-2.6c0.8,0,2,0.5,2,2.6
		C11.6,13.6,10.4,14,9.6,14z"/>
	<path d="M12,2C6.5,2,2,6.5,2,12s4.5,10,10,10s10-4.5,10-10S17.5,2,12,2z M12.1,20C12,20,12,20,12.1,20C7.6,20,4,16.4,4,12
		c0-4.4,3.6-8,8-8c4.4,0,8,3.6,8,8C20,16.4,16.5,20,12.1,20z"/>
	<path d="M16.6,10.1h0.4l0.9-0.9c-0.7-1-1.9-1.5-3.1-1.5c-0.6,0-1.2,0.1-1.7,0.4c0.3,0.4,0.6,0.9,0.8,1.4C14.8,9,15.9,9.3,16.6,10.1
		z"/>
	<path d="M16.9,12.9h-0.3c-0.7,0.9-1.9,1.2-2.9,0.7c-0.2,0.5-0.5,1-0.9,1.3c0.6,0.3,1.2,0.4,1.8,0.4c1.2,0,2.4-0.6,3.1-1.6
		L16.9,12.9z"/>
</g>
<rect class="st0" width="24" height="24"/>
</svg>
