<?xml version="1.0" encoding="utf-8"?>
<!-- Generator: Adobe Illustrator 20.1.0, SVG Export Plug-In . SVG Version: 6.00 Build 0)  -->
<svg version="1.1" id="Layer_1" xmlns="http://www.w3.org/2000/svg" xmlns:xlink="http://www.w3.org/1999/xlink" x="0px" y="0px"
	 viewBox="0 0 24 24" style="enable-background:new 0 0 24 24;" xml:space="preserve">
<style type="text/css">
	.st0{fill:none;}
</style>
<title>nav_credit_card_services</title>
<g>
	<rect x="8" y="14.4" width="1.5" height="0.8"/>
	<rect x="10.2" y="14.4" width="2.3" height="0.8"/>
	<path d="M17.5,7.8c-0.2-0.2-0.4-0.3-0.7-0.3H7.4c-0.3,0-0.5,0.1-0.7,0.3C6.5,8,6.4,8.3,6.4,8.5v7.2c0,0.3,0.1,0.5,0.3,0.7
		c0.2,0.2,0.4,0.3,0.7,0.3h9.4c0.3,0,0.5-0.1,0.7-0.3c0.2-0.2,0.3-0.4,0.3-0.7V8.5C17.8,8.3,17.7,8,17.5,7.8z M17,15.8
		c0,0,0,0.1-0.1,0.1c0,0-0.1,0.1-0.1,0.1H7.4c0,0-0.1,0-0.1-0.1c0,0-0.1-0.1-0.1-0.1v-3.6H17V15.8z M17,9.8H7.2V8.5
		c0,0,0-0.1,0.1-0.1c0,0,0.1-0.1,0.1-0.1h9.4c0,0,0.1,0,0.1,0.1c0,0,0.1,0.1,0.1,0.1L17,9.8z"/>
	<path d="M12,2C6.5,2,2,6.5,2,12s4.5,10,10,10s10-4.5,10-10S17.5,2,12,2z M12.1,20C12,20,12,20,12.1,20C7.6,20,4,16.4,4,12
		c0-4.4,3.6-8,8-8c4.4,0,8,3.6,8,8C20,16.4,16.5,20,12.1,20z"/>
</g>
<rect class="st0" width="24" height="24"/>
</svg>
