<?xml version="1.0" encoding="utf-8"?>
<!-- Generator: Adobe Illustrator 20.1.0, SVG Export Plug-In . SVG Version: 6.00 Build 0)  -->
<svg version="1.1" id="Layer_1" xmlns="http://www.w3.org/2000/svg" xmlns:xlink="http://www.w3.org/1999/xlink" x="0px" y="0px"
	 viewBox="0 0 24 24" style="enable-background:new 0 0 24 24;" xml:space="preserve">
<style type="text/css">
	.st0{fill:none;}
</style>
<title>nav_heatmap</title>
<desc>Created with Sketch.</desc>
<path d="M10.8,11.6L9.1,9.5c0,0,1.6-1.6,2.6-2.5c1.1-1.1,3-1.1,3.8-0.2c0.6,0.7,0.5,2-0.6,2.7C13.1,10.6,12.6,10.1,10.8,11.6
	L10.8,11.6L10.8,11.6L10.8,11.6z"/>
<path d="M12.8,12.1c-1.5,1.1-1.7,1.9-3.2,2.9l1.3,2.4c1.5-0.8,2.1-1,3.2-1.6c1.4-0.7,2-2.4,1.4-3.4C15.1,11.6,13.8,11.3,12.8,12.1
	L12.8,12.1L12.8,12.1L12.8,12.1z"/>
<path d="M10.2,12l-1.7-1.9c0,0-1.1,1.1-0.3,2C9,12.9,10.2,12,10.2,12L10.2,12L10.2,12L10.2,12z"/>
<path d="M8,17.4c0.6,1.1,2,0.4,2,0.4l-1.2-2.2C8.8,15.5,7.6,16.3,8,17.4L8,17.4L8,17.4L8,17.4z"/>
<path d="M12,2C6.5,2,2,6.5,2,12s4.5,10,10,10s10-4.5,10-10S17.5,2,12,2z M12,20c-4.4,0-8-3.6-8-8s3.6-8,8-8s8,3.6,8,8S16.4,20,12,20
	z"/>
<rect class="st0" width="24" height="24"/>
</svg>
