<?xml version="1.0" encoding="utf-8"?>
<!-- Generator: Adobe Illustrator 20.1.0, SVG Export Plug-In . SVG Version: 6.00 Build 0)  -->
<svg version="1.1" id="Layer_1" xmlns="http://www.w3.org/2000/svg" xmlns:xlink="http://www.w3.org/1999/xlink" x="0px" y="0px"
	 viewBox="0 0 24 24" style="enable-background:new 0 0 24 24;" xml:space="preserve">
<style type="text/css">
	.st0{fill:none;}
</style>
<title>nav_dashboard</title>
<desc>Created with Sketch.</desc>
<g>
	<rect x="7.2" y="7.2" width="4.2" height="5.4"/>
	<rect x="7.2" y="13.6" width="4.2" height="3.2"/>
	<rect x="12.6" y="11.4" width="4.2" height="5.4"/>
	<rect x="12.6" y="7.2" width="4.2" height="3.2"/>
	<path d="M12,2C6.5,2,2,6.5,2,12s4.5,10,10,10s10-4.5,10-10S17.5,2,12,2z M12,20c-4.4,0-8-3.6-8-8s3.6-8,8-8s8,3.6,8,8
		S16.4,20,12,20z"/>
</g>
<rect class="st0" width="24" height="24"/>
<rect x="100" y="51" class="st0" width="24" height="24"/>
<rect x="100" y="51" class="st0" width="24" height="24"/>
<rect x="100" y="51" class="st0" width="24" height="24"/>
</svg>
