<?xml version="1.0" encoding="utf-8"?>
<!-- Generator: Adobe Illustrator 20.1.0, SVG Export Plug-In . SVG Version: 6.00 Build 0)  -->
<svg version="1.1" id="Layer_1" xmlns="http://www.w3.org/2000/svg" xmlns:xlink="http://www.w3.org/1999/xlink" x="0px" y="0px"
	 viewBox="0 0 24 24" style="enable-background:new 0 0 24 24;" xml:space="preserve">
<style type="text/css">
	.st0{fill:none;}
</style>
<title>nav_tool_rental</title>
<g>
	<path d="M11.9,8.2h-1.6l0,0H9.7c-0.4,0-0.8,0-1.2,0C7.8,8.4,7.3,8.7,7,9.3c-0.6,1-0.3,2.2,0.7,2.8c0,0,0,0,0.1,0
		c0.2,0.1,0.3,0.4,0.1,0.6c-0.1,0.3-0.3,0.6-0.4,0.9c-0.2,0.6-0.3,1.2-0.4,1.9c0,0.1,0,0.1,0,0.2c0,0.5,0.4,0.8,0.9,0.8h1.5
		c0.3,0,0.5-0.1,0.6-0.4c0.1-0.2,0-0.5-0.2-0.7c-0.2-0.2-0.3-0.5-0.3-0.8c0.1-0.7,0.3-1.4,0.5-2.1c0-0.1,0.1-0.1,0.2-0.1h1.7
		c0,0,0,0,0,0c0.4,0,0.8-0.4,0.8-0.8c0-0.8,0-1.6,0-2.4c0,0,0-0.1,0-0.1C12.8,8.6,12.4,8.2,11.9,8.2z"/>
	<path d="M14.3,9.8c-0.2-0.2-0.5-0.5-0.7-0.7c0,0-0.1-0.1-0.1-0.1c-0.1,0-0.2,0-0.4,0v2.5c0.1,0,0.2,0,0.3,0c0.1,0,0.1,0,0.1-0.1
		l1.5-1.5c0,0,0-0.1,0.1-0.1c-0.2,0-0.5,0-0.7,0C14.4,9.9,14.4,9.9,14.3,9.8z"/>
	<path d="M10.4,12.8L10.4,12.8L10,14.4h0c0.3,0,0.5,0,0.7,0c0,0,0,0,0,0c0.2,0,0.4-0.2,0.4-0.4c0-0.2,0-0.4,0-0.6
		C11.1,12.9,10.9,12.8,10.4,12.8z"/>
	<path d="M16,10l-0.8,0.8v0h0.7c0,0,0.1,0,0.1-0.1l0.6-0.6c0.1-0.1,0.1-0.1,0.2-0.2v0H16C16.1,10,16,10,16,10z"/>
	<path d="M17.7,9.9L17.7,9.9l-0.8,0.8h0.8c0,0,0.1,0,0.1-0.1l0.4-0.3L17.7,9.9z"/>
	<path d="M12,2C6.5,2,2,6.5,2,12s4.5,10,10,10s10-4.5,10-10S17.5,2,12,2z M12.1,20C12,20,12,20,12.1,20C7.6,20,4,16.4,4,12
		c0-4.4,3.6-8,8-8c4.4,0,8,3.6,8,8C20,16.4,16.5,20,12.1,20z"/>
</g>
<rect class="st0" width="24" height="24"/>
</svg>
