<?xml version="1.0" encoding="utf-8"?>
<!-- Generator: Adobe Illustrator 20.1.0, SVG Export Plug-In . SVG Version: 6.00 Build 0)  -->
<svg version="1.1" id="Layer_1" xmlns="http://www.w3.org/2000/svg" xmlns:xlink="http://www.w3.org/1999/xlink" x="0px" y="0px"
	 viewBox="0 0 24 24" style="enable-background:new 0 0 24 24;" xml:space="preserve">
<style type="text/css">
	.st0{fill:none;}
</style>
<title>nav_fuel_rewards</title>
<desc>Created with Sketch.</desc>
<g>
	<path d="M12,2C6.5,2,2,6.5,2,12s4.5,10,10,10s10-4.5,10-10S17.5,2,12,2z M12,20c-4.4,0-8-3.6-8-8s3.6-8,8-8s8,3.6,8,8
		S16.4,20,12,20z"/>
	<path d="M17.4,8.6l-2.3-2.3L14.4,7l1.3,1.2c-0.6,0.3-1,0.8-1,1.4c0,0.9,0.7,1.6,1.6,1.6c0.2,0,0.4-0.1,0.6-0.1v4.5
		c0,0.3-0.3,0.6-0.6,0.6c-0.4,0-0.6-0.2-0.6-0.6v-2.8c0-0.7-0.6-1.2-1.2-1.2h-0.6V7.2c0-0.7-0.6-1.2-1.2-1.2H8.8
		c-0.7,0-1.2,0.6-1.2,1.2v9.9h6.2v-4.7h0.9v3.1c0,0.9,0.7,1.6,1.6,1.6c0.9,0,1.6-0.7,1.6-1.6V9.6C17.9,9.3,17.7,8.9,17.4,8.6z
		 M12.2,13.7c-0.2,0.3-0.6,0.4-1.1,0.5v0.5h-0.6v-0.6c-0.4-0.1-0.7-0.2-0.9-0.4c-0.2-0.2-0.4-0.7-0.4-1.3v-0.3h1.4v0.4
		c0,0.4,0,0.6,0.1,0.7c0,0.1,0.1,0.1,0.2,0.1s0.2-0.1,0.2-0.1c0.1-0.1,0.1-0.1,0.1-0.2c0-0.3,0-0.5-0.1-0.7
		c-0.1-0.2-0.2-0.2-0.4-0.4c-0.4-0.3-0.7-0.4-0.9-0.6c-0.1-0.1-0.3-0.3-0.4-0.5c-0.1-0.3-0.2-0.5-0.2-0.8c0-0.4,0.1-0.8,0.4-1
		c0.2-0.3,0.6-0.4,1.1-0.4V8.2h0.6v0.4c0.4,0.1,0.8,0.2,0.9,0.4c0.2,0.2,0.3,0.6,0.3,0.9c0,0.1,0,0.1,0,0.2H11v-0.2
		c0-0.3,0-0.4-0.1-0.5c0-0.1-0.1-0.1-0.2-0.1c-0.1,0-0.1,0.1-0.2,0.1c-0.1,0.1-0.1,0.2-0.1,0.3c0,0.2,0.1,0.4,0.1,0.4
		c0.1,0.1,0.3,0.2,0.8,0.5c0.4,0.2,0.6,0.4,0.7,0.5c0.1,0.1,0.3,0.3,0.3,0.5c0.1,0.2,0.1,0.4,0.1,0.8C12.6,13.1,12.4,13.5,12.2,13.7
		z M16.3,10.3c-0.3,0-0.6-0.2-0.6-0.6c0-0.4,0.2-0.6,0.6-0.6c0.4,0,0.6,0.3,0.6,0.6C16.9,10.1,16.6,10.3,16.3,10.3z"/>
</g>
<rect class="st0" width="24" height="24"/>
</svg>
