<?xml version="1.0" encoding="utf-8"?>
<!-- Generator: Adobe Illustrator 20.1.0, SVG Export Plug-In . SVG Version: 6.00 Build 0)  -->
<svg version="1.1" id="Layer_1" xmlns="http://www.w3.org/2000/svg" xmlns:xlink="http://www.w3.org/1999/xlink" x="0px" y="0px"
	 viewBox="0 0 24 24" style="enable-background:new 0 0 24 24;" xml:space="preserve">
<style type="text/css">
	.st0{fill:none;}
</style>
<title>nav_proxtra</title>
<path d="M12,2C6.5,2,2,6.5,2,12s4.5,10,10,10s10-4.5,10-10S17.5,2,12,2z M12,20c-4.4,0-8-3.6-8-8c0-4.4,3.6-8,8-8c4.4,0,8,3.6,8,8
	c0,0,0,0,0,0C20,16.4,16.4,20,12,20z M5.4,10.2l1.5-0.6c0.8-0.3,1.5-0.2,1.9,0.7c0.3,0.6,0.1,1.4-0.5,1.7C8.2,12,8.1,12.1,8,12.1
	l-0.6,0.2l0.5,1.2l-1,0.4L5.4,10.2z M7.1,11.6l0.2-0.1c0.4-0.1,0.7-0.3,0.5-0.8c-0.2-0.5-0.5-0.3-0.9-0.2l-0.2,0.1L7.1,11.6z
	 M13.2,11.5L11.9,12l-1.5-1.1l0,0l0.6,1.5l-1,0.4L8.5,9l1.5-0.6c0.6-0.3,1.4-0.1,1.7,0.5c0,0.1,0.1,0.1,0.1,0.2
	c0.2,0.5,0.1,1.1-0.4,1.4L13.2,11.5z M10.1,10.3L10.1,10.3c0.4-0.2,0.8-0.4,0.6-0.8c-0.2-0.4-0.6-0.3-0.9-0.2l-0.1,0L10.1,10.3z
	 M16.4,7.9c0.5,1.1,0,2.4-1.1,2.9c-0.1,0-0.1,0-0.2,0.1c-1.1,0.5-2.4,0-2.9-1.1s0-2.4,1.1-2.9c0.1,0,0.1-0.1,0.2-0.1
	C14.6,6.3,15.9,6.8,16.4,7.9z M13.2,9.2c0.2,0.6,0.9,0.9,1.5,0.6c0.6-0.2,0.9-0.9,0.6-1.5l0,0C15,7.8,14.3,7.6,13.7,8
	C13.3,8.3,13.2,8.7,13.2,9.2L13.2,9.2z M7.3,14.5l0.9-0.4l0.7,0.6L9,13.8l0.9-0.4l-0.4,1.7l1.6,1.1l-0.9,0.4l-1-0.7l-0.3,1.2
	l-0.9,0.4l0.5-1.9L7.3,14.5z M12.5,15.7L11.8,16l-0.9-2.2L10.3,14L10,13.4l2-0.8l0.2,0.6l-0.6,0.2L12.5,15.7z M15.8,14.4l-0.9,0.4
	l-1.1-0.8l0,0l0.4,1.1l-0.7,0.3l-1.1-2.8l1.1-0.4c0.4-0.3,1-0.1,1.3,0.3c0,0,0.1,0.1,0.1,0.2c0.2,0.4,0.1,0.8-0.3,1L15.8,14.4z
	 M13.5,13.5L13.5,13.5c0.3-0.1,0.6-0.2,0.4-0.6c-0.1-0.3-0.4-0.2-0.6-0.1h-0.1L13.5,13.5z M16.5,13.5v0.6l-0.8,0.3l0-3.2l0.8-0.3
	l2.2,2.4l-0.8,0.3l-0.4-0.4L16.5,13.5z M16.4,11.9L16.4,11.9l0.1,1l0.6-0.2L16.4,11.9z"/>
<rect class="st0" width="24" height="24"/>
</svg>
