<?xml version="1.0" encoding="utf-8"?>
<!-- Generator: Adobe Illustrator 20.1.0, SVG Export Plug-In . SVG Version: 6.00 Build 0)  -->
<svg version="1.1" id="Layer_1" xmlns="http://www.w3.org/2000/svg" xmlns:xlink="http://www.w3.org/1999/xlink" x="0px" y="0px"
	 viewBox="0 0 24 24" style="enable-background:new 0 0 24 24;" xml:space="preserve">
<style type="text/css">
	.st0{fill:none;}
</style>
<title>nav_pro_direct</title>
<path d="M12,2C6.5,2,2,6.5,2,12s4.5,10,10,10s10-4.5,10-10S17.5,2,12,2z M12,20c-4.4,0-8-3.6-8-8s3.6-8,8-8c4.4,0,8,3.6,8,8
	c0,0,0,0,0,0l0,0C20,16.4,16.5,20,12,20C12.1,20,12.1,20,12,20L12,20z"/>
<rect x="10.1" y="7.6" transform="matrix(0.9254 -0.379 0.379 0.9254 -2.4098 5.1242)" width="3.5" height="2.2"/>
<path d="M8.1,9.6l1.5,3.7c0.3-0.2,0.7-0.4,1.1-0.5L9,8.6L7.1,7.9c-0.3,0-0.7,0.2-0.7,0.5c0,0.2,0.1,0.4,0.2,0.6L8.1,9.6z"/>
<path d="M17.6,13.2l-3.2,1.3c0,0.1,0.1,0.1,0.1,0.2c0.1,0.3,0.2,0.6,0.2,1l3.4-1.4c0.3-0.2,0.4-0.6,0.2-0.9
	C18.2,13.2,17.9,13.1,17.6,13.2z"/>
<path d="M10.9,11l0.7,1.6c0.9,0,1.8,0.4,2.4,1.1l3.4-1.4l-1.4-3.4L10.9,11z"/>
<ellipse transform="matrix(0.9254 -0.379 0.379 0.9254 -5.1733 5.5342)" cx="11.5" cy="15.9" rx="2.5" ry="2.5"/>
<rect class="st0" width="24" height="24"/>
</svg>
