<?xml version="1.0" encoding="utf-8"?>
<!-- Generator: Adobe Illustrator 20.1.0, SVG Export Plug-In . SVG Version: 6.00 Build 0)  -->
<svg version="1.1" id="Layer_1" xmlns="http://www.w3.org/2000/svg" xmlns:xlink="http://www.w3.org/1999/xlink" x="0px" y="0px"
	 viewBox="0 0 24 24" style="enable-background:new 0 0 24 24;" xml:space="preserve">
<style type="text/css">
	.st0{fill:none;}
</style>
<title>nav_connected_services</title>
<path d="M12,2C6.5,2,2,6.5,2,12s4.5,10,10,10s10-4.5,10-10S17.5,2,12,2z M12.1,20C12,20,12,20,12.1,20c-3.8,0-7-2.6-7.8-6.2h4.7
	c0.7,1.8,2.5,3,4.4,3c1.9,0,3.7-1.2,4.4-3h-4.4l-1-1.7l1-1.7h4.4c-1-2.4-3.7-3.6-6.2-2.7c-1.2,0.5-2.2,1.5-2.7,2.7H4.2
	C5,6.7,8.2,4,12,4c4.4,0,8,3.6,8,8C20,16.4,16.5,20,12.1,20z"/>
<rect y="0" class="st0" width="24" height="24"/>
</svg>
