<?xml version="1.0" encoding="utf-8"?>
<!-- Generator: Adobe Illustrator 20.1.0, SVG Export Plug-In . SVG Version: 6.00 Build 0)  -->
<svg version="1.1" id="Layer_1" xmlns="http://www.w3.org/2000/svg" xmlns:xlink="http://www.w3.org/1999/xlink" x="0px" y="0px"
	 viewBox="0 0 24 24" style="enable-background:new 0 0 24 24;" xml:space="preserve">
<style type="text/css">
	.st0{fill:none;}
</style>
<title>nav_my_numbers</title>
<desc>Created with Sketch.</desc>
<g>
	<path d="M17.4,7.8h-2.9c-0.1,0-0.2,0-0.2,0.1c0,0.1,0,0.2,0.1,0.2l0.8,0.8L12,12.1l-1.6-1.6c0-0.1-0.1-0.1-0.1-0.1
		c0,0-0.1,0-0.1,0.1l-3.9,3.9l1.3,1.3l2.8-2.8l1.6,1.6c0,0.1,0.1,0.1,0.1,0.1c0,0,0.1,0,0.1-0.1l4.2-4.2l0.8,0.8
		c0.1,0.1,0.2,0.1,0.3,0.1c0.1,0,0.1-0.1,0.1-0.2V8c0-0.1-0.1-0.1-0.1-0.2C17.5,7.8,17.4,7.8,17.4,7.8z"/>
	<path d="M12,2C6.5,2,2,6.5,2,12s4.5,10,10,10s10-4.5,10-10S17.5,2,12,2z M12,20c-4.4,0-8-3.6-8-8s3.6-8,8-8s8,3.6,8,8
		S16.4,20,12,20z"/>
</g>
<rect class="st0" width="24" height="24"/>
</svg>
