<?xml version="1.0" encoding="utf-8"?>
<!-- Generator: Adobe Illustrator 20.1.0, SVG Export Plug-In . SVG Version: 6.00 Build 0)  -->
<svg version="1.1" id="Layer_1" xmlns="http://www.w3.org/2000/svg" xmlns:xlink="http://www.w3.org/1999/xlink" x="0px" y="0px"
	 viewBox="0 0 24 24" style="enable-background:new 0 0 24 24;" xml:space="preserve">
<style type="text/css">
	.st0{fill:none;}
</style>
<title>nav_spos</title>
<g>
	<path d="M16.6,7.6C16.6,7.6,16.6,7.6,16.6,7.6l-9.1,0c-0.6,0-1,0.5-1,1v6.1c0,0.6,0.4,1,1,1c0,0,0,0,0,0H11v1h-1v1h4v-1h-1v-1h3.5
		c0.6,0,1-0.5,1-1V8.7C17.6,8.1,17.2,7.6,16.6,7.6z M16.6,14.7H7.5V8.6h9.1V14.7z"/>
	<path d="M12.1,13.1c-0.6,0-0.8-0.3-0.9-0.6h-0.6c0,0.6,0.5,1,1.1,1.1v0.6h0.9v-0.6c0.6-0.1,1-0.4,1-1c0-0.8-0.7-1.1-1.4-1.2
		c-0.7-0.1-0.9-0.4-0.9-0.6c0-0.3,0.3-0.5,0.8-0.5s0.7,0.2,0.7,0.6h0.6c0-0.5-0.4-1-0.9-1.1V9.1h-0.9v0.6c-0.5,0.1-1,0.5-1,1
		c0,0.7,0.6,1,1.4,1.2s0.9,0.4,0.9,0.7S12.8,13.1,12.1,13.1z"/>
	<path d="M12,2C6.5,2,2,6.5,2,12s4.5,10,10,10s10-4.5,10-10S17.5,2,12,2z M12.1,20C12,20,12,20,12.1,20C7.6,20,4,16.4,4,12
		c0-4.4,3.6-8,8-8c4.4,0,8,3.6,8,8C20,16.4,16.5,20,12.1,20z"/>
</g>
<rect class="st0" width="24" height="24"/>
</svg>
