<?xml version="1.0" encoding="utf-8"?>
<!-- Generator: Adobe Illustrator 20.1.0, SVG Export Plug-In . SVG Version: 6.00 Build 0)  -->
<svg version="1.1" id="Layer_1" xmlns="http://www.w3.org/2000/svg" xmlns:xlink="http://www.w3.org/1999/xlink" x="0px" y="0px"
	 viewBox="0 0 24 24" style="enable-background:new 0 0 24 24;" xml:space="preserve">
<style type="text/css">
	.st0{fill:none;}
</style>
<title>nav_volume_value_program</title>
<g>
	<path d="M16.4,13.4c0-0.2-0.1-0.4-0.2-0.6l-4.7-4.7C11.2,8,11,7.9,10.8,7.8c-0.2-0.1-0.5-0.1-0.7-0.1H7.3C6.8,7.6,6.5,8,6.5,8.5
		v2.7c0,0.3,0.1,0.5,0.2,0.8c0.1,0.2,0.2,0.5,0.4,0.7l4.7,4.7c0.2,0.2,0.4,0.2,0.6,0.2c0.2,0,0.4-0.1,0.6-0.2l3.2-3.2
		C16.3,13.9,16.4,13.7,16.4,13.4z M9.1,10.3c-0.3,0.3-0.9,0.3-1.2,0C7.6,9.9,7.6,9.4,8,9.1c0.3-0.3,0.9-0.3,1.2,0
		c0.2,0.2,0.2,0.4,0.2,0.6C9.4,9.9,9.3,10.1,9.1,10.3z"/>
	<path d="M18.9,13.5c0-0.2-0.1-0.4-0.2-0.6l-4.7-4.7c-0.4-0.4-0.9-0.6-1.4-0.6h-1.5c0.3,0,0.5,0.1,0.8,0.1c0.2,0.1,0.5,0.2,0.7,0.4
		l4.7,4.7c0.2,0.2,0.2,0.4,0.2,0.6c0,0.2-0.1,0.4-0.2,0.6l-3.1,3.1c0.1,0.1,0.2,0.2,0.3,0.3c0.1,0.1,0.3,0.1,0.4,0.1
		c0.2,0,0.4-0.1,0.6-0.2l3.2-3.2C18.8,13.9,18.9,13.7,18.9,13.5L18.9,13.5z"/>
	<path d="M12,2C6.5,2,2,6.5,2,12s4.5,10,10,10s10-4.5,10-10S17.5,2,12,2z M12.1,20C12,20,12,20,12.1,20C7.6,20,4,16.4,4,12
		c0-4.4,3.6-8,8-8c4.4,0,8,3.6,8,8C20,16.4,16.5,20,12.1,20z"/>
</g>
<rect class="st0" width="24" height="24"/>
</svg>
