<?xml version="1.0" encoding="utf-8"?>
<!-- Generator: Adobe Illustrator 20.1.0, SVG Export Plug-In . SVG Version: 6.00 Build 0)  -->
<svg version="1.1" id="Layer_1" xmlns="http://www.w3.org/2000/svg" xmlns:xlink="http://www.w3.org/1999/xlink" x="0px" y="0px"
	 viewBox="0 0 24 24" style="enable-background:new 0 0 24 24;" xml:space="preserve">
<style type="text/css">
	.st0{fill:none;}
</style>
<title>nav_gift_cards</title>
<desc>Created with Sketch.</desc>
<g>
	<path d="M16.2,8.7h-1.1c0.1-0.2,0.1-0.3,0.1-0.5c0-0.9-0.7-1.6-1.6-1.6c-0.6,0-1.1,0.3-1.3,0.7L12,7.8l-0.3-0.4
		c-0.3-0.4-0.7-0.7-1.3-0.7c-0.9,0-1.6,0.7-1.6,1.6c0,0.2,0.1,0.4,0.1,0.5H7.8c-0.6,0-1.1,0.4-1.1,1v5.7c0,0.6,0.5,1,1.1,1h8.4
		c0.6,0,1.1-0.4,1.1-1V9.8C17.3,9.2,16.8,8.7,16.2,8.7z M13.6,7.7c0.3,0,0.5,0.3,0.5,0.5c0,0.3-0.2,0.5-0.5,0.5
		c-0.3,0-0.5-0.3-0.5-0.5C13.1,7.9,13.3,7.7,13.6,7.7z M10.4,7.7c0.3,0,0.5,0.3,0.5,0.5c0,0.3-0.2,0.5-0.5,0.5
		c-0.3,0-0.5-0.3-0.5-0.5C9.9,7.9,10.1,7.7,10.4,7.7z M7.8,9.8h2.7l-1.1,1.4l0.9,0.6l1.2-1.7L12,9.5l0.5,0.7l1.2,1.7l0.9-0.6
		l-1.1-1.4h2.7v3.1H7.8V9.8z M7.8,15.4v-1h8.4v1H7.8z"/>
	<path d="M12,2C6.5,2,2,6.5,2,12s4.5,10,10,10s10-4.5,10-10S17.5,2,12,2z M12,20c-4.4,0-8-3.6-8-8s3.6-8,8-8s8,3.6,8,8
		S16.4,20,12,20z"/>
</g>
<rect class="st0" width="24" height="24"/>
</svg>
