<svg id="Layer_1" data-name="Layer 1" xmlns="http://www.w3.org/2000/svg" viewBox="0 0 24 24"><defs><style>.cls-1{fill:#231f20;}.cls-2{fill:none;}</style></defs><title>new_lower_price</title><path class="cls-1" d="M16.35,8.46H16v1h.22a.6.6,0,0,0,.43-.15.56.56,0,0,0,.16-.43Q16.86,8.46,16.35,8.46Z" transform="translate(0 0)"/><path class="cls-1" d="M21.5,2H2.5l2,13.12H2.93L12,22l9.07-6.88H19.5ZM10.19,12H8.6L7,8.81h0Q7,9.56,7,10v2H5.91V7.47H7.5l1.63,3.15h0q0-.68,0-1.1v-2h1.08Zm3.92,0H11.16V7.47h1.21V11h1.73Zm3.54-1.91a1.78,1.78,0,0,1-1.26.41H16V12H14.83V7.47h1.56a1.89,1.89,0,0,1,1.28.37,1.34,1.34,0,0,1,.43,1.06A1.52,1.52,0,0,1,17.64,10.09Z" transform="translate(0 0)"/><rect class="cls-2" width="24" height="24"/></svg>