<svg id="Layer_1" data-name="Layer 1" xmlns="http://www.w3.org/2000/svg" viewBox="0 0 24 24"><defs><style>.cls-1{fill:none;}</style></defs><title>note_add</title><rect x="7.29" y="2" width="6.9" height="2.66"/><rect x="7.29" y="14.13" width="6.9" height="1.77"/><polygon points="16.15 14.13 17.73 14.13 17.73 2.52 15.23 2.52 15.23 4.43 16.15 4.43 16.15 14.13"/><polygon points="5.32 4.43 6.16 4.43 6.16 2.52 3.75 2.52 3.75 19.43 12.27 19.43 12.27 17.97 5.32 17.97 5.32 4.43"/><rect x="7.29" y="6.93" width="6.9" height="1.77"/><rect x="7.29" y="10.53" width="6.9" height="1.77"/><polygon points="17.69 17.97 17.69 15.45 16.15 15.45 16.15 17.97 13.59 17.97 13.59 19.48 16.15 19.48 16.15 22 17.69 22 17.69 19.48 20.25 19.48 20.25 17.97 17.69 17.97"/><rect class="cls-1" width="24" height="24"/></svg>