<?xml version="1.0" encoding="utf-8"?>
<!-- Generator: Adobe Illustrator 20.1.0, SVG Export Plug-In . SVG Version: 6.00 Build 0)  -->
<svg version="1.1" id="Layer_1" xmlns="http://www.w3.org/2000/svg" xmlns:xlink="http://www.w3.org/1999/xlink" x="0px" y="0px"
	 viewBox="0 0 24 24" style="enable-background:new 0 0 24 24;" xml:space="preserve">
<style type="text/css">
	.st0{fill:none;}
</style>
<title>oven</title>
<g>
	<path d="M2,19.4c0,0.3,0.3,0.6,0.6,0.6h18.7c0.3,0,0.6-0.3,0.6-0.6v-11H2V19.4z M4.6,10.4c0-0.3,0.3-0.6,0.6-0.6h13.6
		c0.3,0,0.6,0.3,0.6,0.6l0,0v7.7c0,0.3-0.3,0.6-0.6,0.6H5.2c-0.3,0-0.6-0.3-0.6-0.6V10.4z"/>
	<path d="M21.4,4.6h-1.3c0-0.2-0.2-0.5-0.3-0.6h-5.2c-0.2,0.2-0.3,0.4-0.3,0.6H9.7c0-0.2-0.2-0.5-0.3-0.6H4.3C4.1,4.1,4,4.3,3.9,4.6
		H2.6C2.2,4.6,2,4.9,2,5.2v2.6h20V5.2C22,4.8,21.7,4.6,21.4,4.6z M12.7,7.2c-0.5,0-1-0.4-1-1s0.4-1,1-1c0.5,0,1,0.4,1,1
		S13.2,7.2,12.7,7.2z M15.2,7.2c-0.5,0-1-0.4-1-1s0.4-1,1-1c0.5,0,1,0.4,1,1S15.8,7.2,15.2,7.2z M17.8,7.2c-0.5,0-1-0.4-1-1
		s0.4-1,1-1c0.5,0,1,0.4,1,1S18.4,7.2,17.8,7.2z M20.4,7.2C20.4,7.2,20.4,7.2,20.4,7.2c-0.6,0-1-0.5-1-1c0-0.5,0.5-1,1-0.9
		c0.5,0,0.9,0.4,0.9,1C21.4,6.7,20.9,7.2,20.4,7.2z"/>
</g>
<rect class="st0" width="24" height="24"/>
</svg>
