<?xml version="1.0" encoding="utf-8"?>
<!-- Generator: Adobe Illustrator 20.1.0, SVG Export Plug-In . SVG Version: 6.00 Build 0)  -->
<svg version="1.1" id="Layer_1" xmlns="http://www.w3.org/2000/svg" xmlns:xlink="http://www.w3.org/1999/xlink" x="0px" y="0px"
	 viewBox="0 0 24 24" style="enable-background:new 0 0 24 24;" xml:space="preserve">
<style type="text/css">
	.st0{fill:none;}
</style>
<title>paint_brush</title>
<g id="EUXICONS">
	<g id="paint_brush">
		<path id="Combined-Shape" d="M8.3,10.1v2.4c0,0.4,0.2,0.7,0.5,1C9.1,13.8,9.5,14,9.9,14h1.3v7.2l0,0c0,0.2,0.1,0.4,0.2,0.5
			c0.3,0.3,0.8,0.4,1.1,0.1c0.1-0.1,0.2-0.3,0.2-0.4l0,0v-7.4l1.4-0.1c0.4,0,0.8-0.2,1.1-0.4c0.3-0.2,0.5-0.6,0.5-1v-2.5L8.3,10.1z
			 M14,2h1.5v6.5H14V2z M8.2,2h4.3v6.5H8.2V2z"/>
	</g>
	<rect class="st0" width="24" height="24"/>
</g>
</svg>
