<?xml version="1.0" encoding="utf-8"?>
<!-- Generator: Adobe Illustrator 20.1.0, SVG Export Plug-In . SVG Version: 6.00 Build 0)  -->
<svg version="1.1" id="Layer_1" xmlns="http://www.w3.org/2000/svg" xmlns:xlink="http://www.w3.org/1999/xlink" x="0px" y="0px"
	 viewBox="0 0 24 24" style="enable-background:new 0 0 24 24;" xml:space="preserve">
<style type="text/css">
	.st0{fill:none;}
</style>
<title>payment_paypal</title>
<g id="EUXICONS">
	<g id="payment_paypal">
		<path id="Shape" d="M8.5,12.1c0,0.2-0.1,0.4-0.2,0.5c-0.1,0.1-0.3,0.2-0.5,0.2c-0.1,0-0.3,0-0.4-0.1c-0.1-0.1-0.2-0.2-0.1-0.4
			c0-0.2,0.1-0.4,0.2-0.5c0.1-0.1,0.3-0.2,0.5-0.2c0.1,0,0.3,0,0.4,0.1C8.4,11.8,8.5,11.9,8.5,12.1L8.5,12.1z M15.3,10.8
			c0,0.2,0,0.4-0.2,0.5c-0.2,0.1-0.4,0.1-0.6,0.1h-0.3l0.1-0.9c0-0.1,0.1-0.1,0.1-0.1h0.2c0.1,0,0.2,0,0.3,0c0.1,0,0.2,0.1,0.2,0.1
			C15.3,10.6,15.3,10.7,15.3,10.8L15.3,10.8z M18.3,12.1c0,0.2-0.1,0.4-0.2,0.5c-0.1,0.1-0.3,0.2-0.5,0.2c-0.1,0-0.3,0-0.4-0.1
			c-0.1-0.1-0.2-0.2-0.2-0.4c0-0.2,0.1-0.4,0.2-0.5c0.1-0.1,0.3-0.2,0.5-0.2c0.1,0,0.3,0,0.4,0.1C18.3,11.8,18.4,11.9,18.3,12.1
			L18.3,12.1z M6.5,10.6c0-0.3-0.1-0.6-0.3-0.7C5.9,9.7,5.6,9.6,5.3,9.6H3.9c-0.1,0-0.2,0.1-0.2,0.1c0,0,0,0,0,0l-0.6,3.5
			c0,0,0,0.1,0,0.1c0,0,0.1,0,0.1,0h0.6c0.1,0,0.2,0,0.2-0.1c0,0,0,0,0,0l0.2-1c0,0,0-0.1,0.1-0.1c0,0,0.1,0,0.1,0h0.1h0.3
			c0.4,0,0.9-0.1,1.2-0.4C6.3,11.5,6.5,11.1,6.5,10.6L6.5,10.6z M9.1,13.3L9.5,11c0,0,0-0.1,0-0.1c0,0-0.1,0-0.1,0H8.7
			c-0.1,0-0.1,0.1-0.1,0.3c-0.2-0.3-0.5-0.4-0.8-0.3c-0.4,0-0.8,0.2-1.1,0.5c-0.3,0.3-0.4,0.7-0.4,1.1c0,0.3,0.1,0.6,0.3,0.8
			c0.2,0.2,0.5,0.3,0.8,0.3c0.2,0,0.3,0,0.5-0.1c0.2-0.1,0.3-0.2,0.4-0.3c0,0.1,0,0.1,0,0.2c0,0.1,0,0.1,0.1,0.1H9
			C9.1,13.5,9.2,13.4,9.1,13.3C9.2,13.3,9.2,13.3,9.1,13.3L9.1,13.3z M13,11C13,11,13,11,13,11c-0.1-0.1-0.1-0.1-0.1-0.1h-0.7
			c-0.1,0-0.1,0-0.2,0.1l-0.9,1.4L10.7,11c0-0.1-0.1-0.1-0.2-0.1H9.9c0,0-0.1,0-0.1,0c0,0,0,0.1,0,0.1c0,0,0.1,0.2,0.2,0.5l0.4,1.1
			l0.2,0.6c-0.3,0.3-0.5,0.7-0.7,1c0,0.1,0,0.1,0.1,0.1c0,0,0,0,0,0h0.7c0.1,0,0.1,0,0.2-0.1L13,11C13,11.1,13,11.1,13,11L13,11z
			 M16.3,10.6c0-0.3-0.1-0.6-0.3-0.7c-0.3-0.2-0.6-0.2-0.9-0.2h-1.4c-0.1,0-0.2,0-0.2,0.1c0,0,0,0,0,0L13,13.3c0,0,0,0.1,0,0.1
			c0,0,0.1,0,0.1,0h0.7c0.1,0,0.1,0,0.1-0.1l0.2-1c0,0,0-0.1,0.1-0.1c0,0,0.1,0,0.1-0.1h0.1h0.3c0.4,0,0.9-0.1,1.2-0.4
			C16.2,11.5,16.3,11,16.3,10.6L16.3,10.6z M19,13.3l0.4-2.3c0,0,0-0.1,0-0.1c0,0-0.1,0-0.1,0h-0.7c-0.1,0-0.1,0.1-0.1,0.3
			c-0.2-0.3-0.5-0.4-0.8-0.4c-0.4,0-0.8,0.2-1.1,0.5c-0.3,0.3-0.4,0.7-0.4,1.1c0,0.3,0.1,0.6,0.2,0.8c0.2,0.2,0.5,0.3,0.8,0.3
			c0.2,0,0.4,0,0.5-0.1c0.2-0.1,0.3-0.2,0.4-0.3v0.1c0,0,0,0.1,0,0.1c0,0.1,0,0.1,0.1,0.1h0.6C18.9,13.5,19,13.4,19,13.3
			C19,13.3,19,13.3,19,13.3L19,13.3z M20.9,9.8L20.9,9.8c0-0.1,0-0.1-0.1-0.1h-0.6c-0.1,0-0.1,0-0.1,0.1l-0.6,3.6l0,0
			c0,0,0,0.1,0,0.1c0,0,0.1,0,0.1,0h0.5c0.1,0,0.2-0.1,0.2-0.1c0,0,0,0,0,0L20.9,9.8z M5.4,10.9c0,0.2-0.1,0.3-0.2,0.4
			c-0.2,0.1-0.3,0.1-0.5,0.1H4.4l0.1-0.9c0-0.1,0.1-0.1,0.1-0.1h0.2c0.2,0,0.3,0,0.5,0.1C5.4,10.6,5.4,10.7,5.4,10.9L5.4,10.9z
			 M22,6.4v11.1c0,0.6-0.5,1.1-1.1,1.1H3.1c-0.3,0-0.6-0.1-0.8-0.3C2.1,18.1,2,17.9,2,17.6V6.4c0-0.3,0.1-0.6,0.3-0.8
			c0.2-0.2,0.5-0.3,0.8-0.3h17.8C21.5,5.3,22,5.8,22,6.4z"/>
	</g>
</g>
<rect class="st0" width="24" height="24"/>
</svg>
