<?xml version="1.0" encoding="utf-8"?>
<!-- Generator: Adobe Illustrator 20.1.0, SVG Export Plug-In . SVG Version: 6.00 Build 0)  -->
<svg version="1.1" id="Layer_1" xmlns="http://www.w3.org/2000/svg" xmlns:xlink="http://www.w3.org/1999/xlink" x="0px" y="0px"
	 viewBox="0 0 24 24" style="enable-background:new 0 0 24 24;" xml:space="preserve">
<style type="text/css">
	.st0{fill:none;}
</style>
<title>alert_pending_outline</title>
<desc>Created with Sketch.</desc>
<g id="EUXICONS">
	<g id="alert_pending_outline">
		<path id="Combined-Shape" d="M11.8,1.8c-5.5,0-10,4.5-10,10s4.5,10,10,10s10-4.5,10-10S17.3,1.8,11.8,1.8z M11.7,19.7
			c-4.4,0-8-3.6-8-8s3.6-8,8-8s8,3.6,8,8S16.1,19.7,11.7,19.7z M15.5,10.6H18V13h-2.5V10.6z M10.6,10.6H13V13h-2.5
			C10.5,13,10.5,10.6,10.6,10.6z M5.5,10.6h2.5V13H5.5V10.6z"/>
	</g>
</g>
<rect class="st0" width="24" height="24"/>
</svg>
