<?xml version="1.0" encoding="utf-8"?>
<!-- Generator: Adobe Illustrator 20.1.0, SVG Export Plug-In . SVG Version: 6.00 Build 0)  -->
<svg version="1.1" id="Layer_1" xmlns="http://www.w3.org/2000/svg" xmlns:xlink="http://www.w3.org/1999/xlink" x="0px" y="0px"
	 viewBox="0 0 24 24" style="enable-background:new 0 0 24 24;" xml:space="preserve">
<style type="text/css">
	.st0{fill:none;}
</style>
<title>person_group</title>
<g id="EUXICONS">
	<g id="person_group">
		<path id="Shape" d="M15.6,11.1c1.5,0,2.7-1.2,2.7-2.7s-1.2-2.7-2.7-2.7c-1.5,0-2.7,1.2-2.7,2.7C12.9,9.9,14.1,11.1,15.6,11.1
			C15.6,11.1,15.6,11.1,15.6,11.1z M8.4,11.1c1.5,0,2.7-1.2,2.7-2.7S9.9,5.6,8.4,5.6S5.6,6.9,5.6,8.4C5.6,9.9,6.8,11.1,8.4,11.1
			C8.4,11.1,8.4,11.1,8.4,11.1z M8.4,12.9C6.2,12.9,2,14,2,16.1v2.3h12.7v-2.3C14.7,14,10.5,12.9,8.4,12.9z M15.6,12.9
			c-0.3,0-0.6,0-0.9,0c1.1,0.7,1.8,1.8,1.8,3.1v2.3H22v-2.3C22,14,17.8,12.9,15.6,12.9z"/>
	</g>
</g>
<rect class="st0" width="24" height="24"/>
</svg>
