<?xml version="1.0" encoding="utf-8"?>
<!-- Generator: Adobe Illustrator 20.1.0, SVG Export Plug-In . SVG Version: 6.00 Build 0)  -->
<svg version="1.1" id="Layer_1" xmlns="http://www.w3.org/2000/svg" xmlns:xlink="http://www.w3.org/1999/xlink" x="0px" y="0px"
	 viewBox="0 0 24 24" style="enable-background:new 0 0 24 24;" xml:space="preserve">
<style type="text/css">
	.st0{fill:none;}
</style>
<title>person_add</title>
<g id="EUXICONS">
	<g id="person_add">
		<path id="Shape" d="M14.7,12c2,0,3.6-1.6,3.6-3.6c0-2-1.6-3.6-3.6-3.6c-2,0-3.6,1.6-3.6,3.6l0,0C11.1,10.4,12.7,12,14.7,12z
			 M6.5,10.2V7.5H4.7v2.7H2V12h2.7v2.7h1.8V12h2.7v-1.8H6.5z M14.7,13.8c-2.4,0-7.3,1.2-7.3,3.6v1.8H22v-1.8
			C22,15,17.2,13.8,14.7,13.8L14.7,13.8z"/>
	</g>
</g>
<rect class="st0" width="24" height="24"/>
</svg>
