<?xml version="1.0" encoding="utf-8"?>
<!-- Generator: Adobe Illustrator 20.1.0, SVG Export Plug-In . SVG Version: 6.00 Build 0)  -->
<svg version="1.1" id="Layer_1" xmlns="http://www.w3.org/2000/svg" xmlns:xlink="http://www.w3.org/1999/xlink" x="0px" y="0px"
	 viewBox="0 0 24 24" style="enable-background:new 0 0 24 24;" xml:space="preserve">
<style type="text/css">
	.st0{fill:none;}
</style>
<title>phone</title>
<path class="st0" d="M-4-4h32v32H-4V-4z"/>
<path d="M6,10.7c1.6,3.1,4.2,5.7,7.3,7.3l2.4-2.4c0.3-0.3,0.7-0.4,1.1-0.3c1.3,0.4,2.6,0.6,4,0.6c0.6,0,1.1,0.5,1.1,1.1v0v3.9
	c0,0.6-0.5,1.1-1.1,1.1c0,0,0,0,0,0C10.5,22,2,13.5,2,3.1c0,0,0,0,0,0C2,2.5,2.5,2,3.1,2c0,0,0,0,0,0H7c0.6,0,1.1,0.5,1.1,1.1
	c0,1.3,0.2,2.7,0.6,4c0.1,0.4,0,0.8-0.3,1.1L6,10.7z"/>
<rect class="st0" width="24" height="24"/>
</svg>
