<?xml version="1.0" encoding="utf-8"?>
<!-- Generator: Adobe Illustrator 20.1.0, SVG Export Plug-In . SVG Version: 6.00 Build 0)  -->
<svg version="1.1" id="Layer_1" xmlns="http://www.w3.org/2000/svg" xmlns:xlink="http://www.w3.org/1999/xlink" x="0px" y="0px"
	 viewBox="0 0 24 24" style="enable-background:new 0 0 24 24;" xml:space="preserve">
<style type="text/css">
	.st0{fill:none;}
</style>
<title>phone_lock</title>
<g id="EUXICONS">
	<g id="phone_lock">
		<path id="Shape" d="M17.7,2H8.9c-1,0-1.8,0.8-1.8,1.8v2.7h1.8V4.7h8.8v14.5H8.9v-1.8H7.1v2.7c0,1,0.8,1.8,1.8,1.8h8.8
			c1,0,1.8-0.8,1.8-1.8V3.8C19.5,2.8,18.7,2,17.7,2z M10.5,11.1V9.7c0-1.2-1.2-2.3-2.5-2.3s-2.5,1-2.5,2.3v1.4c-0.6,0-1,0.5-1.1,1.1
			v3.2c0,0.6,0.5,1.1,1.1,1.2h4.9c0.6,0,1.1-0.5,1.1-1.1v-3.2C11.6,11.7,11.1,11.1,10.5,11.1z M9.4,11.1H6.7V9.7
			C6.7,9,7.3,8.5,8,8.5c0,0,0,0,0,0C8.7,8.5,9.3,9,9.3,9.7c0,0,0,0,0,0.1V11.1L9.4,11.1z"/>
	</g>
</g>
<rect class="st0" width="24" height="24"/>
</svg>
