<?xml version="1.0" encoding="utf-8"?>
<!-- Generator: Adobe Illustrator 20.1.0, SVG Export Plug-In . SVG Version: 6.00 Build 0)  -->
<svg version="1.1" id="Layer_1" xmlns="http://www.w3.org/2000/svg" xmlns:xlink="http://www.w3.org/1999/xlink" x="0px" y="0px"
	 viewBox="0 0 24 24" style="enable-background:new 0 0 24 24;" xml:space="preserve">
<style type="text/css">
	.st0{fill:none;}
</style>
<title>phone_iphone</title>
<g id="EUXICONS">
	<g id="phone_iphone">
		<path id="Shape" d="M15.8,2H8.2C6.8,2,5.8,3,5.8,4.3l0,0v15.5C5.8,21,6.8,22,8.2,22h7.7c1.3,0,2.4-1,2.4-2.3V4.3
			C18.2,3,17.2,2,15.8,2z M12,21.1c-0.8,0-1.4-0.6-1.4-1.4c0-0.8,0.6-1.4,1.4-1.4c0.8,0,1.4,0.6,1.4,1.4
			C13.4,20.5,12.8,21.1,12,21.1L12,21.1z M16.3,17.5H7.7V4.7h8.7V17.5z"/>
	</g>
</g>
<rect class="st0" width="24" height="24"/>
</svg>
