<?xml version="1.0" encoding="utf-8"?>
<!-- Generator: Adobe Illustrator 20.1.0, SVG Export Plug-In . SVG Version: 6.00 Build 0)  -->
<svg version="1.1" id="Layer_1" xmlns="http://www.w3.org/2000/svg" xmlns:xlink="http://www.w3.org/1999/xlink" x="0px" y="0px"
	 viewBox="0 0 24 24" style="enable-background:new 0 0 24 24;" xml:space="preserve">
<style type="text/css">
	.st0{fill:none;}
</style>
<title>pie_chart_outlined</title>
<path class="st0" d="M-4-4h32v32H-4V-4z"/>
<path d="M12,2C6.5,2,2,6.5,2,12s4.5,10,10,10s10-4.5,10-10S17.5,2,12,2z M13,4.1c3.6,0.5,6.5,3.3,6.9,6.9H13V4.1z M4,12
	c0-4,3-7.4,7-7.9v15.9C7,19.4,4,16,4,12z M13,19.9V13h6.9C19.5,16.6,16.6,19.5,13,19.9z"/>
<rect class="st0" width="24" height="24"/>
</svg>
