<?xml version="1.0" encoding="utf-8"?>
<!-- Generator: Adobe Illustrator 20.1.0, SVG Export Plug-In . SVG Version: 6.00 Build 0)  -->
<svg version="1.1" id="Layer_1" xmlns="http://www.w3.org/2000/svg" xmlns:xlink="http://www.w3.org/1999/xlink" x="0px" y="0px"
	 viewBox="0 0 24 24" style="enable-background:new 0 0 24 24;" xml:space="preserve">
<style type="text/css">
	.st0{fill:none;}
</style>
<title>money_piggy_bank</title>
<path d="M19.2,16.8c1.7-1.3,2.8-3.4,2.8-5.5c0-5.5-5.9-7.5-9.1-7.5S8.8,4.7,8.8,4.7c-0.7-0.5-1.5-1-2.2-1.4C6.1,3,5.5,2.9,4.9,3.1
	c-0.5,0-0.2,0.8,0,1.1C5.1,4.5,6,6.1,6,6.1s-2,2-2.1,3.3c0,0-0.9,0-1.4,0c-0.1,0-0.3,0.1-0.4,0.2C2,9.7,2,9.8,2,9.9v3.9
	c0,0.1,0,0.3,0.1,0.4c0.1,0.1,0.2,0.2,0.3,0.2h1.4c0,0,1.4,2,2.3,2.3l-0.8,2c-0.1,0.1-0.1,0.3-0.1,0.5c0.1,0.2,0.2,0.3,0.4,0.4
	c0.7,0.2,2.4,0.9,3.1,1.2c0.7,0.2,0.8-0.2,0.8-0.2l0.7-1.5h4.7l0.7,1.6c0,0,0.1,0.7,1.1,0.3c1-0.4,2-0.9,2.8-1.3
	c0.2-0.1,0.4-0.3,0.4-0.5c0-0.2,0-0.4-0.1-0.6L19.2,16.8z M7,9.9c-0.2,0.2-0.6,0.3-0.9,0.2c-0.4-0.2-0.6-0.6-0.4-1
	c0-0.1,0.1-0.2,0.2-0.3c0.3-0.3,0.8-0.3,1.1,0C7.1,8.9,7.1,9,7.2,9.1C7.3,9.4,7.2,9.7,7,9.9z M14.9,14.3C14.5,14.7,14,15,13.4,15
	v0.7h-0.9V15c-0.5-0.1-1-0.3-1.4-0.6c-0.5-0.5-0.7-1.2-0.6-1.9v-0.4h2v0.5c0,0.3,0,0.7,0.1,1c0,0.1,0.2,0.2,0.3,0.2
	c0.1,0,0.2,0,0.3-0.1c0.1-0.1,0.1-0.3,0.1-0.4c0-0.3,0-0.6-0.1-0.9c-0.1-0.3-0.4-0.5-0.6-0.6c-0.4-0.3-0.8-0.5-1.2-0.8
	c-0.2-0.2-0.4-0.5-0.6-0.7c-0.2-0.3-0.2-0.7-0.2-1.1c0-0.5,0.2-1,0.5-1.4C11.4,7.2,11.9,7,12.5,7V6.3h0.9V7c0.5,0,1,0.3,1.4,0.6
	C15.1,8,15.2,8.5,15.2,9c0,0.1,0,0.2,0,0.4h-2V9c0-0.2,0-0.5-0.1-0.7c-0.1-0.1-0.2-0.2-0.3-0.2c-0.1,0-0.2,0-0.3,0.1
	c-0.1,0.1-0.1,0.3-0.1,0.4c0,0.2,0,0.4,0.2,0.6c0.3,0.3,0.7,0.5,1.1,0.7c0.4,0.2,0.7,0.4,1,0.7c0.2,0.2,0.4,0.4,0.5,0.7
	c0.1,0.4,0.2,0.7,0.2,1.1C15.5,13.2,15.3,13.8,14.9,14.3L14.9,14.3z"/>
<rect class="st0" width="24" height="24"/>
</svg>
