<?xml version="1.0" encoding="utf-8"?>
<!-- Generator: Adobe Illustrator 20.1.0, SVG Export Plug-In . SVG Version: 6.00 Build 0)  -->
<svg version="1.1" id="Layer_1" xmlns="http://www.w3.org/2000/svg" xmlns:xlink="http://www.w3.org/1999/xlink" x="0px" y="0px"
	 viewBox="0 0 24 24" style="enable-background:new 0 0 24 24;" xml:space="preserve">
<style type="text/css">
	.st0{fill:none;}
</style>
<title>plug</title>
<g id="EUXICONS">
	<g id="electrical_1">
		<path id="Combined-Shape" d="M11.4,3.6H9.5V2h-2v1.6H6.1V2H4v1.6H2v1.9h9.4V3.6z M21.6,3.3h-1.9c0.3,1,0.4,2,0.4,3
			c0,2.1-0.7,4.1-2,5.7c-0.3,0.4-0.6,0.7-1,1.1h0c-0.4,0.6-1.1,1-1.9,1c-1.2,0-2.2-0.9-2.2-2.1c0-1.2,1-2.1,2.2-2.1
			c0.9,0,1.7,0.5,2,1.4c0.4-0.5,0.8-1.1,1.1-1.7c-0.8-0.9-1.9-1.4-3.1-1.4c-2.2-0.1-4,1.7-4,3.8c0.1,2.2,1.9,3.8,4,3.8
			c1.3,0,2.5-0.6,3.2-1.6c0.4-0.4,0.8-0.8,1.1-1.2C21.8,10.2,22.5,6.6,21.6,3.3z M17.1,16.5c-0.5,2.2-2.4,3.8-4.7,3.7
			c-2.6,0.1-4.7-2-4.8-4.5v-2.4H5.8v2.4c0.1,3.6,3.1,6.4,6.6,6.3c3.6,0.1,6.5-2.7,6.6-6.3c0-0.1,0-0.3,0-0.4
			C18.5,15.8,17.8,16.2,17.1,16.5z M9.9,8.8L9.9,8.8V6.9H3.6v1.9l0,0c0,1.7,1.5,3,3.2,3C8.4,11.9,9.9,10.5,9.9,8.8z"/>
	</g>
</g>
<rect class="st0" width="24" height="24"/>
</svg>
