<?xml version="1.0" encoding="utf-8"?>
<!-- Generator: Adobe Illustrator 20.1.0, SVG Export Plug-In . SVG Version: 6.00 Build 0)  -->
<svg version="1.1" id="Layer_1" xmlns="http://www.w3.org/2000/svg" xmlns:xlink="http://www.w3.org/1999/xlink" x="0px" y="0px"
	 viewBox="0 0 24 24" style="enable-background:new 0 0 24 24;" xml:space="preserve">
<style type="text/css">
	.st0{fill:none;}
</style>
<title>plus_circle_outline</title>
<g id="EUXICONS">
	<g id="plus_circle_outline">
		<path id="Shape" d="M13,7h-2v4H7v2h4v4h2v-4h4v-2h-4V7z M12,2C6.5,2,2,6.5,2,12s4.5,10,10,10s10-4.5,10-10S17.5,2,12,2z M12,20
			c-4.4,0-8-3.6-8-8s3.6-8,8-8c4.4,0,8,3.6,8,8c0,0,0,0,0,0C20,16.4,16.4,20,12,20z"/>
	</g>
</g>
<rect class="st0" width="24" height="24"/>
</svg>
