<?xml version="1.0" encoding="utf-8"?>
<!-- Generator: Adobe Illustrator 20.1.0, SVG Export Plug-In . SVG Version: 6.00 Build 0)  -->
<svg version="1.1" id="Layer_1" xmlns="http://www.w3.org/2000/svg" xmlns:xlink="http://www.w3.org/1999/xlink" x="0px" y="0px"
	 viewBox="0 0 24 24" style="enable-background:new 0 0 24 24;" xml:space="preserve">
<style type="text/css">
	.st0{fill:none;}
</style>
<title>print</title>
<g id="EUXICONS">
	<g id="print">
		<path id="Shape" d="M19,8H5c-1.7,0-3,1.3-3,3c0,0,0,0,0,0v6h4v4h12v-4h4v-6C22,9.3,20.7,8,19,8C19,8,19,8,19,8z M16,19H8v-5h8V19z
			 M19,12c-0.6,0-1-0.4-1-1s0.4-1,1-1s1,0.4,1,1S19.6,12,19,12L19,12z M18,3H6v4h12V3z"/>
	</g>
</g>
<rect class="st0" width="24" height="24"/>
</svg>
