<?xml version="1.0" encoding="utf-8"?>
<!-- Generator: Adobe Illustrator 20.1.0, SVG Export Plug-In . SVG Version: 6.00 Build 0)  -->
<svg version="1.1" id="Layer_1" xmlns="http://www.w3.org/2000/svg" xmlns:xlink="http://www.w3.org/1999/xlink" x="0px" y="0px"
	 viewBox="0 0 24 24" style="enable-background:new 0 0 24 24;" xml:space="preserve">
<style type="text/css">
	.st0{fill:none;}
</style>
<title>pumpkin</title>
<g id="EUXICONS">
	<g id="holiday_light_pumpkin">
		<path id="Combined-Shape" d="M13.3,13l-1.4-2.4L10.6,13L13.3,13z M16.9,10.4c-0.5-0.7-1.4-0.8-2.1-0.3c-0.7,0.5-0.8,1.4-0.3,2.1
			c0.5,0.7,1.4,0.8,2.1,0.3c0.4-0.3,0.6-0.7,0.6-1.2C17.2,11,17.1,10.7,16.9,10.4 M8.2,9.8c-0.8,0-1.5,0.7-1.5,1.5
			c0,0.8,0.7,1.5,1.5,1.5s1.5-0.7,1.5-1.5c0-0.3-0.1-0.6-0.3-0.9C9.1,10,8.7,9.8,8.2,9.8z M17.1,13.5c0,0-1.2,0.5-4.1,0.6v0.6H11
			v-0.6c-2.9-0.1-4.1-0.6-4.1-0.6c0.4,0.7,0.9,1.4,1.6,1.9l0.4-0.8l1.7,0.9l-0.4,0.7c1.1,0.3,2.3,0.3,3.4,0l-0.4-0.8l0.9-0.4
			l0.9-0.4l0.4,0.9C16.1,15,16.7,14.3,17.1,13.5 M17.8,18.3c-0.2,0.1-0.3,0.1-0.5,0.1c-0.3,0-0.6-0.1-0.8-0.2l-0.1,0l-0.2,0.1
			L16,18.3c-0.2,0.1-0.4,0.1-0.7,0.1c-0.6,0-1.1-0.2-1.6-0.6l0,0l-0.3-0.2l0,0.1c-0.5,0.8-1.5,1-2.3,0.6c-0.2-0.1-0.4-0.3-0.6-0.6
			c-0.1,0.1-0.2,0.1-0.2,0.2L10.2,18c-0.6,0.4-1.3,0.5-1.9,0.4c-0.2,0-0.4-0.1-0.6-0.2c-0.3,0.2-0.6,0.3-0.9,0.3H6.6l0,0H6.5l-0.2,0
			c-1.8-0.4-3.1-2.6-3.1-5.2c0-2.9,1.6-5.2,3.6-5.3c0.1,0,0.2,0,0.3,0c0.3,0,0.5,0.1,0.8,0.2l0.1,0c0.9-0.4,1.9-0.2,2.4,0.6
			c0.6-0.9,1.8-1.1,2.7-0.4c0.2,0.1,0.3,0.3,0.4,0.4l0,0.1c0.5-0.8,1.6-1.1,2.5-0.7l0,0c0.2-0.1,0.5-0.2,0.7-0.2H17l0,0
			c2.1,0,3.7,2.4,3.7,5.3C20.7,15.7,19.5,17.8,17.8,18.3 M17,6.5c-0.3,0-0.6,0-0.9,0.1c-0.9-0.2-1.8-0.1-2.6,0.4
			c-0.1-0.1-0.2-0.1-0.3-0.2V4.3h-2.4v2.4c-0.1,0.1-0.2,0.1-0.3,0.2C9.9,6.7,9.4,6.5,8.8,6.5c-0.3,0-0.6,0-0.9,0.1l0,0
			C7.6,6.5,7.3,6.5,7,6.5c-2.8,0-5,2.9-5,6.6s2.2,6.6,5,6.6c0.3,0,0.6,0,0.9-0.1l0,0c0.3,0.1,0.6,0.1,0.9,0.1c0.6,0,1.2-0.1,1.7-0.4
			c0.9,0.6,2.1,0.6,3-0.1c0.5,0.3,1.2,0.5,1.8,0.5c0.3,0,0.6,0,0.8-0.1c0.3,0.1,0.6,0.1,0.9,0.1c2.8,0,5-2.9,5-6.6S19.8,6.5,17,6.5"
			/>
	</g>
</g>
<rect class="st0" width="24" height="24"/>
</svg>
