<?xml version="1.0" encoding="utf-8"?>
<!-- Generator: Adobe Illustrator 20.1.0, SVG Export Plug-In . SVG Version: 6.00 Build 0)  -->
<svg version="1.1" id="Layer_1" xmlns="http://www.w3.org/2000/svg" xmlns:xlink="http://www.w3.org/1999/xlink" x="0px" y="0px"
	 viewBox="0 0 24 24" style="enable-background:new 0 0 24 24;" xml:space="preserve">
<style type="text/css">
	.st0{fill:none;}
</style>
<title>qr_code</title>
<g id="EUXICONS">
	<g id="qr_code">
		<path id="Shape" d="M7.5,16.5v1.8H5.6v-1.8H7.5z M7.5,5.6v1.8H5.6V5.6L7.5,5.6z M18.4,5.6v1.8h-1.8V5.6L18.4,5.6z M3.8,20.2h5.5
			v-5.4H3.8V20.2z M3.8,9.3h5.5V3.8H3.8V9.3z M14.7,9.3h5.5V3.8h-5.5V9.3z M11.1,12.9V22H2v-9.1L11.1,12.9z M18.4,20.2V22h-1.8v-1.8
			H18.4z M22,20.2V22h-1.8v-1.8H22z M22,12.9v5.5h-5.5v-1.8h-1.8V22h-1.8v-9.1h5.5v1.8h1.8v-1.8H22z M11.1,2v9.1H2V2H11.1z M22,2
			v9.1h-9.1V2H22z"/>
	</g>
</g>
<rect class="st0" width="24" height="24"/>
</svg>
