<?xml version="1.0" encoding="utf-8"?>
<!-- Generator: Adobe Illustrator 20.1.0, SVG Export Plug-In . SVG Version: 6.00 Build 0)  -->
<svg version="1.1" id="Layer_1" xmlns="http://www.w3.org/2000/svg" xmlns:xlink="http://www.w3.org/1999/xlink" x="0px" y="0px"
	 viewBox="0 0 24 24" style="enable-background:new 0 0 24 24;" xml:space="preserve">
<style type="text/css">
	.st0{fill:none;}
</style>
<title>rain</title>
<g id="EUXICONS">
	<g id="rain">
		<path id="weather_rain" d="M18.3,15.5c0,0,3.2,0,3.7-3.1c0.1-2-1.2-3.7-3.1-4.1c0,0,0.4-5.1-4.3-5.7c-2.3-0.2-4.5,1.1-5.2,3.3
			C8.5,5.1,7.4,5,6.5,5.6C5.6,6.2,5.1,7.2,5.3,8.2C3.4,8.6,2,10.2,2,12.1c0.1,3.3,3.5,3.3,3.5,3.3L18.3,15.5z M6.3,17.5
			c-0.2,0.4-0.5,0.7-0.8,1.1c-0.3,0.3-0.5,0.8-0.6,1.3c0,0.5,0.2,0.9,0.5,1.2c0.7,0.7,1.8,0.7,2.4,0c0.3-0.3,0.5-0.7,0.5-1.2
			c0-0.5-0.2-0.9-0.6-1.3c-0.3-0.3-0.6-0.7-0.8-1.1c-0.2-0.4-0.3-0.7-0.4-1.1C6.6,16.8,6.5,17.1,6.3,17.5z M11.8,17.5
			c-0.2,0.4-0.5,0.7-0.8,1.1c-0.3,0.3-0.5,0.8-0.6,1.3c0,0.5,0.2,0.9,0.5,1.2c0.7,0.7,1.8,0.7,2.4,0c0.3-0.3,0.5-0.7,0.5-1.2
			c0-0.5-0.2-0.9-0.6-1.3c-0.3-0.3-0.6-0.7-0.8-1.1c-0.2-0.4-0.3-0.7-0.4-1.1C12.2,16.8,12,17.1,11.8,17.5L11.8,17.5z M17.4,17.5
			c-0.2,0.4-0.5,0.7-0.8,1.1c-0.3,0.3-0.5,0.8-0.6,1.3c0,0.5,0.2,0.9,0.5,1.2c0.7,0.7,1.8,0.7,2.4,0c0.3-0.3,0.5-0.7,0.5-1.2
			c0-0.5-0.2-0.9-0.6-1.3c-0.3-0.3-0.6-0.7-0.8-1.1c-0.2-0.4-0.3-0.7-0.4-1.1C17.7,16.8,17.6,17.1,17.4,17.5z"/>
	</g>
</g>
<rect class="st0" width="24" height="24"/>
</svg>
