<?xml version="1.0" encoding="utf-8"?>
<!-- Generator: Adobe Illustrator 20.1.0, SVG Export Plug-In . SVG Version: 6.00 Build 0)  -->
<svg version="1.1" id="Layer_1" xmlns="http://www.w3.org/2000/svg" xmlns:xlink="http://www.w3.org/1999/xlink" x="0px" y="0px"
	 viewBox="0 0 24 24" style="enable-background:new 0 0 24 24;" xml:space="preserve">
<style type="text/css">
	.st0{fill:none;}
</style>
<title>receipts</title>
<g id="EUXICONS">
	<g id="receipts">
		<path id="Shape" d="M18.3,4.8H5.8V3.3h12.6V4.8z M18.3,7.5H5.8V6.1h12.6V7.5z M14.2,12h-1.4v-0.1l0,0v0l0,0c0-0.1,0-0.3-0.1-0.4
			c-0.2-0.1-0.4-0.2-0.6-0.2l0,0c-0.2,0-0.4,0.1-0.6,0.2c-0.1,0.1-0.2,0.3-0.1,0.4V12c0,0,0,0.4,0.8,0.6c2,0.4,2,1.5,2,1.9
			c0,0,0,0,0,0c0,0.5-0.2,1-0.6,1.4c-0.2,0.2-0.5,0.4-0.8,0.5v0.8h-1.5v-0.8c-0.9-0.2-1.5-1-1.3-1.9h1.4c0,0.6,0,0.7,0.7,0.7
			c0.2,0,0.4,0,0.6-0.2c0.1-0.1,0.2-0.2,0.2-0.4c0,0,0-0.1,0-0.1c0-0.2,0-0.4-0.9-0.6c-0.6-0.1-1.2-0.4-1.6-0.9
			c-0.3-0.3-0.4-0.8-0.3-1.2c0-0.5,0.2-1,0.6-1.4c0.2-0.2,0.5-0.3,0.8-0.4V9.3h1.5V10c0.3,0.1,0.6,0.3,0.8,0.5
			c0.3,0.4,0.5,0.9,0.5,1.4L14.2,12L14.2,12z M3.6,2l0.1,20l3.5-2.7l1.9,2.3l2.9-2.3l2.9,2.4l1.9-2.4l3.6,2.6L20.3,2H3.6z"/>
	</g>
</g>
<rect class="st0" width="24" height="24"/>
</svg>
