<svg id="Layer_1" data-name="Layer 1" xmlns="http://www.w3.org/2000/svg" viewBox="0 0 24 24"><defs><style>.cls-1{fill:none;}</style></defs><title>refund</title><rect class="cls-1" width="24" height="24"/><path d="M11,6.81v.7a2.9,2.9,0,0,0-1.74.69,2,2,0,0,0-.58,1.54A2.63,2.63,0,0,0,9,10.95a2.46,2.46,0,0,0,.65.83,16,16,0,0,0,1.42.92,1.59,1.59,0,0,1,.73.69,3.64,3.64,0,0,1,.11,1.05.72.72,0,0,1-.11.44.4.4,0,0,1-.34.15.32.32,0,0,1-.34-.21,4.87,4.87,0,0,1-.07-1.1v-.54H8.76v.43a2.6,2.6,0,0,0,.68,2.05,2.79,2.79,0,0,0,1.6.67v.85h1.05v-.82a2.73,2.73,0,0,0,1.76-.82,2.68,2.68,0,0,0,.59-1.84,3,3,0,0,0-.22-1.22,2.08,2.08,0,0,0-.53-.76A9.18,9.18,0,0,0,12.5,11a8.39,8.39,0,0,1-1.23-.8,1,1,0,0,1-.21-.72.83.83,0,0,1,.1-.46.35.35,0,0,1,.31-.15.33.33,0,0,1,.34.18,2.28,2.28,0,0,1,.08.76v.36h2.28q0-.28,0-.41a2.11,2.11,0,0,0-.53-1.52,2.54,2.54,0,0,0-1.58-.68v-.7Z"/><path d="M11.58,2A10.58,10.58,0,0,0,4.42,4.75L2.59,3V8.7H8.53L6.37,6.63a7.79,7.79,0,0,1,5.21-2A7.51,7.51,0,0,1,19.24,12a7.51,7.51,0,0,1-7.66,7.35,7.72,7.72,0,0,1-6.47-3.42H2A10.44,10.44,0,0,0,11.58,22,10.22,10.22,0,0,0,22,12,10.22,10.22,0,0,0,11.58,2Z"/></svg>