<?xml version="1.0" encoding="utf-8"?>
<!-- Generator: Adobe Illustrator 20.1.0, SVG Export Plug-In . SVG Version: 6.00 Build 0)  -->
<svg version="1.1" id="Layer_1" xmlns="http://www.w3.org/2000/svg" xmlns:xlink="http://www.w3.org/1999/xlink" x="0px" y="0px"
	 viewBox="0 0 24 24" style="enable-background:new 0 0 24 24;" xml:space="preserve">
<style type="text/css">
	.st0{fill:none;}
</style>
<title>register</title>
<g>
	<path d="M20.2,2.9H3.8C2.8,2.9,2,3.7,2,4.7v10.9c0,1,0.8,1.8,1.8,1.8h6.4v1.8H8.4v1.8h7.3v-1.8h-1.8v-1.8h6.4c1,0,1.8-0.8,1.8-1.8
		V4.7C22,3.7,21.2,2.9,20.2,2.9z M20.2,15.6H3.8V4.7h16.4V15.6z"/>
	<path d="M10.5,9.8c0.4,0.3,0.8,0.5,1.2,0.8c0.3,0.1,0.5,0.3,0.6,0.6c0.1,0.3,0.1,0.6,0.1,0.9c0,0.1,0,0.3-0.1,0.4
		c-0.1,0.1-0.2,0.1-0.3,0.1c-0.1,0-0.2-0.1-0.3-0.2c-0.1-0.3-0.1-0.6-0.1-0.9V11H9.8v0.4c-0.1,0.6,0.1,1.3,0.6,1.7
		c0.4,0.3,0.8,0.5,1.3,0.6v0.7h0.9v-0.7c0.6,0,1.1-0.3,1.4-0.7c0.3-0.4,0.5-1,0.5-1.6c0-0.4,0-0.7-0.2-1c-0.1-0.2-0.2-0.5-0.4-0.6
		c-0.3-0.2-0.6-0.4-1-0.6c-0.4-0.2-0.7-0.4-1-0.7c-0.1-0.2-0.2-0.4-0.2-0.6c0-0.1,0-0.3,0.1-0.4c0.1-0.1,0.2-0.1,0.3-0.1
		c0.1,0,0.2,0.1,0.3,0.2c0.1,0.2,0.1,0.4,0.1,0.6v0.3h1.9c0-0.2,0-0.3,0-0.3c0-0.5-0.1-0.9-0.4-1.3c-0.3-0.3-0.8-0.5-1.3-0.6V5.6
		h-0.9v0.6c-0.5,0-1,0.2-1.4,0.6C9.9,7.2,9.7,7.6,9.8,8.1c0,0.4,0.1,0.7,0.2,1C10.1,9.4,10.3,9.6,10.5,9.8z"/>
</g>
<rect class="st0" width="24" height="24"/>
</svg>
