<svg id="Layer_1" data-name="Layer 1" xmlns="http://www.w3.org/2000/svg" viewBox="0 0 24 24"><defs><style>.cls-1{fill:none;}</style></defs><title>register_scan</title><rect class="cls-1" width="24" height="24"/><path d="M20.11,3H3.79A1.78,1.78,0,0,0,2,4.79V15.63a1.78,1.78,0,0,0,1.79,1.79h6.37v1.79H8.37V21h7.26V19.21H13.84V17.42h6.37A1.78,1.78,0,0,0,22,15.63V4.79A1.94,1.94,0,0,0,20.11,3Zm0,12.64H3.79V4.79H20.11Z"/><rect x="13.52" y="6.74" width="0.71" height="6.6"/><rect x="14.95" y="6.74" width="1.17" height="6.6"/><polygon points="16.62 7.75 17.08 7.75 17.08 5.82 16.73 5.82 14.95 5.82 14.95 6.28 16.62 6.28 16.62 7.75"/><rect x="7.88" y="6.74" width="1.17" height="6.6"/><polygon points="17.08 14.31 17.08 12.38 16.62 12.38 16.62 13.8 14.95 13.8 14.95 14.26 16.73 14.31 17.08 14.31"/><polygon points="9.05 13.85 7.38 13.85 7.38 13.8 7.38 12.38 6.92 12.38 6.92 14.31 9.05 14.31 9.05 13.85"/><rect x="10.02" y="6.74" width="2.59" height="6.6"/><polygon points="7.38 6.23 9.05 6.23 9.05 5.77 7.38 5.77 6.92 5.77 6.92 7.7 7.38 7.7 7.38 6.23"/></svg>