<?xml version="1.0" encoding="utf-8"?>
<!-- Generator: Adobe Illustrator 20.1.0, SVG Export Plug-In . SVG Version: 6.00 Build 0)  -->
<svg version="1.1" id="Layer_1" xmlns="http://www.w3.org/2000/svg" xmlns:xlink="http://www.w3.org/1999/xlink" x="0px" y="0px"
	 viewBox="0 0 24 24" style="enable-background:new 0 0 24 24;" xml:space="preserve">
<style type="text/css">
	.st0{fill:none;}
</style>
<title>remove_cart</title>
<g id="EUXICONS">
	<g id="remove_cart">
		<path id="Shape" d="M22,20.9L4.4,3.3L3.8,2.6L3.1,2L2,3.1L5.9,7l1.9,4.1l-1.2,2.2c-0.2,0.3-0.2,0.5-0.2,0.8c0,1,0.8,1.8,1.8,1.8
			h6.6l1.2,1.2c-0.8,0.6-0.9,1.7-0.4,2.5c0.6,0.8,1.7,0.9,2.5,0.4c0.1-0.1,0.3-0.2,0.4-0.4l2.5,2.5L22,20.9z M8.5,14.1
			c-0.1,0-0.2-0.1-0.2-0.2l0,0v-0.1l0.8-1.4h2.1l1.8,1.8L8.5,14.1z M15.7,12.3c0.6,0,1.2-0.3,1.5-0.9l3.1-5.7
			c0.1-0.1,0.1-0.3,0.1-0.4c0-0.5-0.4-0.9-0.9-0.9H7.8L15.7,12.3L15.7,12.3z M8.2,16.7c-1,0-1.8,0.8-1.8,1.8c0,1,0.8,1.8,1.8,1.8
			c1,0,1.8-0.8,1.8-1.8l0,0C10,17.5,9.2,16.7,8.2,16.7C8.2,16.7,8.2,16.7,8.2,16.7z"/>
	</g>
</g>
<rect class="st0" width="24" height="24"/>
</svg>
