<?xml version="1.0" encoding="utf-8"?>
<!-- Generator: Adobe Illustrator 20.1.0, SVG Export Plug-In . SVG Version: 6.00 Build 0)  -->
<svg version="1.1" id="Layer_1" xmlns="http://www.w3.org/2000/svg" xmlns:xlink="http://www.w3.org/1999/xlink" x="0px" y="0px"
	 viewBox="0 0 24 24" style="enable-background:new 0 0 24 24;" xml:space="preserve">
<style type="text/css">
	.st0{fill:none;}
</style>
<title>returns</title>
<g id="EUXICONS">
	<g id="returns">
		<path id="Combined-Shape" d="M22,7.4L14.9,4L12,5.6L8.9,4L2,7.3l3.3,1.8l-3.2,1.7L5.9,13v3.5L12,20l6.1-3.5v-3.6l3.8-2.2l-3-1.5
			L22,7.4z M12.7,15.3v-2.5l2.6,1.4l1.2-0.7v2l-3.8,2.2L12.7,15.3L12.7,15.3z M7.5,15.6v-1.9l1,0.6l2.8-1.5v2.5v2.5L7.5,15.6
			L7.5,15.6z M5.4,10.8l1.8-1l3.3,1.8l-2,1C8.6,12.7,5.4,10.8,5.4,10.8z M5.5,7.4l3.4-1.6l1.6,0.8L7.2,8.3L5.5,7.4z M13.5,6.6
			L15,5.8l3.5,1.7l-1.6,0.8L13.5,6.6z M8.7,9.1L12,7.4l3.4,1.8L12,10.9L8.7,9.1L8.7,9.1z M13.4,11.7l3.5-1.8l1.7,0.9l-3.3,2
			L13.4,11.7L13.4,11.7z"/>
	</g>
</g>
<rect class="st0" width="24" height="24"/>
</svg>
