<?xml version="1.0" encoding="utf-8"?>
<!-- Generator: Adobe Illustrator 20.1.0, SVG Export Plug-In . SVG Version: 6.00 Build 0)  -->
<svg version="1.1" id="Layer_1" xmlns="http://www.w3.org/2000/svg" xmlns:xlink="http://www.w3.org/1999/xlink" x="0px" y="0px"
	 viewBox="0 0 24 24" style="enable-background:new 0 0 24 24;" xml:space="preserve">
<style type="text/css">
	.st0{fill:none;}
</style>
<title>router</title>
<g id="EUXICONS">
	<g id="router">
		<path id="Shape" d="M21.1,5.2L22,4.3c-3-3.1-7.9-3.1-11-0.1c0,0-0.1,0.1-0.1,0.1l0.9,0.9C13,4,14.7,3.4,16.4,3.3
			C18.2,3.4,19.8,4,21.1,5.2L21.1,5.2z M20.1,6.1c-2-2-5.2-2.1-7.2-0.1c0,0-0.1,0.1-0.1,0.1L13.7,7c1.6-1.5,4-1.5,5.6,0L20.1,6.1z
			 M19.8,13.1h-2.2V8.7h-2.2v4.4H4.2c-1.2,0-2.2,1-2.2,2.2v4.4C2,21,3,22,4.2,22h15.5c1.2,0,2.2-1,2.2-2.2v-4.4
			C22,14.1,21,13.1,19.8,13.1L19.8,13.1z M7.6,18.7H5.3v-2.2h2.2V18.7z M11.4,18.7H9.2v-2.2h2.2L11.4,18.7L11.4,18.7z M15.3,18.7
			h-2.2v-2.2h2.2L15.3,18.7L15.3,18.7z"/>
	</g>
</g>
<rect class="st0" width="24" height="24"/>
</svg>
