<?xml version="1.0" encoding="utf-8"?>
<!-- Generator: Adobe Illustrator 20.1.0, SVG Export Plug-In . SVG Version: 6.00 Build 0)  -->
<svg version="1.1" id="Layer_1" xmlns="http://www.w3.org/2000/svg" xmlns:xlink="http://www.w3.org/1999/xlink" x="0px" y="0px"
	 viewBox="0 0 24 24" style="enable-background:new 0 0 24 24;" xml:space="preserve">
<style type="text/css">
	.st0{fill:none;}
</style>
<title>satisfied</title>
<g id="EUXICONS">
	<g id="sentiment_satisfied">
		<path id="Combined-Shape" d="M15.5,11c0.8,0,1.5-0.7,1.5-1.5C17,8.7,16.3,8,15.5,8C14.7,8,14,8.7,14,9.5v0
			C14,10.3,14.7,11,15.5,11z M8.5,11c0.8,0,1.5-0.7,1.5-1.5C10,8.7,9.3,8,8.5,8C7.7,8,7,8.7,7,9.5C7,10.3,7.7,11,8.5,11z M12,2
			C6.5,2,2,6.5,2,12s4.5,10,10,10s10-4.5,10-10S17.5,2,12,2z M12,20c-4.4,0-8-3.6-8-8s3.6-8,8-8c4.4,0,8,3.6,8,8c0,0,0,0,0,0
			C20,16.4,16.4,20,12,20z M12,16c-1.4,0-2.7-0.8-3.5-2H6.9c1.1,2.8,4.3,4.2,7.1,3.1c1.4-0.6,2.6-1.7,3.1-3.1h-1.7
			C14.7,15.2,13.4,16,12,16z"/>
	</g>
</g>
<rect class="st0" width="24" height="24"/>
</svg>
