<?xml version="1.0" encoding="utf-8"?>
<!-- Generator: Adobe Illustrator 20.1.0, SVG Export Plug-In . SVG Version: 6.00 Build 0)  -->
<svg version="1.1" id="Layer_1" xmlns="http://www.w3.org/2000/svg" xmlns:xlink="http://www.w3.org/1999/xlink" x="0px" y="0px"
	 viewBox="0 0 24 24" style="enable-background:new 0 0 24 24;" xml:space="preserve">
<style type="text/css">
	.st0{fill:none;}
</style>
<title>save</title>
<g id="EUXICONS">
	<g id="save">
		<path id="Shape" d="M17.6,2H4.2C3,2,2,3,2,4.2c0,0,0,0,0,0v15.5C2,21,3,22,4.2,22c0,0,0,0,0,0h15.5c1.2,0,2.2-1,2.2-2.2V6.4
			L17.6,2z M12,19.8c-1.8,0-3.3-1.5-3.3-3.3s1.5-3.3,3.3-3.3s3.3,1.5,3.3,3.3l0,0C15.3,18.3,13.8,19.8,12,19.8z M15.3,8.7H4.2V4.2
			h11.1V8.7L15.3,8.7z"/>
	</g>
</g>
<rect class="st0" width="24" height="24"/>
</svg>
