<?xml version="1.0" encoding="utf-8"?>
<!-- Generator: Adobe Illustrator 20.1.0, SVG Export Plug-In . SVG Version: 6.00 Build 0)  -->
<svg version="1.1" id="Layer_1" xmlns="http://www.w3.org/2000/svg" xmlns:xlink="http://www.w3.org/1999/xlink" x="0px" y="0px"
	 viewBox="0 0 24 24" style="enable-background:new 0 0 24 24;" xml:space="preserve">
<style type="text/css">
	.st0{fill:none;}
</style>
<title>saw_blade</title>
<g id="EUXICONS">
	<g id="sawcut">
		<path id="Shape" d="M11.9,13.6c-1,0-1.7-0.8-1.7-1.7s0.8-1.7,1.7-1.7c1,0,1.7,0.8,1.7,1.7C13.6,12.8,12.9,13.6,11.9,13.6z
			 M19.5,10.5L19.5,10.5z M19.5,13.9C19.5,13.9,19.5,13.9,19.5,13.9c0-0.1,0.1-0.2,0.1-0.2c0.5-0.4,2.2-1.7,2.4-3.4
			c0,0-2.2,1.2-2.5,0.3c0-0.1,0-0.2,0.1-0.3c0.3-0.5,1.4-2.4,0.9-4.1c0,0-1.6,2-2.2,1.2c-0.1-0.1-0.1-0.2-0.1-0.3
			c0-0.6-0.1-2.8-1.4-3.9c0,0-0.3,2.6-1.2,2.2c-0.1,0-0.2-0.1-0.2-0.3c-0.2-0.6-1.1-2.6-2.7-3.1c0,0,0.6,2.4-0.3,2.5
			c-0.1,0-0.2-0.1-0.3-0.1c-0.4-0.4-2.2-1.8-3.9-1.6c0,0,1.6,1.8,0.8,2.3c-0.1,0-0.2,0-0.3,0c-0.5-0.2-2.6-1-4.2-0.1
			c0,0,2.1,1.1,1.6,1.9C6.2,7.1,6.1,7.2,5.9,7.2C5.4,7.3,3.2,7.6,2.2,9.1c0,0,2.5-0.1,2.3,0.9c0,0.1-0.1,0.2-0.2,0.2
			c-0.5,0.3-2.3,1.7-2.4,3.4c0,0,2.2-1.2,2.5-0.3c0,0.1,0,0.2,0,0.2C4.2,14.1,3,16,3.6,17.7c0,0,1.6-2,2.2-1.2
			c0.1,0.1,0.1,0.2,0.1,0.3c0,0.6,0.1,2.8,1.4,3.9c0,0,0.4-2.5,1.3-2.2c0.1,0,0.1,0.1,0.1,0.2c0.2,0.5,1.1,2.6,2.7,3.2
			c0,0-0.6-2.5,0.4-2.5h0.1c0,0,0.1,0,0.1,0.1c0.4,0.4,2.1,1.9,3.9,1.6c0,0-1.7-1.9-0.8-2.4c0.1,0,0.2,0,0.3,0.1
			c0.7,0.2,2.6,0.9,4.1,0.1c0,0-2.2-1.2-1.6-1.9c0.1-0.1,0.1-0.1,0.2-0.1c0.6-0.1,2.8-0.5,3.7-1.9C21.8,14.9,19.2,14.9,19.5,13.9
			L19.5,13.9z"/>
	</g>
</g>
<rect class="st0" width="24" height="24"/>
</svg>
