<?xml version="1.0" encoding="utf-8"?>
<!-- Generator: Adobe Illustrator 20.1.0, SVG Export Plug-In . SVG Version: 6.00 Build 0)  -->
<svg version="1.1" id="Layer_1" xmlns="http://www.w3.org/2000/svg" xmlns:xlink="http://www.w3.org/1999/xlink" x="0px" y="0px"
	 viewBox="0 0 24 24" style="enable-background:new 0 0 24 24;" xml:space="preserve">
<style type="text/css">
	.st0{fill:none;}
</style>
<title>scan</title>
<g id="EUXICONS">
	<g id="scan">
		<path id="Combined-Shape" d="M21.3,3.7H22v3.8h-0.9V4.6h-3.3V3.7H21.3z M21.3,20.4H22v-3.8h-0.9v2.8h-3.3v0.9L21.3,20.4z
			 M2.9,19.4v-2.8H2v3.8h4.2v-0.9H2.9z M2.9,3.6H2v3.8h0.9V4.5h3.3V3.6H2.9z M3.9,5.5h2.3v13H3.9V5.5z M15,5.5h1.4v13H15V5.5z
			 M8.1,5.5h5.1v13H8.1V5.5z M17.8,5.5h2.3v13h-2.3V5.5z"/>
	</g>
</g>
<rect class="st0" width="24" height="24"/>
</svg>
