<?xml version="1.0" encoding="utf-8"?>
<!-- Generator: Adobe Illustrator 20.1.0, SVG Export Plug-In . SVG Version: 6.00 Build 0)  -->
<svg version="1.1" id="Layer_1" xmlns="http://www.w3.org/2000/svg" xmlns:xlink="http://www.w3.org/1999/xlink" x="0px" y="0px"
	 viewBox="0 0 24 24" style="enable-background:new 0 0 24 24;" xml:space="preserve">
<style type="text/css">
	.st0{fill:none;}
</style>
<title>search</title>
<g id="EUXICONS">
	<g id="search">
		<path id="Shape" d="M16.3,14.6h-0.9l-0.3-0.3c2.7-3.1,2.3-7.8-0.8-10.5S6.4,1.5,3.8,4.6s-2.3,7.8,0.8,10.5c2.8,2.4,6.9,2.4,9.7,0
			l0.3,0.3v0.9l5.7,5.7l1.7-1.7L16.3,14.6L16.3,14.6z M9.4,14.6c-2.8,0-5.1-2.3-5.1-5.1s2.3-5.1,5.1-5.1s5.1,2.3,5.1,5.1l0,0
			C14.6,12.3,12.3,14.6,9.4,14.6C9.4,14.6,9.4,14.6,9.4,14.6z"/>
	</g>
</g>
<rect class="st0" width="24" height="24"/>
</svg>
