<svg id="Layer_1" data-name="Layer 1" xmlns="http://www.w3.org/2000/svg" viewBox="0 0 24 24"><defs><style>.cls-1{fill:#231f20;fill-rule:evenodd;}.cls-2{fill:none;}</style></defs><title>shelf_credit</title><path class="cls-1" d="M5.75,13.93a.51.51,0,0,0,.16.39,2,2,0,0,0,.53.31V13.37Q5.75,13.47,5.75,13.93Z" transform="translate(0 0)"/><path class="cls-1" d="M7.18,16.49v1.34q.73-.12.73-.63a.48.48,0,0,0-.18-.38A2.4,2.4,0,0,0,7.18,16.49Z" transform="translate(0 0)"/><path class="cls-1" d="M10.39,7.81,2,8.77V22H22V10.06l-7.42,3.87ZM8.91,18.48a3.07,3.07,0,0,1-1.73.62v1.1H6.45V19.12a6,6,0,0,1-2.3-.46V17.24a6.19,6.19,0,0,0,1.13.41,6,6,0,0,0,1.17.21V16.2l-.36-.14a4,4,0,0,1-1.51-.91,1.75,1.75,0,0,1-.44-1.22,1.59,1.59,0,0,1,.61-1.28A3.1,3.1,0,0,1,6.45,12v-.82h.74V12a6.1,6.1,0,0,1,2.22.49l-.5,1.26a5.81,5.81,0,0,0-1.72-.42v1.58a8.26,8.26,0,0,1,1.49.7,2,2,0,0,1,.65.65,1.61,1.61,0,0,1,.21.83A1.7,1.7,0,0,1,8.91,18.48Z" transform="translate(0 0)"/><polygon class="cls-1" points="2 2 2 6.52 10.71 5.23 14.9 9.42 22 7.48 22 2 2 2"/><rect class="cls-2" width="24" height="24"/></svg>