<?xml version="1.0" encoding="utf-8"?>
<!-- Generator: Adobe Illustrator 20.1.0, SVG Export Plug-In . SVG Version: 6.00 Build 0)  -->
<svg version="1.1" id="Layer_1" xmlns="http://www.w3.org/2000/svg" xmlns:xlink="http://www.w3.org/1999/xlink" x="0px" y="0px"
	 viewBox="0 0 24 24" style="enable-background:new 0 0 24 24;" xml:space="preserve">
<style type="text/css">
	.st0{fill:none;}
</style>
<title>shipping</title>
<g id="EUXICONS">
	<g id="shipping">
		<path id="Combined-Shape" d="M2,5.1v11.6h2.2c0.2-1.6,1.7-2.6,3.2-2.4c1.2,0.2,2.2,1.2,2.4,2.4c0,0.2,0,0.3,0,0.5
			c0,0.1,0,0.2,0,0.3h1.5l0-12.3H2z M19.3,10.6l-0.6-4.4l-0.1-1.1h-5.8v12.3h2.2c0-0.1,0-0.2,0-0.3c0-0.2,0-0.3,0-0.5
			c0.2-1.6,1.7-2.6,3.2-2.4c1.2,0.2,2.1,1,2.4,2.2H22v-5.2L19.3,10.6z M17.8,15.4c-1,0-1.8,0.7-1.8,1.7c0,1,0.7,1.8,1.7,1.8
			c1,0,1.8-0.7,1.8-1.7c0,0,0,0,0,0C19.5,16.2,18.7,15.4,17.8,15.4z M7,15.4c-1,0-1.8,0.7-1.8,1.7c0,1,0.7,1.8,1.7,1.8
			c1,0,1.8-0.7,1.8-1.7c0,0,0,0,0,0C8.8,16.2,8,15.4,7,15.4z"/>
	</g>
</g>
<rect class="st0" width="24" height="24"/>
</svg>
