<?xml version="1.0" encoding="utf-8"?>
<!-- Generator: Adobe Illustrator 20.1.0, SVG Export Plug-In . SVG Version: 6.00 Build 0)  -->
<svg version="1.1" id="Layer_1" xmlns="http://www.w3.org/2000/svg" xmlns:xlink="http://www.w3.org/1999/xlink" x="0px" y="0px"
	 viewBox="0 0 24 24" style="enable-background:new 0 0 24 24;" xml:space="preserve">
<style type="text/css">
	.st0{fill:none;}
</style>
<title>shower</title>
<g id="EUXICONS">
	<g id="shower">
		<path id="Combined-Shape" d="M15.6,2H3.8v2h3.7v1.6H2.2v2h12.7v-2H9.5V4h6.2C18,4,20,5.9,20,8.3V22h2V8.3C22,4.8,19.1,2,15.6,2z
			 M2,12.9c0.1,0.8,0.8,1.3,1.6,1.2c0.6-0.1,1.1-0.6,1.2-1.2c0.3-1.1-0.9-2.5-1.4-3.5C3,10.4,1.8,11.8,2,12.9z M2,19.5
			c0.1,0.8,0.8,1.3,1.6,1.2c0.6-0.1,1.1-0.6,1.2-1.2C5.2,18.4,4,17,3.5,16C3,17,1.8,18.4,2,19.5z M12,12.9c0.1,0.8,0.8,1.3,1.6,1.2
			c0.6-0.1,1.1-0.6,1.2-1.2c0.3-1.1-0.9-2.5-1.4-3.5C12.9,10.4,11.8,11.8,12,12.9L12,12.9z M12,19.5c0.1,0.8,0.8,1.3,1.6,1.2
			c0.6-0.1,1.1-0.6,1.2-1.2c0.3-1.1-0.9-2.5-1.4-3.5C12.9,17,11.8,18.4,12,19.5z M7,16.5c0.1,0.8,0.8,1.3,1.6,1.2
			c0.6-0.1,1.1-0.6,1.2-1.2c0.3-1.1-0.9-2.5-1.4-3.5C7.9,14,6.7,15.4,7,16.5z"/>
	</g>
</g>
<rect class="st0" width="24" height="24"/>
</svg>
