<?xml version="1.0" encoding="utf-8"?>
<!-- Generator: Adobe Illustrator 20.1.0, SVG Export Plug-In . SVG Version: 6.00 Build 0)  -->
<svg version="1.1" id="Layer_1" xmlns="http://www.w3.org/2000/svg" xmlns:xlink="http://www.w3.org/1999/xlink" x="0px" y="0px"
	 viewBox="0 0 24 24" style="enable-background:new 0 0 24 24;" xml:space="preserve">
<style type="text/css">
	.st0{fill:none;}
</style>
<title>snow</title>
<g id="EUXICONS">
	<g id="snow">
		<path id="weather_snow" d="M18.3,15.1c0,0,3.2,0,3.7-3.2c0.1-2-1.2-3.8-3.1-4.2c0,0,0.4-5.1-4.3-5.8c-2.3-0.2-4.5,1.2-5.2,3.4
			c-0.8-0.7-2-0.8-2.9-0.2C5.6,5.7,5.1,6.7,5.3,7.8C3.4,8.2,2,9.8,2,11.7c0.1,3.4,3.5,3.4,3.5,3.4H18.3z M6.5,20.6
			c-0.3,1.9-0.6,1.9-1,0c-1.5,1.1-1.7,0.9-0.7-0.7c-1.8-0.3-1.9-0.6,0-1c-1.1-1.5-0.9-1.7,0.7-0.7c0.3-1.9,0.6-1.9,1-0.1
			c1.5-1.1,1.8-0.9,0.7,0.7c1.9,0.3,1.9,0.6,0,1C8.3,21.4,8.1,21.6,6.5,20.6L6.5,20.6z M12,20.6c-0.3,1.9-0.6,1.9-1,0
			c-1.5,1.1-1.7,0.9-0.7-0.7c-1.9-0.3-1.9-0.6,0-1c-1.1-1.5-0.9-1.8,0.7-0.7c0.3-1.9,0.6-1.9,1,0c1.5-1.1,1.7-0.9,0.7,0.7
			c1.9,0.3,1.9,0.6,0,1C13.8,21.4,13.6,21.6,12,20.6L12,20.6z M17.6,20.6c-0.3,1.9-0.6,1.9-1,0c-1.5,1.1-1.7,0.9-0.7-0.7
			c-1.9-0.3-1.9-0.6,0-1c-1.1-1.5-0.9-1.8,0.7-0.7c0.3-1.9,0.6-1.9,1,0c1.5-1.1,1.7-0.9,0.7,0.7c1.9,0.3,1.9,0.6,0,1
			C19.4,21.4,19.2,21.6,17.6,20.6L17.6,20.6z"/>
	</g>
</g>
<rect class="st0" width="24" height="24"/>
</svg>
