<?xml version="1.0" encoding="utf-8"?>
<!-- Generator: Adobe Illustrator 20.1.0, SVG Export Plug-In . SVG Version: 6.00 Build 0)  -->
<svg version="1.1" id="Layer_1" xmlns="http://www.w3.org/2000/svg" xmlns:xlink="http://www.w3.org/1999/xlink" x="0px" y="0px"
	 viewBox="0 0 24 24" style="enable-background:new 0 0 24 24;" xml:space="preserve">
<style type="text/css">
	.st0{fill:none;}
</style>
<title>star_circle_outline</title>
<g id="Icons">
	<g id="Icons_Rating_Star-Circle-Outline">
		<path id="Combined-Shape" d="M12,14.8l3.5,2.1L14.6,13l3.1-2.6l-4-0.3L12,6.4L10.4,10l-4,0.3L9.4,13l-0.9,3.9L12,14.8z M12,2
			C6.5,2,2,6.5,2,12s4.5,10,10,10s10-4.5,10-10S17.5,2,12,2z M12,20c-4.4,0-8-3.6-8-8s3.6-8,8-8c4.4,0,8,3.6,8,8c0,0,0,0,0,0
			C20,16.4,16.4,20,12,20z"/>
	</g>
</g>
<rect class="st0" width="24" height="24"/>
</svg>
