<svg id="Layer_1" data-name="Layer 1" xmlns="http://www.w3.org/2000/svg" viewBox="0 0 24 24"><defs><style>.cls-1{fill:none;}</style></defs><title>store_menu</title><g id="EUXICONS"><g id="desktop_windows" data-name="desktop windows"><path id="Shape" d="M20.2,3H3.8A1.79,1.79,0,0,0,2,4.8V15.6a1.79,1.79,0,0,0,1.8,1.8h6.4v1.8H8.4V21h7.3V19.2H13.9V17.4h6.4a1.79,1.79,0,0,0,1.8-1.8V4.8A2,2,0,0,0,20.2,3Zm0,12.6H3.8V4.8H20.2Z"/></g></g><rect class="cls-1" width="24" height="24"/><rect x="5.01" y="6.39" width="2" height="2"/><rect x="8.01" y="6.39" width="2" height="2"/><rect x="11.01" y="6.39" width="2" height="2"/><rect x="14.01" y="6.39" width="2" height="2"/><rect x="17.01" y="6.39" width="2" height="2"/><rect x="5.01" y="9.27" width="2" height="2"/><rect x="8.01" y="9.27" width="2" height="2"/><rect x="11.01" y="9.27" width="2" height="2"/><rect x="14.01" y="9.27" width="2" height="2"/><rect x="17.01" y="9.27" width="2" height="2"/><rect x="5.01" y="12.01" width="2" height="2"/><rect x="8.01" y="12.01" width="2" height="2"/><rect x="11.01" y="12.01" width="2" height="2"/><rect x="14.01" y="12.01" width="2" height="2"/><rect x="17.01" y="12.01" width="2" height="2"/></svg>