<?xml version="1.0" encoding="utf-8"?>
<!-- Generator: Adobe Illustrator 20.1.0, SVG Export Plug-In . SVG Version: 6.00 Build 0)  -->
<svg version="1.1" id="Layer_1" xmlns="http://www.w3.org/2000/svg" xmlns:xlink="http://www.w3.org/1999/xlink" x="0px" y="0px"
	 viewBox="0 0 24 24" style="enable-background:new 0 0 24 24;" xml:space="preserve">
<style type="text/css">
	.st0{fill:none;}
</style>
<title>sunshine</title>
<g id="EUXICONS">
	<g id="sunshine">
		<path id="sun" d="M12,6.1c3.2,0,5.9,2.6,5.9,5.9s-2.6,5.9-5.9,5.9S6.2,15.3,6.1,12c0,0,0,0,0,0C6.1,8.8,8.8,6.1,12,6.1z M12,2
			l-1.6,3.3h3.3L12,2z M19.1,4.9l-3.5,1.2l2.3,2.3L19.1,4.9z M5,4.9l3.5,1.2L6.1,8.4L5,4.9z M2,12l3.3,1.7v-3.3L2,12z M22,12
			l-3.3,1.7v-3.3L22,12z M12,22l-1.7-3.3h3.3L12,22z M19.1,19.1l-3.5-1.2l2.3-2.3L19.1,19.1z M4.9,19.1l3.5-1.2l-2.3-2.3L4.9,19.1z"
			/>
	</g>
</g>
<rect class="st0" width="24" height="24"/>
</svg>
