<?xml version="1.0" encoding="utf-8"?>
<!-- Generator: Adobe Illustrator 20.1.0, SVG Export Plug-In . SVG Version: 6.00 Build 0)  -->
<svg version="1.1" id="Layer_1" xmlns="http://www.w3.org/2000/svg" xmlns:xlink="http://www.w3.org/1999/xlink" x="0px" y="0px"
	 viewBox="0 0 24 24" style="enable-background:new 0 0 24 24;" xml:space="preserve">
<style type="text/css">
	.st0{fill:none;}
</style>
<title>text_2_confirm_pending</title>
<path d="M9.7,12.1c0-0.2,0-0.3,0.2-0.4c0.1-0.1,0.3-0.2,0.4-0.1c0.2,0,0.3,0,0.4,0.1c0.1,0.1,0.2,0.3,0.1,0.4c0,0.1,0,0.3-0.2,0.4
	c-0.1,0.1-0.3,0.2-0.4,0.1c-0.2,0-0.3,0-0.4-0.1C9.7,12.4,9.7,12.3,9.7,12.1C9.7,12.1,9.7,12.1,9.7,12.1z"/>
<path d="M11.4,12.1c0-0.2,0-0.3,0.2-0.4c0.1-0.1,0.3-0.2,0.4-0.1c0.2,0,0.3,0,0.4,0.1c0.1,0.1,0.2,0.3,0.1,0.4c0,0.1,0,0.3-0.2,0.4
	c-0.1,0.1-0.3,0.2-0.4,0.1c-0.2,0-0.3,0-0.4-0.1C11.4,12.4,11.4,12.3,11.4,12.1C11.4,12.1,11.4,12.1,11.4,12.1z"/>
<path d="M13,12.1c0-0.2,0-0.3,0.2-0.4c0.1-0.1,0.3-0.2,0.4-0.1c0.2,0,0.3,0,0.4,0.1c0.1,0.1,0.2,0.3,0.2,0.4c0,0.1,0,0.3-0.2,0.4
	c-0.1,0.1-0.3,0.2-0.4,0.1c-0.2,0-0.3,0-0.4-0.1C13.1,12.4,13,12.3,13,12.1L13,12.1z"/>
<path d="M15.2,6.4c-0.2-0.2-0.5-0.4-0.8-0.3H9.6C9,6.1,8.5,6.6,8.4,7.3v9.5c0,0.6,0.5,1.2,1.2,1.2h4.7c0.6,0,1.2-0.5,1.2-1.2V7.3
	C15.5,7,15.4,6.7,15.2,6.4z M11.3,7.3h1.5c0.1,0,0.1,0.1,0.1,0.2c0,0.1-0.1,0.1-0.1,0.1h-1.5c-0.1,0-0.1-0.1-0.1-0.2
	C11.2,7.3,11.2,7.3,11.3,7.3z M12.5,17.3c-0.3,0.3-0.8,0.3-1,0c-0.3-0.3-0.3-0.8,0-1s0.8-0.3,1,0c0.1,0.1,0.2,0.3,0.2,0.5
	C12.7,16.9,12.7,17.1,12.5,17.3L12.5,17.3z M14.6,15.3c0,0.2-0.1,0.3-0.3,0.3H9.6c-0.2,0-0.3-0.1-0.3-0.3V8.7c0-0.2,0.1-0.3,0.3-0.3
	h4.7c0.2,0,0.3,0.1,0.3,0.3L14.6,15.3z"/>
<path d="M12,2C6.5,2,2,6.5,2,12s4.5,10,10,10s10-4.5,10-10S17.5,2,12,2z M12,20c-4.4,0-8-3.6-8-8s3.6-8,8-8c4.4,0,8,3.6,8,8
	c0,0,0,0,0,0C20,16.4,16.5,20,12,20C12,20,12,20,12,20z"/>
<rect class="st0" width="24" height="24"/>
</svg>
