<?xml version="1.0" encoding="utf-8"?>
<!-- Generator: Adobe Illustrator 20.1.0, SVG Export Plug-In . SVG Version: 6.00 Build 0)  -->
<svg version="1.1" id="Layer_1" xmlns="http://www.w3.org/2000/svg" xmlns:xlink="http://www.w3.org/1999/xlink" x="0px" y="0px"
	 viewBox="0 0 24 24" style="enable-background:new 0 0 24 24;" xml:space="preserve">
<style type="text/css">
	.st0{fill:none;}
</style>
<title>tablet_apple</title>
<g id="EUXICONS">
	<g id="tablet_apple">
		<path id="Shape" d="M17.8,2H6.2C5,2,4.1,2.9,4.1,4.1v15.8C4.1,21.1,5,22,6.2,22h11.7c1.1,0,2.1-0.9,2.1-2.1V4.1
			C19.9,2.9,19,2,17.8,2z M12,21.2c-0.7,0-1.2-0.6-1.2-1.2c0-0.7,0.6-1.2,1.2-1.2s1.2,0.6,1.2,1.2C13.3,20.6,12.7,21.2,12,21.2z
			 M18.3,17.8H5.8V4.5h12.5V17.8L18.3,17.8z"/>
	</g>
</g>
<rect class="st0" width="24" height="24"/>
</svg>
