<?xml version="1.0" encoding="utf-8"?>
<!-- Generator: Adobe Illustrator 20.1.0, SVG Export Plug-In . SVG Version: 6.00 Build 0)  -->
<svg version="1.1" id="Layer_1" xmlns="http://www.w3.org/2000/svg" xmlns:xlink="http://www.w3.org/1999/xlink" x="0px" y="0px"
	 viewBox="0 0 24 24" style="enable-background:new 0 0 24 24;" xml:space="preserve">
<style type="text/css">
	.st0{fill:none;}
</style>
<title>thumb_down</title>
<g id="EUXICONS">
	<g id="thumb_down">
		<path id="Shape" d="M2,2.9h3.6v10.9H2V2.9z M22,12.9c0,1-0.8,1.8-1.8,1.8h-5.7l0.9,4.2v0.3c0,0.4-0.1,0.7-0.4,1l-1,1l-5.9-6
			c-0.3-0.3-0.5-0.8-0.5-1.3V4.7c0-1,0.8-1.8,1.8-1.8h8.2c0.7,0,1.4,0.4,1.7,1.1l2.7,6.4c0.1,0.2,0.1,0.4,0.1,0.7V12.9L22,12.9
			L22,12.9z"/>
	</g>
</g>
<rect class="st0" width="24" height="24"/>
</svg>
