<?xml version="1.0" encoding="utf-8"?>
<!-- Generator: Adobe Illustrator 20.1.0, SVG Export Plug-In . SVG Version: 6.00 Build 0)  -->
<svg version="1.1" id="Layer_1" xmlns="http://www.w3.org/2000/svg" xmlns:xlink="http://www.w3.org/1999/xlink" x="0px" y="0px"
	 viewBox="0 0 24 24" style="enable-background:new 0 0 24 24;" xml:space="preserve">
<style type="text/css">
	.st0{fill:none;}
</style>
<title>thumb_up</title>
<g id="EUXICONS">
	<g id="thumb_up">
		<path id="Shape" d="M2,21.1h3.6V10.2H2V21.1z M22,11.1c0-1-0.8-1.8-1.8-1.8h-5.7l0.9-4.2V4.8c0-0.4-0.1-0.7-0.4-1L14,2.9l-6,6
			c-0.3,0.3-0.5,0.8-0.5,1.3v9.1c0,1,0.8,1.8,1.8,1.8h8.2c0.7,0,1.4-0.4,1.7-1.1l2.7-6.4c0.1-0.2,0.1-0.4,0.1-0.7V11.1L22,11.1
			L22,11.1L22,11.1z"/>
	</g>
</g>
<rect class="st0" width="24" height="24"/>
</svg>
