<?xml version="1.0" encoding="utf-8"?>
<!-- Generator: Adobe Illustrator 20.1.0, SVG Export Plug-In . SVG Version: 6.00 Build 0)  -->
<svg version="1.1" id="Layer_1" xmlns="http://www.w3.org/2000/svg" xmlns:xlink="http://www.w3.org/1999/xlink" x="0px" y="0px"
	 viewBox="0 0 24 24" style="enable-background:new 0 0 24 24;" xml:space="preserve">
<style type="text/css">
	.st0{fill:none;}
</style>
<title>timer_off</title>
<g id="EUXICONS">
	<g id="timer_off">
		<path id="Shape" d="M19,5.2l-1.3,1.3C14.9,4.3,11,4.1,8.1,6.1l1.3,1.3c3-1.8,6.9-0.7,8.7,2.3c1.1,2,1.1,4.4,0,6.3l1.3,1.3
			c2-3,1.8-6.8-0.4-9.6l1.3-1.3L19,5.2z M15.3,2H9.8v1.8h5.5L15.3,2L15.3,2z M11.7,9.7l1.8,1.8V8.4h-1.8V9.7z M4.4,4.7L3.2,5.9
			l2.5,2.5C3.2,12.1,4.3,17.2,8,19.7c2.7,1.8,6.3,1.8,9.1,0l2.3,2.3l1.2-1.2l-7-7L4.4,4.7z M12.6,19.3c-3.5,0-6.4-2.8-6.4-6.4
			c0-1.1,0.3-2.2,0.9-3.2l8.7,8.7C14.8,19,13.7,19.3,12.6,19.3L12.6,19.3z"/>
	</g>
</g>
<rect class="st0" width="24" height="24"/>
</svg>
