<?xml version="1.0" encoding="utf-8"?>
<!-- Generator: Adobe Illustrator 20.1.0, SVG Export Plug-In . SVG Version: 6.00 Build 0)  -->
<svg version="1.1" id="Layer_1" xmlns="http://www.w3.org/2000/svg" xmlns:xlink="http://www.w3.org/1999/xlink" x="0px" y="0px"
	 viewBox="0 0 24 24" style="enable-background:new 0 0 24 24;" xml:space="preserve">
<style type="text/css">
	.st0{fill:none;}
</style>
<title>timeline</title>
<g id="EUXICONS">
	<g id="timeline">
		<path id="Shape" d="M22,8.4c0,1-0.8,1.8-1.8,1.8c-0.2,0-0.3,0-0.5-0.1l-3.2,3.2c0,0.2,0.1,0.3,0.1,0.5c0,1-0.8,1.8-1.8,1.8
			c-1,0-1.8-0.8-1.8-1.8c0-0.2,0-0.3,0.1-0.5L10.7,11c-0.3,0.1-0.6,0.1-0.9,0l-4.1,4.1c0,0.2,0.1,0.3,0.1,0.5c0,1-0.8,1.8-1.8,1.8
			S2,16.6,2,15.6s0.8-1.8,1.8-1.8h0c0.2,0,0.3,0,0.5,0.1l4.1-4.1c0-0.2-0.1-0.3-0.1-0.5c0-1,0.8-1.8,1.8-1.8S12,8.3,12,9.3
			c0,0.2,0,0.3-0.1,0.5l2.3,2.3c0.3-0.1,0.6-0.1,0.9,0l3.2-3.2c0-0.2-0.1-0.3-0.1-0.5c0-1,0.8-1.8,1.8-1.8C21.2,6.5,22,7.4,22,8.4
			C22,8.4,22,8.4,22,8.4L22,8.4z"/>
	</g>
</g>
<rect class="st0" width="24" height="24"/>
</svg>
