<?xml version="1.0" encoding="utf-8"?>
<!-- Generator: Adobe Illustrator 20.1.0, SVG Export Plug-In . SVG Version: 6.00 Build 0)  -->
<svg version="1.1" id="Layer_1" xmlns="http://www.w3.org/2000/svg" xmlns:xlink="http://www.w3.org/1999/xlink" x="0px" y="0px"
	 viewBox="0 0 24 24" style="enable-background:new 0 0 24 24;" xml:space="preserve">
<style type="text/css">
	.st0{fill:none;}
</style>
<title>timer</title>
<g id="EUXICONS">
	<g id="timer">
		<path id="Shape" d="M14.9,2H9.1v1.9h5.7L14.9,2L14.9,2z M11,14.4h1.9V8.7H11C11,8.7,11,14.4,11,14.4z M18.7,8.1L20,6.7
			c-0.4-0.5-0.9-0.9-1.3-1.3l-1.3,1.3c-3.7-3-9.1-2.4-12,1.3s-2.4,9.1,1.3,12s9.1,2.4,12-1.3C21.2,15.7,21.2,11.2,18.7,8.1z
			 M12,20.1c-3.7,0-6.7-3-6.7-6.7c0-3.7,3-6.7,6.7-6.7c3.7,0,6.7,3,6.7,6.6C18.7,17.1,15.7,20.1,12,20.1C12,20.1,12,20.1,12,20.1z"
			/>
	</g>
</g>
<rect class="st0" width="24" height="24"/>
</svg>
