<?xml version="1.0" encoding="utf-8"?>
<!-- Generator: Adobe Illustrator 20.1.0, SVG Export Plug-In . SVG Version: 6.00 Build 0)  -->
<svg version="1.1" id="Layer_1" xmlns="http://www.w3.org/2000/svg" xmlns:xlink="http://www.w3.org/1999/xlink" x="0px" y="0px"
	 viewBox="0 0 24 24" style="enable-background:new 0 0 24 24;" xml:space="preserve">
<style type="text/css">
	.st0{fill:none;}
</style>
<title>touch_app</title>
<g id="EUXICONS">
	<g id="touch_app">
		<path id="Shape" d="M8.9,9.8V6.3c0-1.3,1.1-2.4,2.4-2.4c1.3,0,2.4,1.1,2.4,2.4c0,0,0,0,0,0v3.6c2-1.3,2.5-4,1.2-5.9
			s-4-2.5-5.9-1.2s-2.5,4-1.2,5.9C8,9.1,8.4,9.5,8.9,9.8z M18.3,14.3L14,12.1C13.8,12,13.6,12,13.4,12h-0.7V6.3
			C12.7,5.5,12,4.9,11.2,5c-0.7,0-1.3,0.6-1.3,1.3v10.2l-3.3-0.7c-0.1,0-0.2,0-0.2,0c-0.3,0-0.6,0.1-0.7,0.3l-0.7,0.7l4.7,4.7
			c0.3,0.3,0.6,0.4,1,0.4H17c0.7,0,1.3-0.5,1.4-1.2l0.7-5C19.2,15.1,18.9,14.5,18.3,14.3L18.3,14.3z"/>
	</g>
</g>
<rect class="st0" width="24" height="24"/>
</svg>
