<svg id="Layer_2" data-name="Layer 2" xmlns="http://www.w3.org/2000/svg" viewBox="0 0 24 24"><defs><style>.cls-1{fill:none;}</style></defs><title>touch_pad</title><ellipse cx="8.12" cy="3.53" rx="1.56" ry="1.53"/><ellipse cx="12.78" cy="3.53" rx="1.56" ry="1.53"/><ellipse cx="17.44" cy="3.53" rx="1.56" ry="1.53"/><ellipse cx="17.44" cy="8.15" rx="1.56" ry="1.53"/><ellipse cx="8.12" cy="8.15" rx="1.56" ry="1.53"/><path d="M15.54,14.31a3.32,3.32,0,0,0-1.2,1V8.15a1.55,1.55,0,0,0-1.56-1.53h0a1.55,1.55,0,0,0-1.56,1.53v3.29A1.74,1.74,0,0,0,9,11.32c-1.46.76-.9.45-2.46,1.35C5.79,13.15,5,13.3,5,14.4v3A4.64,4.64,0,0,0,9.67,22c3.69,0,8.06-5.32,9-6.59S17.6,13.18,15.54,14.31Z"/><rect class="cls-1" width="24" height="24"/></svg>