<?xml version="1.0" encoding="utf-8"?>
<!-- Generator: Adobe Illustrator 20.1.0, SVG Export Plug-In . SVG Version: 6.00 Build 0)  -->
<svg version="1.1" id="Layer_1" xmlns="http://www.w3.org/2000/svg" xmlns:xlink="http://www.w3.org/1999/xlink" x="0px" y="0px"
	 viewBox="0 0 24 24" style="enable-background:new 0 0 24 24;" xml:space="preserve">
<style type="text/css">
	.st0{fill:none;}
</style>
<title>usb</title>
<g id="EUXICONS">
	<g id="usb">
		<path id="Shape" d="M14.9,7.7v3.7h0.9v1.9H13V5.8h1.9L12.1,2L9.3,5.8h1.9v7.6H8.3v-1.9c1-0.5,1.4-1.8,0.9-2.8S7.5,7.2,6.4,7.7
			S5,9.4,5.5,10.5c0.2,0.4,0.5,0.7,0.9,0.9v1.9c0,1,0.8,1.9,1.9,1.9h2.8v2.9c-1,0.5-1.4,1.8-0.9,2.8c0.5,1,1.8,1.4,2.8,0.9
			s1.4-1.8,0.9-2.8c-0.2-0.4-0.5-0.7-0.9-0.9v-2.9h2.8c1,0,1.9-0.8,1.9-1.9v-1.9h0.9V7.7L14.9,7.7z"/>
	</g>
</g>
<rect class="st0" width="24" height="24"/>
</svg>
