<?xml version="1.0" encoding="utf-8"?>
<!-- Generator: Adobe Illustrator 20.1.0, SVG Export Plug-In . SVG Version: 6.00 Build 0)  -->
<svg version="1.1" id="Layer_1" xmlns="http://www.w3.org/2000/svg" xmlns:xlink="http://www.w3.org/1999/xlink" x="0px" y="0px"
	 viewBox="0 0 24 24" style="enable-background:new 0 0 24 24;" xml:space="preserve">
<style type="text/css">
	.st0{fill:none;}
</style>
<title>very_satisfied</title>
<g id="EUXICONS">
	<g id="sentiment_very_satisfied">
		<path id="Shape" d="M12,2C6.5,2,2,6.5,2,12s4.5,10,10,10s10-4.5,10-10S17.5,2,12,2z M12,20c-4.4,0-8-3.6-8-8s3.6-8,8-8
			c4.4,0,8,3.6,8,8c0,0,0,0,0,0C20,16.4,16.4,20,12,20z M13,9.9l1.1,1.1l1.1-1.1l1.1,1.1l1.1-1.1l-2.1-2.1L13,9.9z M8.9,9.9L9.9,11
			L11,9.9L8.9,7.8L6.8,9.9L7.8,11L8.9,9.9z M12,17.5c2.3,0,4.3-1.4,5.1-3.5H6.9C7.7,16.1,9.7,17.5,12,17.5z"/>
	</g>
</g>
<rect class="st0" width="24" height="24"/>
</svg>
