<?xml version="1.0" encoding="utf-8"?>
<!-- Generator: Adobe Illustrator 20.1.0, SVG Export Plug-In . SVG Version: 6.00 Build 0)  -->
<svg version="1.1" id="Layer_1" xmlns="http://www.w3.org/2000/svg" xmlns:xlink="http://www.w3.org/1999/xlink" x="0px" y="0px"
	 viewBox="0 0 24 24" style="enable-background:new 0 0 24 24;" xml:space="preserve">
<style type="text/css">
	.st0{fill:none;}
</style>
<title>very_dissatisfied</title>
<g id="EUXICONS">
	<g id="sentiment_very_dissatisfied">
		<path id="Shape" d="M12,2C6.5,2,2,6.5,2,12s4.5,10,10,10s10-4.5,10-10S17.5,2,12,2z M12,20c-4.4,0-8-3.6-8-8s3.6-8,8-8
			c4.4,0,8,3.6,8,8c0,0,0,0,0,0C20,16.4,16.4,20,12,20z M16.2,7.8l-1.1,1.1l-1.1-1.1L13,8.8l1.1,1.1L13,10.9l1.1,1.1l1.1-1.1
			l1.1,1.1l1.1-1.1l-1.1-1.1l1.1-1.1L16.2,7.8z M7.8,12l1.1-1.1L9.9,12l1.1-1.1L9.9,9.9L11,8.8L9.9,7.8L8.9,8.8L7.8,7.8L6.8,8.8
			l1.1,1.1l-1.1,1.1L7.8,12z M12,14c-2.3,0-4.3,1.4-5.1,3.5h10.2C16.3,15.4,14.3,14,12,14z"/>
	</g>
</g>
<rect class="st0" width="24" height="24"/>
</svg>
