<?xml version="1.0" encoding="utf-8"?>
<!-- Generator: Adobe Illustrator 20.1.0, SVG Export Plug-In . SVG Version: 6.00 Build 0)  -->
<svg version="1.1" id="Layer_1" xmlns="http://www.w3.org/2000/svg" xmlns:xlink="http://www.w3.org/1999/xlink" x="0px" y="0px"
	 viewBox="0 0 24 24" style="enable-background:new 0 0 24 24;" xml:space="preserve">
<style type="text/css">
	.st0{fill:none;}
</style>
<title>payment_visa</title>
<g id="EUXICONS">
	<g id="payment_visa">
		<path id="Shape" d="M19.1,12.8h-1.2l0.6-1.6v-0.1l0.1-0.2c0-0.1,0.1-0.2,0.1-0.2l0.1,0.5L19.1,12.8z M6.6,12.3L6.1,9.7
			C6.1,9.4,5.8,9.2,5.5,9.2H3.1v0.1C4.9,9.8,6.1,10.8,6.6,12.3L6.6,12.3z M8.2,9.2L6.8,13l-0.1-0.8c-0.2-0.4-0.4-0.8-0.7-1.1
			c-0.3-0.3-0.7-0.6-1.1-0.8l1.2,4.4h1.5l2.3-5.6L8.2,9.2z M9.4,14.8h1.4l0.9-5.6h-1.4L9.4,14.8z M16,9.4c-0.4-0.2-0.9-0.2-1.3-0.2
			c-0.6,0-1.2,0.2-1.7,0.5c-0.4,0.3-0.7,0.8-0.7,1.3c0,0.6,0.4,1.1,1.2,1.5c0.2,0.1,0.4,0.2,0.6,0.4c0.1,0.1,0.2,0.2,0.2,0.3
			c0,0.2-0.1,0.3-0.3,0.4c-0.2,0.1-0.4,0.1-0.6,0.1c-0.5,0-0.9-0.1-1.4-0.3l-0.2-0.1l-0.2,1.2c0.5,0.2,1.1,0.3,1.6,0.3
			c0.6,0,1.3-0.1,1.8-0.5c0.4-0.3,0.7-0.8,0.7-1.4c0-0.6-0.4-1.1-1.2-1.5c-0.2-0.1-0.4-0.2-0.6-0.4c-0.1-0.1-0.2-0.2-0.2-0.3
			c0-0.1,0.1-0.3,0.2-0.3c0.2-0.1,0.4-0.2,0.6-0.1c0.4,0,0.7,0.1,1.1,0.2l0.1,0.1L16,9.4z M19.7,9.2h-1.1c-0.3,0-0.6,0.2-0.8,0.5
			l-2.1,5.1h1.5l0.3-0.8h1.8c0,0.1,0.1,0.4,0.2,0.8h1.3L19.7,9.2z M22,6.4v11.1c0,0.6-0.5,1.1-1.1,1.1H3.1c-0.3,0-0.6-0.1-0.8-0.3
			C2.1,18.1,2,17.9,2,17.6V6.4c0-0.3,0.1-0.6,0.3-0.8c0.2-0.2,0.5-0.3,0.8-0.3h17.8C21.5,5.3,22,5.8,22,6.4z"/>
	</g>
</g>
<rect class="st0" width="24" height="24"/>
</svg>
