<?xml version="1.0" encoding="utf-8"?>
<!-- Generator: Adobe Illustrator 20.1.0, SVG Export Plug-In . SVG Version: 6.00 Build 0)  -->
<svg version="1.1" id="Layer_1" xmlns="http://www.w3.org/2000/svg" xmlns:xlink="http://www.w3.org/1999/xlink" x="0px" y="0px"
	 viewBox="0 0 24 24" style="enable-background:new 0 0 24 24;" xml:space="preserve">
<style type="text/css">
	.st0{fill:none;}
</style>
<title>visibility</title>
<path d="M12,5.2C7.6,5.2,3.6,7.9,2,12c2.2,5.5,8.4,8.2,13.9,6.1c2.8-1.1,5-3.3,6.1-6.1C20.4,7.9,16.4,5.2,12,5.2z M12,16.5
	c-2.5,0-4.5-2-4.5-4.5s2-4.5,4.5-4.5s4.5,2,4.5,4.5C16.5,14.5,14.5,16.5,12,16.5z M12,9.3c-1.5,0-2.7,1.2-2.7,2.7s1.2,2.7,2.7,2.7
	c1.5,0,2.7-1.2,2.7-2.7C14.7,10.5,13.5,9.3,12,9.3L12,9.3z"/>
<rect class="st0" width="24" height="24"/>
</svg>
