<?xml version="1.0" encoding="utf-8"?>
<!-- Generator: Adobe Illustrator 20.1.0, SVG Export Plug-In . SVG Version: 6.00 Build 0)  -->
<svg version="1.1" id="Layer_1" xmlns="http://www.w3.org/2000/svg" xmlns:xlink="http://www.w3.org/1999/xlink" x="0px" y="0px"
	 viewBox="0 0 24 24" style="enable-background:new 0 0 24 24;" xml:space="preserve">
<style type="text/css">
	.st0{fill:none;}
</style>
<title>visibility_off</title>
<path d="M11.9,8.8H12c1.5,0,2.7,1.2,2.7,2.7v0.2L11.9,8.8z M8,9.6c-0.3,0.6-0.5,1.3-0.5,2c0,2.5,2,4.6,4.6,4.6c0.7,0,1.4-0.2,2-0.5
	l-1.4-1.4c-0.2,0.1-0.4,0.1-0.6,0.1c-1.5,0-2.7-1.2-2.7-2.7c0-0.2,0-0.4,0.1-0.6L8,9.6z M2.9,4.5l1.2-1.1l16.1,16.1l-1.1,1.1
	c-1-1-2.1-2-3.1-3c-1.3,0.5-2.6,0.8-4,0.8c-4.4,0-8.4-2.7-10-6.8C2.7,9.8,3.9,8.2,5.4,7C4.6,6.2,3.8,5.4,2.9,4.5z M12,7
	c-0.6,0-1.1,0.1-1.7,0.3l-1.9-2c1.2-0.4,2.4-0.6,3.6-0.6c4.4,0,8.4,2.7,10,6.8c-0.7,1.7-1.7,3.2-3.1,4.3l-2.6-2.6
	c0.2-0.5,0.3-1.1,0.3-1.7C16.6,9,14.5,7,12,7z"/>
<rect class="st0" width="24" height="24"/>
</svg>
