<?xml version="1.0" encoding="utf-8"?>
<!-- Generator: Adobe Illustrator 20.1.0, SVG Export Plug-In . SVG Version: 6.00 Build 0)  -->
<svg version="1.1" id="Layer_1" xmlns="http://www.w3.org/2000/svg" xmlns:xlink="http://www.w3.org/1999/xlink" x="0px" y="0px"
	 viewBox="0 0 24 24" style="enable-background:new 0 0 24 24;" xml:space="preserve">
<style type="text/css">
	.st0{fill:none;}
</style>
<title>volume_off</title>
<g id="EUXICONS">
	<g id="volume_off">
		<path id="Shape" d="M17,12c0-1.9-1.1-3.6-2.8-4.5V10l2.7,2.7C17,12.5,17,12.2,17,12z M19.8,12c0,1-0.2,2-0.6,2.9l1.7,1.7
			c0.8-1.4,1.2-3,1.2-4.6c0-4.7-3.2-8.7-7.8-9.7v2.3C17.5,5.5,19.8,8.6,19.8,12z M3.4,2L2,3.4l5.3,5.3H2v6.7h4.4l5.6,5.6v-7.5
			l4.7,4.7c-0.7,0.6-1.6,1-2.5,1.3v2.3c1.5-0.3,2.9-1,4.1-2l2.3,2.3l1.4-1.4l-10-10L3.4,2z M12,3.1L9.7,5.4L12,7.8V3.1z"/>
	</g>
</g>
<rect class="st0" width="24" height="24"/>
</svg>
