<?xml version="1.0" encoding="utf-8"?>
<!-- Generator: Adobe Illustrator 20.1.0, SVG Export Plug-In . SVG Version: 6.00 Build 0)  -->
<svg version="1.1" id="Layer_1" xmlns="http://www.w3.org/2000/svg" xmlns:xlink="http://www.w3.org/1999/xlink" x="0px" y="0px"
	 viewBox="0 0 24 24" style="enable-background:new 0 0 24 24;" xml:space="preserve">
<style type="text/css">
	.st0{fill:none;}
</style>
<title>washing_machine</title>
<path d="M9.2,16.8c1.6,1.6,4.1,1.6,5.7,0s1.6-4.1,0-5.7L9.2,16.8z M18,2H6C4.9,2,4,2.9,4,4c0,0,0,0,0,0v16c0,1.1,0.9,2,2,2
	c0,0,0,0,0,0h12c1.1,0,2-0.9,2-2c0,0,0,0,0,0V4C20,2.9,19.1,2,18,2C18,2,18,2,18,2z M10,4c0.6,0,1,0.4,1,1s-0.4,1-1,1
	C9.4,6,9,5.6,9,5S9.4,4,10,4L10,4z M7,4c0.6,0,1,0.4,1,1S7.6,6,7,6S6,5.6,6,5l0,0C6,4.4,6.4,4,7,4z M12,20c-3.3,0-6-2.7-6-6
	s2.7-6,6-6s6,2.7,6,6C18,17.3,15.3,20,12,20z"/>
<rect class="st0" width="24" height="24"/>
</svg>
