<?xml version="1.0" encoding="utf-8"?>
<!-- Generator: Adobe Illustrator 20.1.0, SVG Export Plug-In . SVG Version: 6.00 Build 0)  -->
<svg version="1.1" id="Layer_1" xmlns="http://www.w3.org/2000/svg" xmlns:xlink="http://www.w3.org/1999/xlink" x="0px" y="0px"
	 viewBox="0 0 24 24" style="enable-background:new 0 0 24 24;" xml:space="preserve">
<style type="text/css">
	.st0{fill:none;}
</style>
<title>watch</title>
<g id="EUXICONS">
	<g id="watch">
		<path id="Shape" d="M18.7,12c0-2-0.9-4-2.5-5.2L15.3,2H8.7L7.9,6.8C5,9,4.5,13.2,6.8,16.1c0.3,0.4,0.7,0.8,1.1,1.1L8.7,22h6.7
			l0.8-4.8C17.7,16,18.7,14,18.7,12z M7,12c0-2.8,2.2-5,5-5s5,2.2,5,5s-2.2,5-5,5S7,14.8,7,12z"/>
	</g>
</g>
<rect class="st0" width="24" height="24"/>
</svg>
