<?xml version="1.0" encoding="utf-8"?>
<!-- Generator: Adobe Illustrator 20.1.0, SVG Export Plug-In . SVG Version: 6.00 Build 0)  -->
<svg version="1.1" id="Layer_1" xmlns="http://www.w3.org/2000/svg" xmlns:xlink="http://www.w3.org/1999/xlink" x="0px" y="0px"
	 viewBox="0 0 24 24" style="enable-background:new 0 0 24 24;" xml:space="preserve">
<style type="text/css">
	.st0{fill:none;}
</style>
<title>wifi</title>
<g id="EUXICONS">
	<g id="wifi">
		<path id="Shape" d="M2,9.1l1.8,1.8c4.5-4.5,11.8-4.5,16.4,0c0,0,0,0,0,0L22,9.1C16.5,3.5,7.5,3.5,2,9.1z M9.3,16.3l2.7,2.7
			l2.7-2.7C13.2,14.8,10.8,14.8,9.3,16.3C9.3,16.3,9.3,16.3,9.3,16.3L9.3,16.3z M5.6,12.7l1.8,1.8c2.5-2.5,6.6-2.5,9.1,0l1.8-1.8
			C14.9,9.2,9.2,9.2,5.6,12.7L5.6,12.7z"/>
	</g>
</g>
<rect class="st0" width="24" height="24"/>
</svg>
