<?xml version="1.0" encoding="utf-8"?>
<!-- Generator: Adobe Illustrator 20.1.0, SVG Export Plug-In . SVG Version: 6.00 Build 0)  -->
<svg version="1.1" id="Layer_1" xmlns="http://www.w3.org/2000/svg" xmlns:xlink="http://www.w3.org/1999/xlink" x="0px" y="0px"
	 viewBox="0 0 24 24" style="enable-background:new 0 0 24 24;" xml:space="preserve">
<style type="text/css">
	.st0{fill:none;}
</style>
<title>wrench</title>
<path d="M19.6,3.8c-2-2.2-5.5-2.4-7.7-0.4C10.1,5,9.5,7.6,10.5,9.8l-7,8c-0.9,1.1-0.8,2.7,0.3,3.6s2.7,0.8,3.6-0.3l7.1-8.1
	c0.4,0.1,0.7,0.1,1.1,0.1c1,0,2-0.3,2.8-0.8l-2.1-4.4l-1-2.2L19.6,3.8L19.6,3.8z M20.8,6c0.2,0.5,0.2,1.1,0.2,1.6
	c0,1.6-0.7,3-1.8,4.1l-1.9-4.1L20.8,6L20.8,6z M14.9,7.7l1.5,3.2l-3.6,1.7l-1.5-3.2L14.9,7.7L14.9,7.7z M14.7,8.5l0.4,0.8l-2.6,1.2
	l-0.4-0.8L14.7,8.5z M15.3,9.8l0.4,0.8l-2.6,1.2L12.7,11L15.3,9.8z"/>
<rect class="st0" width="24" height="24"/>
</svg>
